<?xml version="1.0" encoding="UTF-8"?>
<svg version="1.1" xmlns="http://www.w3.org/2000/svg" width="214" height="118">
<path d="M0 0 C70.62 0 141.24 0 214 0 C214 38.94 214 77.88 214 118 C143.38 118 72.76 118 0 118 C0 79.06 0 40.12 0 0 Z " fill="#EFE7D6" transform="translate(0,0)"/>
<path d="M0 0 C14.19 0 28.38 0 43 0 C43.68864557 30.00527106 44.16546867 59.98652862 44 90 C44.89960449 90.14369019 44.89960449 90.14369019 45.81738281 90.2902832 C54.58398468 91.78034567 63.15035631 93.95718684 71.75 96.1875 C72.52510925 96.38730469 73.30021851 96.58710937 74.09881592 96.79296875 C84.21834807 99.4057359 94.25686942 102.18056972 104.2277832 105.31933594 C113.0701146 108.08301589 121.99698695 110.51518295 130.9375 112.9375 C131.68920471 113.14117187 132.44090942 113.34484375 133.21539307 113.5546875 C137.4756847 114.70776822 141.73728473 115.85590644 146 117 C146 117.33 146 117.66 146 118 C97.82 118 49.64 118 0 118 C0 79.06 0 40.12 0 0 Z " fill="#46615A" transform="translate(0,0)"/>
<path d="M0 0 C3.63 0 7.26 0 11 0 C11.14836924 18.54512476 10.69206087 37.03129291 10 55.5625 C9.90272985 58.24280585 9.80681976 60.92315981 9.7109375 63.60351562 C9.47863456 70.06918717 9.2413848 76.53466146 9 83 C9.64868546 83.05655258 10.29737091 83.11310516 10.9657135 83.17137146 C15.84020059 83.62263094 20.54068764 84.19608073 25.30859375 85.34765625 C26.44893066 85.61892334 27.58926758 85.89019043 28.76416016 86.16967773 C29.9763623 86.46430908 31.18856445 86.75894043 32.4375 87.0625 C34.42934431 87.53803491 36.42178852 88.01100286 38.41424561 88.48396301 C39.80703887 88.81476217 41.19965555 89.14630562 42.59210205 89.4785614 C50.42534562 91.34654669 58.27411957 93.14534595 66.125 94.9375 C66.846875 95.10264099 67.56875 95.26778198 68.3125 95.43792725 C79.06686133 97.89759342 89.83385602 100.29661581 100.60684204 102.67321777 C112.25103829 105.24262233 123.86680255 107.870837 135.41796875 110.8359375 C140.84601055 112.22811301 146.29748448 113.52011622 151.75 114.8125 C152.67546631 115.03188232 153.60093262 115.25126465 154.55444336 115.47729492 C156.70274444 115.98578434 158.85133828 116.49303664 161 117 C161 117.33 161 117.66 161 118 C124.30107952 119.70254102 93.23980606 117.60998052 58.25231934 105.74975586 C53.21471633 104.07283008 48.10561374 102.64129887 43 101.1875 C42.13165527 100.9301709 41.26331055 100.6728418 40.36865234 100.40771484 C27.35434633 96.55656742 14.15575376 93.32672735 1 90 C0.04310895 59.99535787 -0.12044438 30.01844477 0 0 Z " fill="#ECE7D9" transform="translate(43,0)"/>
<path d="M0 0 C0.625 3.0625 0.625 3.0625 1 6 C3.48754786 7.24377393 5.22655301 7.13306235 8 7.125 C9.3303125 7.12886719 9.3303125 7.12886719 10.6875 7.1328125 C13.02676966 7.15127902 13.02676966 7.15127902 15 6 C20.85088068 5.46151187 25.11963687 5.4752933 30 9 C31.98451771 9.71143088 33.98202112 10.38991336 36 11 C36 11.33 36 11.66 36 12 C2.34 12 -31.32 12 -66 12 C-66 6.39 -66 0.78 -66 -5 C-12.82632186 -8.86717659 -12.82632186 -8.86717659 0 0 Z " fill="#F4F1EA" transform="translate(66,106)"/>
<path d="M0 0 C0.66 0 1.32 0 2 0 C2.16259416 18.54433341 1.69202339 37.0322965 1 55.5625 C0.90272985 58.24280585 0.80681976 60.92315981 0.7109375 63.60351562 C0.47863456 70.06918717 0.2413848 76.53466146 0 83 C0.64868546 83.05655258 1.29737091 83.11310516 1.9657135 83.17137146 C6.84020059 83.62263094 11.54068764 84.19608073 16.30859375 85.34765625 C17.44893066 85.61892334 18.58926758 85.89019043 19.76416016 86.16967773 C20.9763623 86.46430908 22.18856445 86.75894043 23.4375 87.0625 C25.42934431 87.53803491 27.42178852 88.01100286 29.41424561 88.48396301 C30.80703887 88.81476217 32.19965555 89.14630562 33.59210205 89.4785614 C41.42534562 91.34654669 49.27411957 93.14534595 57.125 94.9375 C57.846875 95.10264099 58.56875 95.26778198 59.3125 95.43792725 C70.06686133 97.89759342 80.83385602 100.29661581 91.60684204 102.67321777 C103.25103829 105.24262233 114.86680255 107.870837 126.41796875 110.8359375 C131.84601055 112.22811301 137.29748448 113.52011622 142.75 114.8125 C143.67546631 115.03188232 144.60093262 115.25126465 145.55444336 115.47729492 C147.70274444 115.98578434 149.85133828 116.49303664 152 117 C152 117.33 152 117.66 152 118 C144.69040531 118.32470307 138.55305872 117.15211007 131.5 115.3125 C128.94886894 114.67160778 126.39708424 114.03431941 123.84375 113.40234375 C123.1213916 113.22298279 122.3990332 113.04362183 121.65478516 112.85882568 C109.47761191 109.85856533 97.23071438 107.14660473 85 104.375 C45.57981602 95.44145047 45.57981602 95.44145047 27.8125 90.9375 C21.98828397 89.48144599 16.15936215 88.05005356 10.3125 86.6875 C9.55751221 86.50372803 8.80252441 86.31995605 8.0246582 86.13061523 C3.72265124 85.14756315 1.46670876 85.10665825 -3 86 C-3 62.57 -3 39.14 -3 15 C-2.67 15 -2.34 15 -2 15 C-1.67 22.59 -1.34 30.18 -1 38 C-0.67 25.46 -0.34 12.92 0 0 Z " fill="#4A4E56" transform="translate(52,0)"/>
<path d="M0 0 C7.3023595 0.75104813 14.39309003 2.25837233 21.5625 3.8125 C23.45464233 4.22060913 23.45464233 4.22060913 25.38500977 4.63696289 C32.60454977 6.2110922 39.73985446 7.91178326 46.859375 9.88671875 C64.50114549 14.71332621 82.42010501 18.57548056 100.27975464 22.50109863 C115.23912383 25.79134432 130.12866732 29.33252515 145 33 C145 33.33 145 33.66 145 34 C130.29645935 34.887141 117.60178039 32.6988833 103.42578125 28.8984375 C98.57892904 27.6273132 93.7047316 26.48140328 88.82861328 25.32861328 C79.22491848 23.05624935 69.66350286 20.70420512 60.17626953 17.98632812 C42.58053909 12.99932449 24.71032243 8.77636372 6.88671875 4.69140625 C4 4 4 4 1 3 C0.67 2.01 0.34 1.02 0 0 Z " fill="#848481" transform="translate(50,84)"/>
<path d="M0 0 C31.68 0 63.36 0 96 0 C96 0.99 96 1.98 96 3 C64.32 3 32.64 3 0 3 C0 2.01 0 1.02 0 0 Z " fill="#F1E9D7" transform="translate(74,0)"/>
<path d="M0 0 C0.66 0 1.32 0 2 0 C2 0.99 2 1.98 2 3 C33.68 3 65.36 3 98 3 C98 2.01 98 1.02 98 0 C98.66 0 99.32 0 100 0 C100 0.99 100 1.98 100 3 C100.99 3.495 100.99 3.495 102 4 C100.68 5.32 99.36 6.64 98 8 C98 7.01 98 6.02 98 5 C97.38947281 5.00222061 96.77894562 5.00444122 96.1499176 5.00672913 C64.41633388 5.11659865 32.71923264 5.01277441 1 4 C1 6.31 1 8.62 1 11 C1.66 11.33 2.32 11.66 3 12 C2.34 12 1.68 12 1 12 C1 13.65 1 15.3 1 17 C3.97 17 6.94 17 10 17 C10 15.35 10 13.7 10 12 C10.33 12 10.66 12 11 12 C11 13.98 11 15.96 11 18 C17.93 18.495 17.93 18.495 25 19 C24.67 17.02 24.34 15.04 24 13 C24.99 13.33 25.98 13.66 27 14 C26.67 14.99 26.34 15.98 26 17 C27.32 17.33 28.64 17.66 30 18 C22.26856536 23.15428976 9.62778981 19.4294563 1 18 C1.185625 18.78375 1.37125 19.5675 1.5625 20.375 C2 23 2 23 1 25 C0.01 24.67 -0.98 24.34 -2 24 C-2 23.34 -2 22.68 -2 22 C-1.34 22 -0.68 22 0 22 C-0.08378906 21.28714844 -0.16757813 20.57429688 -0.25390625 19.83984375 C-0.84189161 14.30980427 -1.09194306 9.45971529 0 4 C-0.66 3.67 -1.32 3.34 -2 3 C-1.34 3 -0.68 3 0 3 C0 2.01 0 1.02 0 0 Z " fill="#54585D" transform="translate(72,0)"/>
<path d="M0 0 C0.66 0 1.32 0 2 0 C2.17798172 19.68751623 1.66289617 39.32644064 1 59 C0.67 59 0.34 59 0 59 C-0.33 67.91 -0.66 76.82 -1 86 C-1.66 86 -2.32 86 -3 86 C-3 62.57 -3 39.14 -3 15 C-2.67 15 -2.34 15 -2 15 C-1.67 22.59 -1.34 30.18 -1 38 C-0.67 25.46 -0.34 12.92 0 0 Z " fill="#5D5F5C" transform="translate(52,0)"/>
<path d="M0 0 C1.32 0 2.64 0 4 0 C4.02476651 5.32022769 4.04289156 10.64042162 4.05493164 15.96069336 C4.05995238 17.76961858 4.06677029 19.57853976 4.07543945 21.38745117 C4.08760402 23.99138386 4.09325098 26.59526277 4.09765625 29.19921875 C4.10281754 30.00461594 4.10797882 30.81001312 4.11329651 31.63981628 C4.11368637 35.56472601 3.97084755 39.16699982 3 43 C2.67 43 2.34 43 2 43 C1.67 57.19 1.34 71.38 1 86 C0.67 86 0.34 86 0 86 C0 57.62 0 29.24 0 0 Z " fill="#AFAEA4" transform="translate(48,0)"/>
<path d="M0 0 C0.33 0 0.66 0 1 0 C1 1.65 1 3.3 1 5 C2.65 5 4.3 5 6 5 C6 3.35 6 1.7 6 0 C6.33 1.32 6.66 2.64 7 4 C7.66 4 8.32 4 9 4 C9.33 4.66 9.66 5.32 10 6 C11.98075407 6.69137073 11.98075407 6.69137073 14.3125 7.125 C15.09238281 7.29257812 15.87226562 7.46015625 16.67578125 7.6328125 C19.26632555 8.10403188 19.26632555 8.10403188 23 8 C23.33 6.68 23.66 5.36 24 4 C24.33 5.98 24.66 7.96 25 10 C25.99 9.34 26.98 8.68 28 8 C28.99 8 29.98 8 31 8 C31.495 8.99 31.495 8.99 32 10 C35.56454416 11.37097852 39.23355995 11.07243154 43 11 C43.33 9.68 43.66 8.36 44 7 C45.32 7.33 46.64 7.66 48 8 C47.34 9.32 46.68 10.64 46 12 C50.65052872 12.26932521 50.65052872 12.26932521 55 11 C54.34 10.67 53.68 10.34 53 10 C53.33 9.01 53.66 8.02 54 7 C55.875 7.3125 55.875 7.3125 58 8 C60 11 60 11 59.625 13.6875 C59.41875 14.450625 59.2125 15.21375 59 16 C49.67847284 15.44939018 40.56706992 14.0829312 31.37304688 12.52587891 C29.00505682 12.12585425 26.63551185 11.73626673 24.265625 11.34765625 C15.7350699 9.92923767 7.34941747 8.28995053 -1 6 C-0.67 4.02 -0.34 2.04 0 0 Z " fill="#616566" transform="translate(76,50)"/>
<path d="M0 0 C9.57 0 19.14 0 29 0 C29 1.65 29 3.3 29 5 C26.72979256 5.19493195 24.45879711 5.38070418 22.1875 5.5625 C20.92292969 5.66691406 19.65835938 5.77132813 18.35546875 5.87890625 C15 6 15 6 12 5 C12 5.66 12 6.32 12 7 C10.37509046 7.02698189 8.75005367 7.04638757 7.125 7.0625 C5.76761719 7.07990234 5.76761719 7.07990234 4.3828125 7.09765625 C2 7 2 7 0 6 C0 4.02 0 2.04 0 0 Z " fill="#B0ACA2" transform="translate(185,0)"/>
<path d="M0 0 C0.66 0 1.32 0 2 0 C2 0.99 2 1.98 2 3 C2.66 3.33 3.32 3.66 4 4 C2.68 5.32 1.36 6.64 0 8 C0 7.01 0 6.02 0 5 C-18.48 5 -36.96 5 -56 5 C-54 3 -54 3 -51.70944214 2.75949097 C-50.75457916 2.76393219 -49.79971619 2.76837341 -48.81591797 2.77294922 C-47.19446365 2.77317581 -47.19446365 2.77317581 -45.54025269 2.77340698 C-43.78396042 2.78889084 -43.78396042 2.78889084 -41.9921875 2.8046875 C-40.1985527 2.80893234 -40.1985527 2.80893234 -38.36868286 2.81326294 C-34.53735481 2.82448695 -30.70625778 2.84959569 -26.875 2.875 C-24.28255545 2.88502692 -21.69010725 2.89415327 -19.09765625 2.90234375 C-12.73169158 2.92443354 -6.36586229 2.95793294 0 3 C0 2.01 0 1.02 0 0 Z " fill="#888987" transform="translate(170,0)"/>
<path d="M0 0 C0.33 0 0.66 0 1 0 C1 9.57 1 19.14 1 29 C4.3 29.33 7.6 29.66 11 30 C13.44141668 30.46808939 15.87427423 30.9845381 18.29296875 31.55859375 C18.92809891 31.70780777 19.56322906 31.85702179 20.21760559 32.01075745 C22.20904067 32.48037122 24.19820042 32.95893177 26.1875 33.4375 C27.52786493 33.753806 28.8683592 34.06956445 30.20898438 34.38476562 C36.18048199 35.7981294 42.10841964 37.28328225 48 39 C48 39.33 48 39.66 48 40 C43.04305898 40.16397006 38.90686872 39.66202375 34.125 38.375 C32.74261459 38.01139322 31.3597659 37.64954505 29.9765625 37.2890625 C29.20602539 37.08700195 28.43548828 36.88494141 27.64160156 36.67675781 C22.27718123 35.30243497 16.88633831 34.03512948 11.5 32.75 C7.705 31.8425 3.91 30.935 0 30 C0 20.1 0 10.2 0 0 Z " fill="#3A3E45" transform="translate(51,54)"/>
<path d="M0 0 C0.99 0 1.98 0 3 0 C3.5534764 2.07553648 4 3.84365964 4 6 C6.64 6 9.28 6 12 6 C12 5.34 12 4.68 12 4 C11.01 4 10.02 4 9 4 C9 3.34 9 2.68 9 2 C12.375 2.25 12.375 2.25 16 3 C17.4375 5.0625 17.4375 5.0625 18 7 C16 9 16 9 13.6784668 9.06225586 C5.642951 8.27733522 -2.2524003 7.04573662 -10.1875 5.5625 C-11.41275391 5.34529297 -12.63800781 5.12808594 -13.90039062 4.90429688 C-15.6415918 4.58235352 -15.6415918 4.58235352 -17.41796875 4.25390625 C-18.46750732 4.06127197 -19.5170459 3.8686377 -20.59838867 3.67016602 C-21.39092041 3.44901123 -22.18345215 3.22785645 -23 3 C-23.33 2.34 -23.66 1.68 -24 1 C-15.86290495 1.71378027 -7.98268072 3.32773882 0 5 C0 3.35 0 1.7 0 0 Z " fill="#767776" transform="translate(119,73)"/>
<path d="M0 0 C0.33 0 0.66 0 1 0 C1 2.31 1 4.62 1 7 C2.98567708 6.96744792 4.97135417 6.93489583 6.95703125 6.90234375 C9 7 9 7 12 8 C12 6.02 12 4.04 12 2 C12.99 2 13.98 2 15 2 C14.814375 2.598125 14.62875 3.19625 14.4375 3.8125 C13.77906313 6.16408762 13.77906313 6.16408762 15 9 C15.72445312 8.90460937 16.44890625 8.80921875 17.1953125 8.7109375 C27.3404861 7.54762426 27.3404861 7.54762426 32 10 C32.495 11.485 32.495 11.485 33 13 C35.00016466 14.20882096 35.00016466 14.20882096 37 15 C33.50765756 15.09978121 30.40562852 14.77842938 27 14 C27 13.34 27 12.68 27 12 C18.42 11.01 9.84 10.02 1 9 C0.67 9.66 0.34 10.32 0 11 C0 10.01 0 9.02 0 8 C-2.31 8 -4.62 8 -7 8 C-7 7.67 -7 7.34 -7 7 C-4.69 7 -2.38 7 0 7 C0 4.69 0 2.38 0 0 Z " fill="#7F7F7E" transform="translate(107,13)"/>
<path d="M0 0 C0.66 0 1.32 0 2 0 C2 2.31 2 4.62 2 7 C3.99983534 6.20882096 3.99983534 6.20882096 6 5 C6.33 4.01 6.66 3.02 7 2 C7.99 2.33 8.98 2.66 10 3 C10.33 4.65 10.66 6.3 11 8 C15.29 8 19.58 8 24 8 C24 8.66 24 9.32 24 10 C19.05 9.67 14.1 9.34 9 9 C8.34 10.32 7.68 11.64 7 13 C6.34 12.67 5.68 12.34 5 12 C5.66 11.34 6.32 10.68 7 10 C0.4 9.34 -6.2 8.68 -13 8 C-13 7.67 -13 7.34 -13 7 C-8.38 7 -3.76 7 1 7 C0.34 5.35 -0.32 3.7 -1 2 C-0.67 1.34 -0.34 0.68 0 0 Z " fill="#5E6062" transform="translate(190,19)"/>
<path d="M0 0 C5.33333333 0 10.66666667 0 16 0 C16 0.66 16 1.32 16 2 C15.01 2.33 14.02 2.66 13 3 C12.67 3.66 12.34 4.32 12 5 C13.19625 4.979375 14.3925 4.95875 15.625 4.9375 C19.18004869 4.93117429 22.50555624 5.30111125 26 6 C26 6.33 26 6.66 26 7 C19.4 6.67 12.8 6.34 6 6 C6 6.66 6 7.32 6 8 C5.34 7.67 4.68 7.34 4 7 C4.66 6.01 5.32 5.02 6 4 C4.02 4 2.04 4 0 4 C0 2.68 0 1.36 0 0 Z " fill="#7C7D7C" transform="translate(140,19)"/>
<path d="M0 0 C0.33 0 0.66 0 1 0 C1 1.65 1 3.3 1 5 C2.65 5 4.3 5 6 5 C6 3.35 6 1.7 6 0 C6.33 1.32 6.66 2.64 7 4 C7.66 4 8.32 4 9 4 C9.33 4.66 9.66 5.32 10 6 C11.98075407 6.69137073 11.98075407 6.69137073 14.3125 7.125 C15.09238281 7.29257812 15.87226562 7.46015625 16.67578125 7.6328125 C19.26632555 8.10403188 19.26632555 8.10403188 23 8 C23.33 6.68 23.66 5.36 24 4 C24.33 5.98 24.66 7.96 25 10 C25.99 9.34 26.98 8.68 28 8 C28.99 8 29.98 8 31 8 C31.495 9.485 31.495 9.485 32 11 C28.34360622 12.26627156 25.53855089 11.76715219 21.7734375 11.07421875 C20.5771875 10.85443359 19.3809375 10.63464844 18.1484375 10.40820312 C16.90320313 10.17037109 15.65796875 9.93253906 14.375 9.6875 C13.12203125 9.46126953 11.8690625 9.23503906 10.578125 9.00195312 C1.25515469 7.25515469 1.25515469 7.25515469 -1 5 C-0.625 2.375 -0.625 2.375 0 0 Z " fill="#7F7F7E" transform="translate(76,50)"/>
<path d="M0 0 C6.85122295 0.62539368 13.37089787 1.86002953 20.0625 3.4375 C21.00416016 3.65470703 21.94582031 3.87191406 22.91601562 4.09570312 C28.29187988 5.34146707 33.65059929 6.64532255 39 8 C39 8.33 39 8.66 39 9 C31.28969762 9.45653106 24.45405136 7.98387188 16.98583984 6.11914062 C14.97942199 5.61987953 12.96884856 5.1410461 10.95703125 4.6640625 C3.66288395 2.87956163 3.66288395 2.87956163 1 2 C0.67 1.34 0.34 0.68 0 0 Z " fill="#3C4149" transform="translate(165,109)"/>
<path d="M0 0 C2.83363811 0.62364257 5.66690959 1.24887814 8.5 1.875 C9.68722656 2.13603516 9.68722656 2.13603516 10.8984375 2.40234375 C15.95470933 3.52135473 20.98142181 4.72233445 26 6 C26 6.33 26 6.66 26 7 C16.04337678 7.67886067 7.47818596 5.69430667 -2 3 C-1.34 2.67 -0.68 2.34 0 2 C0 1.34 0 0.68 0 0 Z " fill="#D5D0C5" transform="translate(169,111)"/>
<path d="M0 0 C2 1.8125 2 1.8125 4 4 C4 4.99 4 5.98 4 7 C-4.57142857 7.14285714 -4.57142857 7.14285714 -8 6 C-8.33 4.35 -8.66 2.7 -9 1 C-5.62537285 1.54723683 -3.91765 2.0549 -1 4 C-0.67 2.68 -0.34 1.36 0 0 Z " fill="#91908B" transform="translate(147,78)"/>
<path d="M0 0 C5.75 0.75 5.75 0.75 8 3 C7.46428571 6.53571429 7.46428571 6.53571429 6 8 C3.32941149 8.14115161 0.67567762 8.04247107 -2 8 C-2 7.34 -2 6.68 -2 6 C-1.01 5.34 -0.02 4.68 1 4 C1.33 3.01 1.66 2.02 2 1 C1.34 0.67 0.68 0.34 0 0 Z " fill="#7B7C7B" transform="translate(129,41)"/>
<path d="M0 0 C0.33 0 0.66 0 1 0 C1 2.31 1 4.62 1 7 C2.98567708 6.96744792 4.97135417 6.93489583 6.95703125 6.90234375 C9 7 9 7 12 8 C12 6.02 12 4.04 12 2 C12.99 2 13.98 2 15 2 C14.67 4.31 14.34 6.62 14 9 C9.71 9 5.42 9 1 9 C0.67 9.66 0.34 10.32 0 11 C0 10.01 0 9.02 0 8 C-2.31 8 -4.62 8 -7 8 C-7 7.67 -7 7.34 -7 7 C-4.69 7 -2.38 7 0 7 C0 4.69 0 2.38 0 0 Z " fill="#5B5D60" transform="translate(107,13)"/>
<path d="M0 0 C0.66 0 1.32 0 2 0 C2 0.99 2 1.98 2 3 C2.66 3.33 3.32 3.66 4 4 C2.68 5.32 1.36 6.64 0 8 C0 7.01 0 6.02 0 5 C-8.91 5 -17.82 5 -27 5 C-27 4.67 -27 4.34 -27 4 C-18.09 3.67 -9.18 3.34 0 3 C0 2.01 0 1.02 0 0 Z " fill="#747576" transform="translate(170,0)"/>
<path d="M0 0 C5.28 0 10.56 0 16 0 C16 0.99 16 1.98 16 3 C10.39 3 4.78 3 -1 3 C-0.67 2.01 -0.34 1.02 0 0 Z " fill="#EEE6D5" transform="translate(198,0)"/>
<path d="M0 0 C0.33 0.66 0.66 1.32 1 2 C2.98 2 4.96 2 7 2 C7.33 1.34 7.66 0.68 8 0 C8 2.31 8 4.62 8 7 C4.37 7.33 0.74 7.66 -3 8 C-2.34 6.68 -1.68 5.36 -1 4 C-0.63215869 2.6757713 -0.28797019 1.34386088 0 0 Z " fill="#CFCBBE" transform="translate(99,13)"/>
<path d="M0 0 C1.32 0 2.64 0 4 0 C4 2.31 4 4.62 4 7 C5.093125 6.95875 6.18625 6.9175 7.3125 6.875 C11 7 11 7 14 9 C6.97326485 8.49656013 -0.01940909 7.95812032 -7 7 C-7 6.67 -7 6.34 -7 6 C-4.03 6 -1.06 6 2 6 C1.01 5.34 0.02 4.68 -1 4 C-0.67 2.68 -0.34 1.36 0 0 Z " fill="#6A6A6A" transform="translate(147,44)"/>
<path d="M0 0 C3.375 0.25 3.375 0.25 7 1 C8.4375 3.0625 8.4375 3.0625 9 5 C7 7 7 7 3.875 7.125 C2.451875 7.063125 2.451875 7.063125 1 7 C1.66 6.67 2.32 6.34 3 6 C3 4.68 3 3.36 3 2 C2.01 2 1.02 2 0 2 C0 1.34 0 0.68 0 0 Z " fill="#858685" transform="translate(128,75)"/>
<path d="M0 0 C1.48831242 0.00667405 2.97660807 0.01863442 4.46484375 0.03515625 C5.22345703 0.03966797 5.98207031 0.04417969 6.76367188 0.04882812 C8.64326246 0.06064945 10.52281274 0.07858547 12.40234375 0.09765625 C12.40234375 0.75765625 12.40234375 1.41765625 12.40234375 2.09765625 C10.13279189 2.31951469 7.8616062 2.5247114 5.58984375 2.72265625 C3.69298828 2.89667969 3.69298828 2.89667969 1.7578125 3.07421875 C-1.59765625 3.09765625 -1.59765625 3.09765625 -4.59765625 1.09765625 C-3.59765625 0.09765625 -3.59765625 0.09765625 0 0 Z " fill="#282F37" transform="translate(201.59765625,2.90234375)"/>
<path d="M0 0 C6.43681228 0.51085812 11.95942424 1.72942897 18 4 C18 4.33 18 4.66 18 5 C11.44074057 4.61020794 6.05473373 3.57886807 0 1 C0 0.67 0 0.34 0 0 Z " fill="#E3E0D4" transform="translate(117,100)"/>
<path d="M0 0 C3.63 0 7.26 0 11 0 C9.515 2.475 9.515 2.475 8 5 C6.35 4.67 4.7 4.34 3 4 C3 3.01 3 2.02 3 1 C2.01 0.67 1.02 0.34 0 0 Z " fill="#DFDBCD" transform="translate(136,22)"/>
<path d="M0 0 C1.134375 0.020625 2.26875 0.04125 3.4375 0.0625 C3.4375 1.0525 3.4375 2.0425 3.4375 3.0625 C1.1275 3.7225 -1.1825 4.3825 -3.5625 5.0625 C-4.125 3.125 -4.125 3.125 -4.5625 1.0625 C-3.5625 0.0625 -3.5625 0.0625 0 0 Z " fill="#CDC7BA" transform="translate(68.5625,-0.0625)"/>
<path d="M0 0 C1.6045556 0.14148989 3.20863767 0.28835686 4.8125 0.4375 C5.70582031 0.51871094 6.59914062 0.59992188 7.51953125 0.68359375 C10 1 10 1 13 2 C13 2.66 13 3.32 13 4 C11.58222818 3.91214662 10.16570961 3.80395353 8.75 3.6875 C7.96109375 3.62949219 7.1721875 3.57148437 6.359375 3.51171875 C3.60815938 2.9150147 2.11964043 1.81336211 0 0 Z " fill="#E7E2D5" transform="translate(156,109)"/>
<path d="M0 0 C1.875 0.25 1.875 0.25 4 1 C5.3125 2.9375 5.3125 2.9375 6 5 C5.67 5.66 5.34 6.32 5 7 C3.35 7 1.7 7 0 7 C0.66 6.67 1.32 6.34 2 6 C2 5.01 2 4.02 2 3 C1.01 3 0.02 3 -1 3 C-0.67 2.01 -0.34 1.02 0 0 Z " fill="#91918F" transform="translate(130,57)"/>
<path d="M0 0 C0.33 0 0.66 0 1 0 C1 1.65 1 3.3 1 5 C1.66 5.33 2.32 5.66 3 6 C2.34 6 1.68 6 1 6 C1.08378906 6.77085938 1.16757813 7.54171875 1.25390625 8.3359375 C1.35574219 9.33882812 1.45757812 10.34171875 1.5625 11.375 C1.66691406 12.37273438 1.77132812 13.37046875 1.87890625 14.3984375 C2 17 2 17 1 19 C0.01 18.67 -0.98 18.34 -2 18 C-2 17.34 -2 16.68 -2 16 C-1.34 16 -0.68 16 0 16 C-0.08378906 15.26394531 -0.16757813 14.52789062 -0.25390625 13.76953125 C-0.35574219 12.79371094 -0.45757812 11.81789063 -0.5625 10.8125 C-0.66691406 9.84957031 -0.77132812 8.88664063 -0.87890625 7.89453125 C-0.99758751 5.05766623 -0.67765639 2.74576329 0 0 Z " fill="#1E232C" transform="translate(72,6)"/>
<path d="M0 0 C1.41750563 0.11509661 2.83401169 0.24253658 4.25 0.375 C5.03890625 0.44460937 5.8278125 0.51421875 6.640625 0.5859375 C9 1 9 1 13 3 C9.04 3 5.08 3 1 3 C0.67 2.01 0.34 1.02 0 0 Z " fill="#E3DDD0" transform="translate(182,115)"/>
<path d="M0 0 C0.33 1.32 0.66 2.64 1 4 C1.99 3.67 2.98 3.34 4 3 C4.33 4.32 4.66 5.64 5 7 C3.741875 7.04125 2.48375 7.0825 1.1875 7.125 C0.47980469 7.14820313 -0.22789063 7.17140625 -0.95703125 7.1953125 C-3 7 -3 7 -6 5 C-4.02 5 -2.04 5 0 5 C0 3.35 0 1.7 0 0 Z " fill="#5E5F62" transform="translate(81,36)"/>
<path d="M0 0 C1.33998047 0.31324219 1.33998047 0.31324219 2.70703125 0.6328125 C3.60808594 0.83648437 4.50914063 1.04015625 5.4375 1.25 C6.46810547 1.50136719 6.46810547 1.50136719 7.51953125 1.7578125 C7.18953125 2.4178125 6.85953125 3.0778125 6.51953125 3.7578125 C0.57953125 2.7678125 0.57953125 2.7678125 -5.48046875 1.7578125 C-2.48046875 -0.2421875 -2.48046875 -0.2421875 0 0 Z " fill="#55595E" transform="translate(101.48046875,93.2421875)"/>
<path d="M0 0 C0.33 0.66 0.66 1.32 1 2 C1.99 2.33 2.98 2.66 4 3 C4.33 2.34 4.66 1.68 5 1 C4.67 2.32 4.34 3.64 4 5 C1.03 4.67 -1.94 4.34 -5 4 C-3.35 2.68 -1.7 1.36 0 0 Z " fill="#4D5055" transform="translate(131,61)"/>
<path d="M0 0 C1.65 0 3.3 0 5 0 C5.33 0.99 5.66 1.98 6 3 C8.00016466 4.20882096 8.00016466 4.20882096 10 5 C6.50765756 5.09978121 3.40562852 4.77842938 0 4 C0 2.68 0 1.36 0 0 Z " fill="#4A4C52" transform="translate(134,23)"/>
<path d="M0 0 C0.66 0 1.32 0 2 0 C2 2.64 2 5.28 2 8 C0.35 7.67 -1.3 7.34 -3 7 C-3 6.34 -3 5.68 -3 5 C-2.01 5 -1.02 5 0 5 C0 3.35 0 1.7 0 0 Z " fill="#A3A39B" transform="translate(75,63)"/>
<path d="M0 0 C1.32 0.33 2.64 0.66 4 1 C3.01 1 2.02 1 1 1 C1.33 2.32 1.66 3.64 2 5 C3.32 5 4.64 5 6 5 C6 5.66 6 6.32 6 7 C4.02 7 2.04 7 0 7 C0 4.69 0 2.38 0 0 Z " fill="#616262" transform="translate(183,18)"/>
<path d="M0 0 C2.97 0.495 2.97 0.495 6 1 C5.67 2.98 5.34 4.96 5 7 C4.01 6.67 3.02 6.34 2 6 C2.33 5.01 2.66 4.02 3 3 C2.01 2.67 1.02 2.34 0 2 C0 1.34 0 0.68 0 0 Z " fill="#B8B4AC" transform="translate(69,50)"/>
<path d="M0 0 C0.99 1.485 0.99 1.485 2 3 C0.7315625 2.5359375 0.7315625 2.5359375 -0.5625 2.0625 C-4.0497854 0.98461179 -7.38177535 0.43418696 -11 0 C-11 -0.33 -11 -0.66 -11 -1 C-6.6292047 -2.01646402 -3.97712063 -2.20951146 0 0 Z " fill="#3D4348" transform="translate(95,112)"/>
<path d="M0 0 C0.66 0.33 1.32 0.66 2 1 C2 1.66 2 2.32 2 3 C2.66 3.33 3.32 3.66 4 4 C4 4.66 4 5.32 4 6 C2.02 6 0.04 6 -2 6 C-2.33 5.34 -2.66 4.68 -3 4 C-2.01 4 -1.02 4 0 4 C0 2.68 0 1.36 0 0 Z " fill="#7E7E7B" transform="translate(82,66)"/>
<path d="M0 0 C0.66 0 1.32 0 2 0 C2 0.99 2 1.98 2 3 C2.66 3.33 3.32 3.66 4 4 C2.68 5.32 1.36 6.64 0 8 C-0.79953138 4.71303767 -1.09658936 3.28976808 0 0 Z " fill="#3B3F49" transform="translate(170,0)"/>
<path d="M0 0 C-4.1795645 2.78637633 -6.14668677 1.79562512 -11 1 C-6.8204355 -1.78637633 -4.85331323 -0.79562512 0 0 Z " fill="#575A5E" transform="translate(189,113)"/>
<path d="M0 0 C-0.66 0.66 -1.32 1.32 -2 2 C-4.72869407 1.96712417 -7.2966618 1.43602229 -10 1 C-6.1496895 -1.56687367 -4.41430237 -0.83288724 0 0 Z " fill="#5F6165" transform="translate(167,108)"/>
<path d="M0 0 C6.15234375 0.5859375 6.15234375 0.5859375 8 1 C8.33 1.66 8.66 2.32 9 3 C3.46153846 3.36923077 3.46153846 3.36923077 1.125 1.5 C0.75375 1.005 0.3825 0.51 0 0 Z " fill="#EAE6D9" transform="translate(126,102)"/>
</svg>
