<?xml version="1.0" encoding="UTF-8"?>
<svg version="1.1" xmlns="http://www.w3.org/2000/svg" width="210" height="118">
<path d="M0 0 C69.3 0 138.6 0 210 0 C210 38.94 210 77.88 210 118 C140.7 118 71.4 118 0 118 C0 79.06 0 40.12 0 0 Z " fill="#EBE3D2" transform="translate(0,0)"/>
<path d="M0 0 C13.53 0 27.06 0 41 0 C41 38.94 41 77.88 41 118 C27.47 118 13.94 118 0 118 C0 79.06 0 40.12 0 0 Z " fill="#97B2AA" transform="translate(0,0)"/>
<path d="M0 0 C16.83 0 33.66 0 51 0 C51 38.94 51 77.88 51 118 C3.81 118 -43.38 118 -92 118 C-92 117.67 -92 117.34 -92 117 C-80.78758655 115.4635468 -69.58773592 113.99135852 -58.3125 113 C-51.11745889 112.35670836 -44.01991821 111.45801934 -36.88769531 110.32080078 C-25.18129308 108.49745088 -13.40609725 107.14918598 -1.6472168 105.71362305 C-0.78718048 105.60798538 0.07285583 105.50234772 0.95895386 105.39350891 C2.58766826 105.19360149 4.21658566 104.99533861 5.84573364 104.79899597 C8.75135803 104.44220359 11.61578543 104.08829988 14.47094727 103.43212891 C18.2617253 102.78441415 22.15428388 103 26 103 C26 70.66 26 38.32 26 5 C22.04 4.67 18.08 4.34 14 4 C11.40548815 3.538062 8.81825867 3.02819949 6.25 2.4375 C5.05890625 2.16808594 3.8678125 1.89867188 2.640625 1.62109375 C1.76921875 1.41613281 0.8978125 1.21117188 0 1 C0 0.67 0 0.34 0 0 Z " fill="#97B2AA" transform="translate(159,0)"/>
<path d="M0 0 C4.21742593 -0.12365029 8.43389111 -0.21435665 12.65258789 -0.2746582 C14.08734514 -0.29979524 15.52197441 -0.33391108 16.95629883 -0.37719727 C19.0193637 -0.43789665 21.08073615 -0.46621353 23.14453125 -0.48828125 C25.00621948 -0.52755737 25.00621948 -0.52755737 26.90551758 -0.56762695 C30 -0 30 -0 31.66914368 1.8910675 C33.58960625 6.37734328 33.41829176 10.47803611 33.38818359 15.31054688 C33.39344055 16.34687759 33.39869751 17.38320831 33.40411377 18.45094299 C33.41730846 21.87369902 33.40857726 25.29598931 33.3984375 28.71875 C33.40045838 31.09859303 33.40336993 33.47843546 33.40713501 35.85827637 C33.41155766 40.84486795 33.40512903 45.83129826 33.39111328 50.81787109 C33.37402165 57.21044501 33.38386312 63.60264106 33.40183067 69.99520111 C33.41266997 74.90910694 33.40922144 79.82292314 33.4014473 84.73683167 C33.39944571 87.09395899 33.40190311 89.45109445 33.40888596 91.80821228 C33.41650259 95.10217856 33.40489255 98.39553246 33.38818359 101.68945312 C33.39425629 102.66415054 33.40032898 103.63884796 33.40658569 104.64308167 C33.35555059 110.07245734 33.03969017 113.96030983 29 118 C27.43112365 118.09591199 25.85792208 118.12187996 24.28611755 118.12025452 C22.7568866 118.12231651 22.7568866 118.12231651 21.19676208 118.12442017 C20.068918 118.12082489 18.94107391 118.11722961 17.77905273 118.11352539 C16.59872467 118.11367142 15.41839661 118.11381744 14.20230103 118.1139679 C10.95657892 118.11338895 7.71089945 118.10835986 4.46518588 118.10139394 C1.07656968 118.09515962 -2.31204728 118.09455654 -5.70066833 118.09336853 C-12.12155804 118.09025544 -18.54243081 118.08204236 -24.96331304 118.07201904 C-32.27153825 118.0608572 -39.57976424 118.05534727 -46.88799584 118.05032361 C-61.92534002 118.03985973 -76.96266832 118.02226073 -92 118 C-92 117.67 -92 117.34 -92 117 C-80.78758655 115.4635468 -69.58773592 113.99135852 -58.3125 113 C-51.11745889 112.35670836 -44.01991821 111.45801934 -36.88769531 110.32080078 C-25.18129308 108.49745088 -13.40609725 107.14918598 -1.6472168 105.71362305 C-0.78718048 105.60798538 0.07285583 105.50234772 0.95895386 105.39350891 C2.58766826 105.19360149 4.21658566 104.99533861 5.84573364 104.79899597 C8.75135803 104.44220359 11.61578543 104.08829988 14.47094727 103.43212891 C18.2617253 102.78441415 22.15428388 103 26 103 C26 70.66 26 38.32 26 5 C22.04 4.67 18.08 4.34 14 4 C11.40548815 3.538062 8.81825867 3.02819949 6.25 2.4375 C5.05890625 2.16808594 3.8678125 1.89867188 2.640625 1.62109375 C1.76921875 1.41613281 0.8978125 1.21117188 0 1 C0 0.67 0 0.34 0 0 Z " fill="#282C38" transform="translate(159,0)"/>
<path d="M0 0 C2.97 0 5.94 0 9 0 C9 38.94 9 77.88 9 118 C6.03 118 3.06 118 0 118 C0 79.06 0 40.12 0 0 Z " fill="#282D38" transform="translate(32,0)"/>
<path d="M0 0 C0 0.66 0 1.32 0 2 C1.11632812 1.9278125 2.23265625 1.855625 3.3828125 1.78125 C15.93195431 1.02024378 28.43025781 0.88389466 41 1 C40.67 3.64 40.34 6.28 40 9 C39.34 8.67 38.68 8.34 38 8 C38.33 6.35 38.66 4.7 39 3 C37.77482666 3.00523682 36.54965332 3.01047363 35.28735352 3.01586914 C30.70825949 3.03407498 26.12916861 3.0454886 21.55004883 3.05493164 C19.5744574 3.05993641 17.59886964 3.06674225 15.62329102 3.07543945 C12.77098686 3.08767492 9.91873201 3.09326702 7.06640625 3.09765625 C6.19415909 3.10281754 5.32191193 3.10797882 4.42323303 3.11329651 C-1.12861083 3.1137956 -6.49169047 2.70282625 -12 2 C-12 1.67 -12 1.34 -12 1 C-10.56274129 0.83126522 -9.12518162 0.66509263 -7.6875 0.5 C-6.88699219 0.4071875 -6.08648437 0.314375 -5.26171875 0.21875 C-3 0 -3 0 0 0 Z " fill="#DCD6C6" transform="translate(109,52)"/>
<path d="M0 0 C0.82612793 0.06058594 1.65225586 0.12117188 2.50341797 0.18359375 C5.61568605 0.41009891 8.7281675 0.63334189 11.84082031 0.85449219 C13.83155745 0.99689249 15.82203284 1.14293693 17.8125 1.2890625 C30.97713911 2.5667413 30.97713911 2.5667413 44 1 C44 1.66 44 2.32 44 3 C47.63 3 51.26 3 55 3 C55 3.66 55 4.32 55 5 C54.16009521 4.9285376 53.32019043 4.8570752 52.45483398 4.78344727 C41.3145975 3.9293749 30.23065529 3.88429441 19.0625 3.9375 C17.20377726 3.94253015 15.34505319 3.94709035 13.48632812 3.95117188 C8.99085168 3.96204565 4.49544113 3.97922477 0 4 C0 2.68 0 1.36 0 0 Z " fill="#C4BEB1" transform="translate(97,40)"/>
<path d="M0 0 C1.32 0 2.64 0 4 0 C4 0.66 4 1.32 4 2 C5.24910156 1.89171875 5.24910156 1.89171875 6.5234375 1.78125 C22.65720814 0.60312476 38.83398471 0.91002731 55 1 C55 1.33 55 1.66 55 2 C37.9900809 2.67508229 21.02512492 3.15780239 4 3 C4 3.66 4 4.32 4 5 C2.35 4.67 0.7 4.34 -1 4 C-0.67 2.68 -0.34 1.36 0 0 Z " fill="#837E74" transform="translate(107,63)"/>
<path d="M0 0 C32.13508903 -0.24602836 32.13508903 -0.24602836 39 1 C39.495 1.99 39.495 1.99 40 3 C38.84999512 2.94670532 38.84999512 2.94670532 37.67675781 2.89233398 C34.20141557 2.73467494 30.72574561 2.58598913 27.25 2.4375 C26.0434375 2.38142578 24.836875 2.32535156 23.59375 2.26757812 C22.43359375 2.21923828 21.2734375 2.17089844 20.078125 2.12109375 C19.00981445 2.0739624 17.94150391 2.02683105 16.84082031 1.97827148 C14.31018785 1.99762747 12.40830828 2.31078882 10 3 C8.08438746 3.06688591 6.16664408 3.08531719 4.25 3.0625 C3.26515625 3.05347656 2.2803125 3.04445312 1.265625 3.03515625 C0.51796875 3.02355469 -0.2296875 3.01195312 -1 3 C-0.67 2.01 -0.34 1.02 0 0 Z " fill="#CBC7B7" transform="translate(94,31)"/>
<path d="M0 0 C0 0.66 0 1.32 0 2 C8.25 2 16.5 2 25 2 C25 2.33 25 2.66 25 3 C20.52084729 3.0292814 16.04171958 3.04689296 11.5625 3.0625 C10.30244141 3.07087891 9.04238281 3.07925781 7.74414062 3.08789062 C1.0710797 3.10531376 -5.38768168 2.91378066 -12 2 C-12 1.67 -12 1.34 -12 1 C-10.56274129 0.83126522 -9.12518162 0.66509263 -7.6875 0.5 C-6.88699219 0.4071875 -6.08648437 0.314375 -5.26171875 0.21875 C-3 0 -3 0 0 0 Z " fill="#D9D2C2" transform="translate(109,52)"/>
<path d="M0 0 C4.29 0 8.58 0 13 0 C13 1.32 13 2.64 13 4 C8.38 4 3.76 4 -1 4 C-0.67 2.68 -0.34 1.36 0 0 Z " fill="#B9B4A8" transform="translate(79,51)"/>
<path d="M0 0 C1.65 0.33 3.3 0.66 5 1 C5 1.33 5 1.66 5 2 C6.65 2.33 8.3 2.66 10 3 C10 3.33 10 3.66 10 4 C8.35 4 6.7 4 5 4 C5 4.99 5 5.98 5 7 C2.66666667 7 0.33333333 7 -2 7 C-1.34 4.69 -0.68 2.38 0 0 Z " fill="#8D8982" transform="translate(80,63)"/>
<path d="M0 0 C0.99 0 1.98 0 3 0 C3 0.66 3 1.32 3 2 C5.64 2 8.28 2 11 2 C11 2.66 11 3.32 11 4 C9.7625 4.144375 8.525 4.28875 7.25 4.4375 C4.43495501 4.78688502 1.7298503 5.20379366 -1 6 C-0.67 4.02 -0.34 2.04 0 0 Z " fill="#BDB9AE" transform="translate(94,63)"/>
<path d="M0 0 C1.98 0 3.96 0 6 0 C6.33 1.65 6.66 3.3 7 5 C4.69 4.67 2.38 4.34 0 4 C0 2.68 0 1.36 0 0 Z " fill="#AAA69A" transform="translate(94,21)"/>
<path d="M0 0 C1.32 0 2.64 0 4 0 C4 0.66 4 1.32 4 2 C7.63 2 11.26 2 15 2 C15 2.66 15 3.32 15 4 C12.70774565 3.88628503 10.41617612 3.75869036 8.125 3.625 C6.84882813 3.55539063 5.57265625 3.48578125 4.2578125 3.4140625 C1 3 1 3 -1 1 C-0.67 0.67 -0.34 0.34 0 0 Z " fill="#BDB8AA" transform="translate(137,41)"/>
<path d="M0 0 C3.63 0.33 7.26 0.66 11 1 C8.60236815 3.39763185 7.66726502 3.34280586 4.375 3.625 C3.55773437 3.69976562 2.74046875 3.77453125 1.8984375 3.8515625 C1.27195312 3.90054688 0.64546875 3.94953125 0 4 C0 2.68 0 1.36 0 0 Z " fill="#CCC7BA" transform="translate(97,40)"/>
<path d="M0 0 C0 0.33 0 0.66 0 1 C-1.4577353 1.335939 -2.91621106 1.66866624 -4.375 2 C-5.59316406 2.2784375 -5.59316406 2.2784375 -6.8359375 2.5625 C-9 3 -9 3 -11 3 C-8.25253926 -3.08366308 -6.01553667 -1.89378006 0 0 Z " fill="#98958F" transform="translate(89,90)"/>
<path d="M0 0 C3.96 0 7.92 0 12 0 C12 0.99 12 1.98 12 3 C7.71 3 3.42 3 -1 3 C-0.67 2.01 -0.34 1.02 0 0 Z " fill="#B3AEA3" transform="translate(94,31)"/>
<path d="M0 0 C-0.33 1.65 -0.66 3.3 -1 5 C-2.32 5 -3.64 5 -5 5 C-5 3.68 -5 2.36 -5 1 C-3 0 -3 0 0 0 Z " fill="#A8A499" transform="translate(69,70)"/>
<path d="M0 0 C2.475 0.99 2.475 0.99 5 2 C4.67 2.99 4.34 3.98 4 5 C2.68 5 1.36 5 0 5 C-0.5625 3.0625 -0.5625 3.0625 -1 1 C-0.67 0.67 -0.34 0.34 0 0 Z " fill="#AAA69B" transform="translate(90,39)"/>
<path d="M0 0 C1.32 0 2.64 0 4 0 C4.33 0.99 4.66 1.98 5 3 C4.67 3.66 4.34 4.32 4 5 C2.35 4.67 0.7 4.34 -1 4 C-0.67 2.68 -0.34 1.36 0 0 Z " fill="#A29E93" transform="translate(107,63)"/>
<path d="M0 0 C1.65 0 3.3 0 5 0 C5 1.32 5 2.64 5 4 C3.35 3.67 1.7 3.34 0 3 C0 2.01 0 1.02 0 0 Z " fill="#A6A29A" transform="translate(78,40)"/>
<path d="M0 0 C0 0.99 0 1.98 0 3 C-3.96 2.67 -7.92 2.34 -12 2 C-12 1.67 -12 1.34 -12 1 C-10.56274129 0.83126522 -9.12518162 0.66509263 -7.6875 0.5 C-6.88699219 0.4071875 -6.08648437 0.314375 -5.26171875 0.21875 C-3 0 -3 0 0 0 Z " fill="#A5A196" transform="translate(109,52)"/>
<path d="M0 0 C1.65 0 3.3 0 5 0 C5 1.32 5 2.64 5 4 C3.02 4 1.04 4 -1 4 C-0.67 2.68 -0.34 1.36 0 0 Z " fill="#97948D" transform="translate(79,51)"/>
<path d="M0 0 C2 0 4 0 6 0 C6 1.32 6 2.64 6 4 C3.03 3.505 3.03 3.505 0 3 C0 2.01 0 1.02 0 0 Z " fill="#9C9892" transform="translate(78,20)"/>
<path d="M0 0 C2.475 0.495 2.475 0.495 5 1 C4.67 2.32 4.34 3.64 4 5 C2.68 4.34 1.36 3.68 0 3 C0 2.01 0 1.02 0 0 Z " fill="#A19D92" transform="translate(133,15)"/>
<path d="M0 0 C1.65 0 3.3 0 5 0 C5 1.32 5 2.64 5 4 C3.35 4 1.7 4 0 4 C0 2.68 0 1.36 0 0 Z " fill="#9D9991" transform="translate(64,92)"/>
</svg>
