<?xml version="1.0" encoding="UTF-8"?>
<svg version="1.1" xmlns="http://www.w3.org/2000/svg" width="214" height="116">
<path d="M0 0 C70.62 0 141.24 0 214 0 C214 38.28 214 76.56 214 116 C143.38 116 72.76 116 0 116 C0 77.72 0 39.44 0 0 Z " fill="#D5D1C9" transform="translate(0,0)"/>
<path d="M0 0 C0 0.66 0 1.32 0 2 C6.40980631 3.028906 11.64394934 2.8333774 17.97265625 1.48046875 C23.61220248 0.58541819 29.30679449 0.85039752 35 1 C33.70982562 5.04050658 32.5346317 6.75311534 28.859375 8.859375 C28.03566406 9.33503906 27.21195313 9.81070313 26.36328125 10.30078125 C25.50089844 10.77902344 24.63851562 11.25726563 23.75 11.75 C22.90308594 12.24371094 22.05617187 12.73742188 21.18359375 13.24609375 C16.80613612 15.73096472 13.12158884 17.63178119 8 18 C8 19.32 8 20.64 8 22 C13.99889492 20.46241917 18.19592259 18.98386907 23 15 C25.82535857 13.62862713 28.68392304 12.37651985 31.57421875 11.1484375 C34.10976727 10.11458738 34.10976727 10.11458738 36 8 C39.625 7.875 39.625 7.875 43 8 C43.4609429 15.1446149 42.55104024 20.69718903 39 27 C36.375 29.3125 36.375 29.3125 34 31 C32.66701026 33.61818456 32.66701026 33.61818456 32 36 C31.01 36 30.02 36 29 36 C22.60957846 40.3182799 16.95795571 46.58576026 12.0625 52.5 C7.0262896 58.47131578 0.95212473 63.19186614 -5.43359375 67.640625 C-7.28874369 69.01751295 -7.28874369 69.01751295 -8 72 C-2.67722611 77.56693783 3.58738065 81.98237652 10.5625 85.25 C14 87 14 87 15 90 C1.47 90 -12.06 90 -26 90 C-26 61.95 -26 33.9 -26 5 C-22.04 4.01 -18.08 3.02 -14 2 C-12.55625 1.608125 -11.1125 1.21625 -9.625 0.8125 C-6.26986858 0.06048779 -3.42099269 -0.17104963 0 0 Z " fill="#5B5955" transform="translate(26,26)"/>
<path d="M0 0 C-0.47408043 4.26672384 -2.88307122 6.2455048 -6 9 C-6.721875 9.350625 -7.44375 9.70125 -8.1875 10.0625 C-10.1704983 10.8586654 -10.1704983 10.8586654 -10.9375 12.9375 C-12.62960775 16.22217974 -15.58436303 17.45530602 -18.94921875 18.75 C-21.75949216 20.46292855 -22.79429677 22.54398473 -24.4375 25.375 C-26.83114774 29.49585063 -29.04536167 32.28641077 -33 35 C-33.66 35 -34.32 35 -35 35 C-35.185625 35.5775 -35.37125 36.155 -35.5625 36.75 C-37.1208123 39.18909751 -38.06577388 39.73739331 -40.5625 41.0625 C-44.2511691 42.63488132 -44.2511691 42.63488132 -45 46 C-44.67778859 50.94057495 -43.18682091 53.29917572 -40 57 C-40 57.66 -40 58.32 -40 59 C-38.92105469 59.14308594 -38.92105469 59.14308594 -37.8203125 59.2890625 C-34.56523596 60.10959426 -32.58539023 61.41058874 -29.875 63.375 C-28.60269531 64.28378906 -28.60269531 64.28378906 -27.3046875 65.2109375 C-25 67 -25 67 -22 70 C-32.89 70 -43.78 70 -55 70 C-55 55.15 -55 40.3 -55 25 C-47 21 -47 21 -43.625 19.5625 C-35.04831025 16.14658614 -35.04831025 16.14658614 -27.8125 10.6875 C-26 9 -26 9 -22.4375 8.875 C-21.303125 8.91625 -20.16875 8.9575 -19 9 C-18.01 8.34 -17.02 7.68 -16 7 C-15.01 7 -14.02 7 -13 7 C-13 6.34 -13 5.68 -13 5 C-8.57513948 1.68135461 -5.48445537 0 0 0 Z " fill="#3D3C3A" transform="translate(55,46)"/>
<path d="M0 0 C6.27 0 12.54 0 19 0 C14.95663898 8.4993099 11.13860431 15.83020722 5 23 C4.11033038 24.07024613 3.22243198 25.14196615 2.3359375 26.21484375 C-0.09628724 29.15436963 -2.54440936 32.07997169 -5 35 C-2.80589406 33.93060383 -0.78534388 32.85689592 1.25 31.5 C7.96878942 27.83520577 14.77732335 27.72931073 22.23828125 27.83984375 C23.19969528 27.84504532 24.16110931 27.85024689 25.1516571 27.85560608 C28.20543089 27.87329785 31.25885733 27.90441585 34.3125 27.9375 C37.35539749 27.96531884 40.39823979 27.99005382 43.44120789 28.00868225 C45.32684278 28.02072465 47.21245471 28.03810406 49.09797668 28.06199646 C54.71835442 28.10398089 60.18747243 27.76528067 65.77238464 27.12013245 C68 27 68 27 70 28 C69.505 29.485 69.505 29.485 69 31 C68.2575 30.79375 67.515 30.5875 66.75 30.375 C64.07084049 29.73260556 64.07084049 29.73260556 62.21875 30.97265625 C59.27448587 32.33593348 56.98067213 32.15819526 53.75 32.0625 C50.04643549 31.99651221 46.53080632 31.95572717 42.875 32.5625 C37.81085394 33.13425843 33.04251542 32.60250644 28 32 C28 32.66 28 33.32 28 34 C33.94 34.66 39.88 35.32 46 36 C43 39 43 39 40.55122375 39.36076355 C39.5808165 39.35410172 38.61040924 39.34743988 37.6105957 39.34057617 C36.50968094 39.34034958 35.40876617 39.34012299 34.27449036 39.33988953 C33.08691635 39.32440567 31.89934235 39.30892181 30.67578125 39.29296875 C29.45924362 39.28872391 28.24270599 39.28447906 26.98930359 39.28010559 C23.09681229 39.26328851 19.20483529 39.22562959 15.3125 39.1875 C12.67643976 39.17245713 10.04037142 39.15876804 7.40429688 39.14648438 C0.9360219 39.11337499 -5.53195231 39.06314505 -12 39 C-11.20527082 36.92285407 -10.40949586 34.84610824 -9.61328125 32.76953125 C-8.94872925 31.03473511 -8.94872925 31.03473511 -8.27075195 29.26489258 C-6.92375382 25.80410372 -5.50068661 22.39629075 -4 19 C-3.34 19 -2.68 19 -2 19 C-2.515625 18.46375 -3.03125 17.9275 -3.5625 17.375 C-5 15 -5 15 -4.9375 12.3125 C-3.70733604 7.96592066 -1.9208343 4.0895182 0 0 Z " fill="#9B978F" transform="translate(114,0)"/>
<path d="M0 0 C4.19135013 5.05852602 4.11453911 10.74097897 4.23046875 17.01171875 C4 19 4 19 2 21 C-0.20817862 21.7331955 -2.44237923 22.38921263 -4.6875 23 C-5.88761719 23.33 -7.08773438 23.66 -8.32421875 24 C-10.14373047 24.495 -10.14373047 24.495 -12 25 C-16.91453775 26.35957105 -16.91453775 26.35957105 -21.6875 28.125 C-24 29 -24 29 -28 29 C-28 20.42 -28 11.84 -28 3 C-18.125 2.0625 -18.125 2.0625 -15.01611328 1.77368164 C-14.20899902 1.69496826 -13.40188477 1.61625488 -12.5703125 1.53515625 C-11.32918701 1.41732788 -11.32918701 1.41732788 -10.06298828 1.29711914 C-0.57112559 -0.06993375 -0.57112559 -0.06993375 0 0 Z " fill="#03040A" transform="translate(28,29)"/>
<path d="M0 0 C1.670625 0.061875 1.670625 0.061875 3.375 0.125 C3.8359429 7.2696149 2.92604024 12.82218903 -0.625 19.125 C-3.25 21.4375 -3.25 21.4375 -5.625 23.125 C-6.95798974 25.74318456 -6.95798974 25.74318456 -7.625 28.125 C-8.615 28.125 -9.605 28.125 -10.625 28.125 C-17.01542154 32.4432799 -22.66704429 38.71076026 -27.5625 44.625 C-32.5987104 50.59631578 -38.67287527 55.31686614 -45.05859375 59.765625 C-46.91374369 61.14251295 -46.91374369 61.14251295 -47.625 64.125 C-42.30222611 69.69193783 -36.03761935 74.10737652 -29.0625 77.375 C-25.625 79.125 -25.625 79.125 -24.625 82.125 C-29.7789572 82.6772097 -32.63528508 82.55353108 -36.875 79.4375 C-39.0772851 77.61433168 -40.77652711 75.93436912 -42.5625 73.6875 C-44.66024672 71.08120862 -46.66062788 69.61246686 -49.375 67.6875 C-53.46179128 64.54590671 -53.46179128 64.54590671 -54.8125 61.0625 C-53.10133834 56.82962641 -50.20909367 55.74923858 -46.29296875 53.6171875 C-40.26754753 50.24718617 -36.32614026 45.89544778 -32.359375 40.33984375 C-28.87019349 35.88406466 -24.67728993 32.0616937 -20.625 28.125 C-18.95581761 26.46085286 -17.28896762 24.79436135 -15.625 23.125 C-10.95833333 18.45833333 -6.29166667 13.79166667 -1.625 9.125 C-0.90572705 6.80734271 -0.2340107 4.47404126 0.375 2.125 C-0.6975 2.74375 -1.77 3.3625 -2.875 4 C-4.12460437 4.70903105 -5.37457547 5.41741636 -6.625 6.125 C-7.346875 6.5375 -8.06875 6.95 -8.8125 7.375 C-10.625 8.125 -10.625 8.125 -14.625 8.125 C-14.625 8.785 -14.625 9.445 -14.625 10.125 C-15.615 10.125 -16.605 10.125 -17.625 10.125 C-17.625 10.785 -17.625 11.445 -17.625 12.125 C-19.37192795 12.79967562 -21.12268525 13.46444156 -22.875 14.125 C-23.84953125 14.49625 -24.8240625 14.8675 -25.828125 15.25 C-28.625 16.125 -28.625 16.125 -32.625 16.125 C-32.625 14.475 -32.625 12.825 -32.625 11.125 C-32.295 12.115 -31.965 13.105 -31.625 14.125 C-25.62610508 12.58741917 -21.42907741 11.10886907 -16.625 7.125 C-13.79964143 5.75362713 -10.94107696 4.50151985 -8.05078125 3.2734375 C-1.22575901 0.04226755 -1.22575901 0.04226755 0 0 Z " fill="#96928B" transform="translate(65.625,33.875)"/>
<path d="M0 0 C0 8.91 0 17.82 0 27 C-14.19 27 -28.38 27 -43 27 C-41.35 25.68 -39.7 24.36 -38 23 C-37.071875 22.2265625 -37.071875 22.2265625 -36.125 21.4375 C-34 20 -34 20 -30.5625 18.5625 C-27.06391671 17.21331275 -27.06391671 17.21331275 -24.75 15.1875 C-22.08104835 13.06447028 -19.50563503 11.59523678 -16.5 10 C-12.65785857 7.95257698 -9.2839618 5.88590583 -6 3 C-2.25 0 -2.25 0 0 0 Z " fill="#797770" transform="translate(214,89)"/>
<path d="M0 0 C6.27 0 12.54 0 19 0 C14.95447956 8.50384909 11.13158623 15.82007099 5 23 C4.14503322 24.04646309 3.29231898 25.09476903 2.44140625 26.14453125 C-4.53313853 34.68875902 -4.53313853 34.68875902 -8 37 C-7.67 37.66 -7.34 38.32 -7 39 C-8.65 39 -10.3 39 -12 39 C-6.81321185 25.3667426 -6.81321185 25.3667426 -4 19 C-3.34 19 -2.68 19 -2 19 C-2.515625 18.46375 -3.03125 17.9275 -3.5625 17.375 C-5 15 -5 15 -4.9375 12.3125 C-3.70733604 7.96592066 -1.9208343 4.0895182 0 0 Z " fill="#09090E" transform="translate(114,0)"/>
<path d="M0 0 C0 0.66 0 1.32 0 2 C6.40980631 3.028906 11.64394934 2.8333774 17.97265625 1.48046875 C23.61220248 0.58541819 29.30679449 0.85039752 35 1 C34.42170111 3.89149443 33.5312831 5.59204538 31.18261719 7.39550781 C28.78272842 8.87996437 26.34772077 10.2653771 23.875 11.625 C22.62976562 12.34042969 22.62976562 12.34042969 21.359375 13.0703125 C16.36075436 15.89085079 11.42636747 18.13272805 6 20 C5.87882812 19.18015625 5.75765625 18.3603125 5.6328125 17.515625 C5.46523438 16.43796875 5.29765625 15.3603125 5.125 14.25 C4.96257813 13.18265625 4.80015625 12.1153125 4.6328125 11.015625 C4.06776118 8.32291129 3.36577086 6.36427561 2 4 C-1.73857281 3.80323301 -5.00234496 4.17029514 -8.625 5 C-14.42834787 6.2562125 -20.08853402 6.18282884 -26 6 C-22.27037151 3.8549805 -18.26524134 2.90056437 -14.125 1.875 C-13.43019531 1.69324219 -12.73539063 1.51148437 -12.01953125 1.32421875 C-7.92148229 0.29777711 -4.25965752 -0.20029738 0 0 Z " fill="#4D4A46" transform="translate(26,26)"/>
<path d="M0 0 C0.33 0 0.66 0 1 0 C1 1.65 1 3.3 1 5 C4.96 4.34 8.92 3.68 13 3 C12.67 3.66 12.34 4.32 12 5 C11.34 5 10.68 5 10 5 C10 5.66 10 6.32 10 7 C3.69122257 10.02821317 3.69122257 10.02821317 -0.0625 9.875 C-3.61251628 10.02606452 -4.83012216 11.28654121 -7.37890625 13.63671875 C-10.24997102 16.05118044 -13.60422799 17.45984111 -17 19 C-17.75925781 19.35191406 -18.51851562 19.70382813 -19.30078125 20.06640625 C-23.51570449 21.9861444 -27.57334336 23.52444779 -32 25 C-32 20.71 -32 16.42 -32 12 C-25.30501552 9.07094429 -18.71827196 7.04345271 -11.62304688 5.39550781 C-7.94152568 4.53214222 -4.41269302 3.6519227 -1 2 C-0.67 1.34 -0.34 0.68 0 0 Z " fill="#535250" transform="translate(32,46)"/>
<path d="M0 0 C-0.33 0.99 -0.66 1.98 -1 3 C-1.7425 2.79375 -2.485 2.5875 -3.25 2.375 C-5.92915951 1.73260556 -5.92915951 1.73260556 -7.78125 2.97265625 C-10.72551413 4.33593348 -13.01932787 4.15819526 -16.25 4.0625 C-19.99401277 3.99564263 -23.55157323 3.96597955 -27.25 4.5625 C-30.26595345 4.91436124 -32.20599882 4.93937357 -35.12109375 4.54296875 C-47.48916866 3.05905191 -60.12155329 2.94394503 -72 7 C-68.3981792 2.25214531 -63.5848921 1.21787136 -58 0 C-54.45076043 -0.34645705 -50.95352457 -0.33040855 -47.390625 -0.2578125 C-45.93496124 -0.24788773 -45.93496124 -0.24788773 -44.44989014 -0.23776245 C-41.38292035 -0.21457881 -38.31670635 -0.17090154 -35.25 -0.125 C-32.16910545 -0.08980906 -29.08825424 -0.05903098 -26.00726318 -0.03366089 C-24.09952059 -0.01682588 -22.19181934 0.00619607 -20.28424072 0.03634644 C-13.32449692 0.11457392 -6.89482651 -1.24106877 0 0 Z " fill="#B1ACA4" transform="translate(184,28)"/>
<path d="M0 0 C1.670625 0.061875 1.670625 0.061875 3.375 0.125 C3.8359429 7.2696149 2.92604024 12.82218903 -0.625 19.125 C-3.25 21.4375 -3.25 21.4375 -5.625 23.125 C-6.95798974 25.74318456 -6.95798974 25.74318456 -7.625 28.125 C-8.615 28.125 -9.605 28.125 -10.625 28.125 C-12.73256824 29.43306361 -12.73256824 29.43306361 -14.8125 31.125 C-15.52792969 31.681875 -16.24335937 32.23875 -16.98046875 32.8125 C-17.52316406 33.245625 -18.06585938 33.67875 -18.625 34.125 C-16.90035963 30.56888313 -14.84925346 27.39596098 -12.625 24.125 C-11.985625 23.114375 -11.34625 22.10375 -10.6875 21.0625 C-8.10786144 17.38846932 -5.55031258 13.98069448 -1.375 12.125 C0.62838146 11.24750676 0.62838146 11.24750676 1.0625 8.8125 C1.165625 7.925625 1.26875 7.03875 1.375 6.125 C1.70833333 4.45833333 2.04166667 2.79166667 2.375 1.125 C-1.02730328 2.07447998 -3.37857025 2.92169546 -6.125 5.1875 C-9.00845415 7.42217697 -11.03774931 7.79130226 -14.625 8.125 C-14.625 8.785 -14.625 9.445 -14.625 10.125 C-15.615 10.125 -16.605 10.125 -17.625 10.125 C-17.625 10.785 -17.625 11.445 -17.625 12.125 C-19.37192795 12.79967562 -21.12268525 13.46444156 -22.875 14.125 C-24.33679688 14.681875 -24.33679688 14.681875 -25.828125 15.25 C-28.625 16.125 -28.625 16.125 -32.625 16.125 C-32.625 14.475 -32.625 12.825 -32.625 11.125 C-32.295 12.115 -31.965 13.105 -31.625 14.125 C-25.62610508 12.58741917 -21.42907741 11.10886907 -16.625 7.125 C-13.79964143 5.75362713 -10.94107696 4.50151985 -8.05078125 3.2734375 C-1.22575901 0.04226755 -1.22575901 0.04226755 0 0 Z " fill="#A5A099" transform="translate(65.625,33.875)"/>
<path d="M0 0 C9.24 0 18.48 0 28 0 C25.74744468 2.25255532 23.75314633 3.20006992 20.87890625 4.56640625 C19.35233398 5.2944043 19.35233398 5.2944043 17.79492188 6.03710938 C16.19487305 6.79217773 16.19487305 6.79217773 14.5625 7.5625 C12.96825195 8.32336914 12.96825195 8.32336914 11.34179688 9.09960938 C3.4382673 12.8539109 3.4382673 12.8539109 0 14 C0 9.38 0 4.76 0 0 Z " fill="#A5A198" transform="translate(0,0)"/>
<path d="M0 0 C0.2208542 3.86494842 -0.15446933 6.5725859 -2 10 C-4.3125 12 -4.3125 12 -7 14 C-8.68873879 15.64429829 -10.35305515 17.31384218 -12 19 C-13.16532336 20.16800843 -14.33207002 21.33459801 -15.5 22.5 C-16.0465625 23.0465625 -16.593125 23.593125 -17.15625 24.15625 C-17.7646875 24.7646875 -18.373125 25.373125 -19 26 C-19.79535156 26.79921875 -20.59070312 27.5984375 -21.41015625 28.421875 C-23.07940766 30.08357324 -24.76335993 31.73069635 -26.46484375 33.359375 C-31.20791375 37.94509196 -35.08171364 42.37717269 -38.5703125 47.96484375 C-41.55418449 52.21237737 -45.73109031 55.10906341 -49.9375 58.0625 C-52.28295319 59.84721057 -52.28295319 59.84721057 -52.3125 62.75 C-52.209375 63.4925 -52.10625 64.235 -52 65 C-53.32 64.34 -54.64 63.68 -56 63 C-56.625 60.375 -56.625 60.375 -56 57 C-53.67807955 55.21390735 -51.23977763 53.89235425 -48.66796875 52.4921875 C-42.64254753 49.12218617 -38.70114026 44.77044778 -34.734375 39.21484375 C-31.24519349 34.75906466 -27.05228993 30.9366937 -23 27 C-21.33081761 25.33585286 -19.66396762 23.66936135 -18 22 C-11 15 -11 15 -4 8 C-3.28072705 5.68234271 -2.6090107 3.34904126 -2 1 C-3.32 1.99 -4.64 2.98 -6 4 C-6.66 3.67 -7.32 3.34 -8 3 C-5.53387212 -0.1151089 -3.89156016 -0.31553191 0 0 Z " fill="#7C7974" transform="translate(68,35)"/>
<path d="M0 0 C1.3242287 0.36784131 2.65613912 0.71202981 4 1 C-1.27537412 3.49114889 -5.69166867 2.82649869 -11.29296875 2.09375 C-14.22494242 1.72878604 -14.22494242 1.72878604 -17 4 C-17.99 3.34 -18.98 2.68 -20 2 C-19.505 4.475 -19.505 4.475 -19 7 C-19.66 5.68 -20.32 4.36 -21 3 C-21.66 3 -22.32 3 -23 3 C-23 3.66 -23 4.32 -23 5 C-23.9075 4.835 -24.815 4.67 -25.75 4.5 C-29.11087503 3.89862854 -29.11087503 3.89862854 -33 4 C-34.33898436 3.71267627 -35.67200031 3.3969411 -37 3.0625 C-45.50530791 1.2509465 -54.33601864 1.31023863 -63 1 C-63 0.67 -63 0.34 -63 0 C-51.45932798 -1.07904019 -40.01586547 -1.08823212 -28.4375 -1 C-24.87370107 -0.97332153 -21.30995506 -0.9534221 -17.74609375 -0.9375 C-16.94086777 -0.92920166 -16.13564178 -0.92090332 -15.30601501 -0.91235352 C-1.46703611 -0.85182742 -1.46703611 -0.85182742 0 0 Z " fill="#B3AFA7" transform="translate(166,39)"/>
<path d="M0 0 C-3.87643224 6.27612839 -10.81651288 9.7317302 -17.71875 11.82421875 C-19.79775433 12.28804725 -21.8979422 12.65540036 -24 13 C-24 10.03 -24 7.06 -24 4 C-18.70605504 2.51571637 -13.40508207 1.0500283 -8.0625 -0.25 C-7.02802734 -0.50523438 -7.02802734 -0.50523438 -5.97265625 -0.765625 C-3.73457352 -1.03153582 -2.13686236 -0.66926338 0 0 Z " fill="#918E89" transform="translate(24,54)"/>
<path d="M0 0 C0 3 0 3 -2 5.25 C-2.99238062 6.17490998 -3.99348162 7.09049544 -5 8 C-5.62777344 8.59683594 -6.25554688 9.19367188 -6.90234375 9.80859375 C-10.73454407 13.34657524 -13.77630135 15.8246678 -19 17 C-18.28661093 22.70711259 -16.39906732 24.85275174 -11.875 28.4375 C-10.26213852 29.64143484 -8.6408276 30.83446748 -7 32 C-7.33 32.66 -7.66 33.32 -8 34 C-15.03060031 31.21200333 -18.69806371 27.86707041 -22 21 C-22.75 17.75 -22.75 17.75 -22 15 C-18.54129901 11.46086411 -15.63254339 9.70672651 -11 8 C-9.66209359 7.00612666 -8.32781878 6.0073108 -7 5 C-6.34 5 -5.68 5 -5 5 C-5 4.34 -5 3.68 -5 3 C-2.5 1.375 -2.5 1.375 0 0 Z " fill="#66645E" transform="translate(31,75)"/>
<path d="M0 0 C0 0.33 0 0.66 0 1 C-1.3921875 1.4021875 -1.3921875 1.4021875 -2.8125 1.8125 C-5.91849761 2.70748875 -5.91849761 2.70748875 -7.3828125 4.4375 C-9.42912401 6.41461257 -11.41492213 7.1698007 -14.0625 8.1875 C-14.94035156 8.53167969 -15.81820312 8.87585937 -16.72265625 9.23046875 C-19 10 -19 10 -21 10 C-21.33 10.99 -21.66 11.98 -22 13 C-23.9609375 13.94921875 -23.9609375 13.94921875 -26.375 14.6875 C-27.16648437 14.93886719 -27.95796875 15.19023438 -28.7734375 15.44921875 C-31 16 -31 16 -34 16 C-34 14.68 -34 13.36 -34 12 C-32.80375 11.505 -31.6075 11.01 -30.375 10.5 C-26.67935291 8.89622862 -23.32997723 6.98909326 -19.91503906 4.85546875 C-13.2373249 0.73153398 -7.95891261 -1.16947287 0 0 Z " fill="#D9D5CF" transform="translate(68,32)"/>
<path d="M0 0 C0 1.32 0 2.64 0 4 C-0.65226562 4.12117188 -1.30453125 4.24234375 -1.9765625 4.3671875 C-5.85251831 5.11036487 -9.56981364 5.85389897 -13.3125 7.125 C-16.09531342 8.03103228 -18.09930876 8 -21 8 C-23.34730065 8.61568542 -25.68456957 9.27359045 -28 10 C-28 7.69 -28 5.38 -28 3 C-27.40461426 2.94465088 -26.80922852 2.88930176 -26.19580078 2.83227539 C-23.50512785 2.57981135 -20.81507714 2.32123184 -18.125 2.0625 C-17.18785156 1.97548828 -16.25070313 1.88847656 -15.28515625 1.79882812 C-14.38925781 1.71181641 -13.49335938 1.62480469 -12.5703125 1.53515625 C-11.32918701 1.41732788 -11.32918701 1.41732788 -10.06298828 1.29711914 C-0.91811522 -0.01995903 -0.91811522 -0.01995903 0 0 Z " fill="#1C1C1D" transform="translate(28,29)"/>
<path d="M0 0 C0.42325506 2.96278544 0.62973731 5.11582337 -1.16015625 7.62890625 C-4.10225346 10.63119982 -7.17959009 13.19033215 -11 15 C-12.32 15 -13.64 15 -15 15 C-15 15.66 -15 16.32 -15 17 C-17.97 18.32 -20.94 19.64 -24 21 C-20.56327592 14.12655184 -16.67322011 10.50317796 -10.2890625 6.45703125 C-8.13120884 5.08351689 -6.06497607 3.63336729 -4 2.125 C-1 0 -1 0 0 0 Z " fill="#63625C" transform="translate(214,90)"/>
<path d="M0 0 C-0.66 0.33 -1.32 0.66 -2 1 C-2 1.66 -2 2.32 -2 3 C-4.76084879 3.92028293 -6.87876061 4.24016714 -9.75390625 4.46484375 C-11.1605957 4.58182617 -11.1605957 4.58182617 -12.59570312 4.70117188 C-14.54608793 4.85653498 -16.49660645 5.01023002 -18.44726562 5.16210938 C-24.11405284 5.6365919 -29.49579975 6.42248144 -35.01928711 7.79516602 C-35.99973999 7.89655884 -35.99973999 7.89655884 -37 8 C-37.66 7.34 -38.32 6.68 -39 6 C-25.6528983 0.92689347 -14.2545697 -0.81111355 0 0 Z " fill="#737069" transform="translate(144,31)"/>
<path d="M0 0 C1.7717719 0.06016203 3.54258679 0.14899328 5.3125 0.25 C6.79169922 0.31960937 6.79169922 0.31960937 8.30078125 0.390625 C11.65091407 1.14695021 12.12859181 2.23541972 14 5 C17.59067962 6.28842537 17.59067962 6.28842537 21 7 C21.5625 8.9375 21.5625 8.9375 22 11 C21 12 21 12 19 12.3125 C14.63057891 11.85735197 10.78189973 10.22158746 7 8 C6.34 7.01 5.68 6.02 5 5 C4.13375 4.484375 3.2675 3.96875 2.375 3.4375 C1.59125 2.963125 0.8075 2.48875 0 2 C0 1.34 0 0.68 0 0 Z " fill="#9E9A92" transform="translate(124,85)"/>
<path d="M0 0 C3.88844395 0.38190075 7.72064172 0.32181837 11.625 0.2578125 C11.295 0.9178125 10.965 1.5778125 10.625 2.2578125 C4.9685732 3.45448192 -0.64218274 3.37335141 -6.40234375 3.3203125 C-7.35009171 3.31652588 -8.29783966 3.31273926 -9.27430725 3.30883789 C-13.30198583 3.29259249 -17.32956014 3.26443322 -21.35717773 3.23730469 C-24.30972823 3.21913956 -27.26226198 3.20709731 -30.21484375 3.1953125 C-31.11404037 3.18701416 -32.013237 3.17871582 -32.93968201 3.17016602 C-38.18295713 3.14997317 -43.18624983 3.49284549 -48.375 4.2578125 C-47.05161368 3.57161219 -45.71550052 2.90994789 -44.375 2.2578125 C-43.68921875 1.90589844 -43.0034375 1.55398437 -42.296875 1.19140625 C-38.25125449 -0.10124522 -34.52778872 0.08851743 -30.3125 0.1953125 C-24.78589568 0.27575109 -19.38090986 0.27412037 -13.875 -0.3046875 C-9.12799154 -0.78137454 -4.73247096 -0.53653014 0 0 Z " fill="#C0BBB3" transform="translate(166.375,25.7421875)"/>
<path d="M0 0 C0.90194092 0.00193359 1.80388184 0.00386719 2.7331543 0.00585938 C11.17782112 0.05928315 19.57982753 0.50700569 28 1.125 C27.67 1.785 27.34 2.445 27 3.125 C24.8125 3.57421875 24.8125 3.57421875 22 3.8125 C21.0925 3.89886719 20.185 3.98523437 19.25 4.07421875 C15.88733525 4.12676039 12.73579661 3.7815321 9.40478516 3.3762207 C-2.18505351 2.16546497 -13.91241838 2.33899652 -25 6.125 C-18.08750121 -1.01791542 -9.47918623 -0.04980152 0 0 Z " fill="#98948D" transform="translate(137,28.875)"/>
<path d="M0 0 C0.66 0.33 1.32 0.66 2 1 C-1.21328564 3.67773803 -4.55041414 6.07942489 -8 8.4375 C-11.7282045 11.01686518 -14.83547767 13.74506274 -18 17 C-20.83497642 18.93972071 -23.49230164 20.20025829 -26.6875 21.5 C-30.21123955 22.74362252 -30.21123955 22.74362252 -32 26 C-34.1640625 26.51171875 -34.1640625 26.51171875 -36.625 26.6875 C-37.44226563 26.75324219 -38.25953125 26.81898437 -39.1015625 26.88671875 C-40.04128906 26.94279297 -40.04128906 26.94279297 -41 27 C-39.33784732 25.66104368 -37.67036393 24.32869858 -36 23 C-35.071875 22.2265625 -35.071875 22.2265625 -34.125 21.4375 C-32 20 -32 20 -28.5625 18.5625 C-25.06391671 17.21331275 -25.06391671 17.21331275 -22.75 15.1875 C-20.08104835 13.06447028 -17.50563503 11.59523678 -14.5 10 C-10.65785857 7.95257698 -7.2839618 5.88590583 -4 3 C-2.67098936 1.99426222 -1.33926199 0.99204592 0 0 Z " fill="#908D86" transform="translate(212,89)"/>
<path d="M0 0 C-0.875 5.875 -0.875 5.875 -2 7 C-4.01964199 7.07244053 -6.04167124 7.08377188 -8.0625 7.0625 C-9.16722656 7.05347656 -10.27195312 7.04445313 -11.41015625 7.03515625 C-12.69212891 7.01775391 -12.69212891 7.01775391 -14 7 C-12.40408386 3.58017969 -11.13443726 1.58254886 -7.6875 -0.1875 C-4.66818278 -1.10031684 -2.99597187 -0.85599196 0 0 Z " fill="#A39F97" transform="translate(123,109)"/>
<path d="M0 0 C0 3 0 3 -1.53125 4.60546875 C-2.1809375 5.12753906 -2.830625 5.64960937 -3.5 6.1875 C-4.1496875 6.71730469 -4.799375 7.24710938 -5.46875 7.79296875 C-5.9740625 8.19128906 -6.479375 8.58960938 -7 9 C-5.27845212 5.23511958 -3.00765886 2.84936103 0 0 Z M-10 10 C-9.34 10.33 -8.68 10.66 -8 11 C-10.65010978 15.2205452 -13.41198628 18.50168662 -17 22 C-18.0209375 23.3303125 -18.0209375 23.3303125 -19.0625 24.6875 C-20.96214367 26.95481664 -22.28265723 27.93247248 -25 29 C-22.82186607 21.25552381 -15.59111143 15.45474285 -10 10 Z " fill="#8C8881" transform="translate(55,54)"/>
<path d="M0 0 C0.99 0 1.98 0 3 0 C2.3125 1.875 2.3125 1.875 1 4 C-0.64828045 4.71091053 -2.31894389 5.37049814 -4 6 C-5.79282903 6.8726159 -7.58446398 7.74768865 -9.375 8.625 C-13.92343643 10.7238049 -17.0416537 11.55092737 -22 11 C-18.34096004 6.89744004 -15.11479358 4.95292119 -10 3 C-8.65986503 2.34711373 -7.32258472 1.68774405 -6 1 C-6.33 1.99 -6.66 2.98 -7 4 C-4.69 3.34 -2.38 2.68 0 2 C0 1.34 0 0.68 0 0 Z " fill="#6D6C65" transform="translate(199,105)"/>
<path d="M0 0 C-1.6998232 1.15842044 -3.41029577 2.30122266 -5.125 3.4375 C-6.07632813 4.07558594 -7.02765625 4.71367188 -8.0078125 5.37109375 C-11.12084534 7.06578656 -13.51100086 7.57178253 -17 8 C-18.66933058 8.6599679 -20.3364521 9.32558869 -22 10 C-22.99 10 -23.98 10 -25 10 C-25 8.68 -25 7.36 -25 6 C-23.83082031 5.66226563 -22.66164062 5.32453125 -21.45703125 4.9765625 C-19.90881606 4.52617263 -18.36064109 4.0756445 -16.8125 3.625 C-16.04357422 3.40328125 -15.27464844 3.1815625 -14.48242188 2.953125 C-11.27921194 2.01828262 -8.20826615 1.08921633 -5.13671875 -0.2265625 C-3 -1 -3 -1 0 0 Z " fill="#64605C" transform="translate(60,31)"/>
<path d="M0 0 C4.75 0.75 4.75 0.75 7 3 C1.555 9.435 1.555 9.435 -4 16 C-4.66 15.67 -5.32 15.34 -6 15 C-5.27623543 11.50596417 -3.93714794 8.48001095 -2.4375 5.25 C-1.98246094 4.26515625 -1.52742188 3.2803125 -1.05859375 2.265625 C-0.70925781 1.51796875 -0.35992187 0.7703125 0 0 Z " fill="#79756D" transform="translate(113,19)"/>
<path d="M0 0 C10.73797583 -0.09827773 21.46181383 -0.14994924 32.1875 0.4375 C33.30777588 0.49635376 33.30777588 0.49635376 34.45068359 0.55639648 C37.50682196 0.74218973 40.08019882 1.02673294 43 2 C43.495 4.475 43.495 4.475 44 7 C43.34 5.68 42.68 4.36 42 3 C41.34 3 40.68 3 40 3 C40 3.66 40 4.32 40 5 C39.0925 4.835 38.185 4.67 37.25 4.5 C33.88912497 3.89862854 33.88912497 3.89862854 30 4 C28.66101564 3.71267627 27.32799969 3.3969411 26 3.0625 C17.49469209 1.2509465 8.66398136 1.31023863 0 1 C0 0.67 0 0.34 0 0 Z " fill="#C2BDB5" transform="translate(103,39)"/>
<path d="M0 0 C0.78375 0.04125 1.5675 0.0825 2.375 0.125 C1.83875 0.351875 1.3025 0.57875 0.75 0.8125 C-1.84917867 2.13454714 -1.84917867 2.13454714 -4.5 4.6875 C-7.7610758 7.23113912 -9.56814169 7.83522441 -13.625 8.125 C-13.625 8.785 -13.625 9.445 -13.625 10.125 C-14.615 10.125 -15.605 10.125 -16.625 10.125 C-16.625 10.785 -16.625 11.445 -16.625 12.125 C-18.37192795 12.79967562 -20.12268525 13.46444156 -21.875 14.125 C-23.33679688 14.681875 -23.33679688 14.681875 -24.828125 15.25 C-27.625 16.125 -27.625 16.125 -31.625 16.125 C-31.625 14.475 -31.625 12.825 -31.625 11.125 C-31.295 12.115 -30.965 13.105 -30.625 14.125 C-24.62610508 12.58741917 -20.42907741 11.10886907 -15.625 7.125 C-12.79964143 5.75362713 -9.94107696 4.50151985 -7.05078125 3.2734375 C-0.1517423 0.00722582 -0.1517423 0.00722582 0 0 Z " fill="#9A958F" transform="translate(64.625,33.875)"/>
<path d="M0 0 C-0.47276852 4.25491665 -2.92547477 6.22542845 -6 9 C-6.99 9.495 -6.99 9.495 -8 10 C-8.33 8.68 -8.66 7.36 -9 6 C-9.7425 6.474375 -10.485 6.94875 -11.25 7.4375 C-13.61050015 8.77869327 -15.36648477 9.512312 -18 10 C-17.34 9.01 -16.68 8.02 -16 7 C-15.01 7 -14.02 7 -13 7 C-13 6.34 -13 5.68 -13 5 C-8.57513948 1.68135461 -5.48445537 0 0 0 Z " fill="#413F3D" transform="translate(55,46)"/>
<path d="M0 0 C-2 2 -2 2 -5.34814453 2.22705078 C-6.77640633 2.22673375 -8.20469212 2.21541361 -9.6328125 2.1953125 C-10.76056595 2.19106766 -10.76056595 2.19106766 -11.91110229 2.18673706 C-14.31589578 2.17552874 -16.72031881 2.15042352 -19.125 2.125 C-20.75390088 2.11497102 -22.38280758 2.10584503 -24.01171875 2.09765625 C-28.00795556 2.07558735 -32.00391494 2.04105351 -36 2 C-36 1.67 -36 1.34 -36 1 C-23.85996859 -0.34724337 -12.17894171 -1.5379551 0 0 Z " fill="#87837C" transform="translate(153,35)"/>
<path d="M0 0 C0.99 0.33 1.98 0.66 3 1 C2.34 1 1.68 1 1 1 C0.9175 1.680625 0.835 2.36125 0.75 3.0625 C0.07928909 5.68945105 -0.62745008 7.22733583 -2 9.5 C-4.30590632 13.34317721 -5 16.51163517 -5 21 C-6.65 21 -8.3 21 -10 21 C-2.48282266 1.24141133 -2.48282266 1.24141133 0 0 Z " fill="#2B2B2A" transform="translate(112,18)"/>
<path d="M0 0 C0.66 0.33 1.32 0.66 2 1 C1.67 1.66 1.34 2.32 1 3 C0.34 3 -0.32 3 -1 3 C-1 3.66 -1 4.32 -1 5 C-1.99 5.66 -2.98 6.32 -4 7 C-4.680625 8.485 -4.680625 8.485 -5.375 10 C-7.28119991 13.51913829 -8.34687421 13.76245902 -12 15 C-10.95309723 13.05402799 -9.88679612 11.11848429 -8.8125 9.1875 C-8.22082031 8.10855469 -7.62914062 7.02960938 -7.01953125 5.91796875 C-4.91271789 2.87388832 -3.368351 1.4829565 0 0 Z M-12 15 C-12 15.66 -12 16.32 -12 17 C-13.98 17.99 -15.96 18.98 -18 20 C-18 19.34 -18 18.68 -18 18 C-14.53846154 15 -14.53846154 15 -12 15 Z " fill="#504E4B" transform="translate(38,63)"/>
<path d="M0 0 C-3.75 3 -3.75 3 -6 3 C-6 3.66 -6 4.32 -6 5 C-10.455 6.485 -10.455 6.485 -15 8 C-15 6.02 -15 4.04 -15 2 C-9.87080814 -0.10428384 -5.4389165 -0.21755666 0 0 Z " fill="#A7A49E" transform="translate(15,56)"/>
<path d="M0 0 C0.66 0 1.32 0 2 0 C2.4609429 7.1446149 1.55104024 12.69718903 -2 19 C-4.625 21.3125 -4.625 21.3125 -7 23 C-8.19027984 25.59915538 -8.19027984 25.59915538 -9 28 C-9.66 28.33 -10.32 28.66 -11 29 C-10.43697042 25.05879291 -9.3208055 22.2491277 -7 19 C-6.34 19 -5.68 19 -5 19 C-1.85380132 12.95382689 0.53165598 6.91152768 0 0 Z " fill="#B5B1A9" transform="translate(67,34)"/>
<path d="M0 0 C0.66 0.33 1.32 0.66 2 1 C1.67 2.65 1.34 4.3 1 6 C-0.43554025 6.50559908 -1.8735202 7.0042749 -3.3125 7.5 C-4.51326172 7.91765625 -4.51326172 7.91765625 -5.73828125 8.34375 C-8 9 -8 9 -11 9 C-11 7.68 -11 6.36 -11 5 C-10.37351563 4.72285156 -9.74703125 4.44570313 -9.1015625 4.16015625 C-8.28429688 3.79792969 -7.46703125 3.43570313 -6.625 3.0625 C-5.81289063 2.70285156 -5.00078125 2.34320313 -4.1640625 1.97265625 C-2.76316215 1.3430097 -1.37374716 0.68687358 0 0 Z " fill="#B9B4AE" transform="translate(45,39)"/>
<path d="M0 0 C2.4375 0.8125 2.4375 0.8125 4.4375 3.8125 C4.0625 6.5 4.0625 6.5 3.4375 8.8125 C-4.4972022 10.24731543 -4.4972022 10.24731543 -8.625 8.5625 C-9.5840625 7.69625 -9.5840625 7.69625 -10.5625 6.8125 C-10.5625 5.8225 -10.5625 4.8325 -10.5625 3.8125 C-8.9846875 4.555 -8.9846875 4.555 -7.375 5.3125 C-4.30797391 6.64029788 -1.94115064 7.11965006 1.4375 6.8125 C1.1075 5.4925 0.7775 4.1725 0.4375 2.8125 C-2.5325 2.3175 -2.5325 2.3175 -5.5625 1.8125 C-2.5625 -0.1875 -2.5625 -0.1875 0 0 Z " fill="#C0BCB4" transform="translate(143.5625,89.1875)"/>
<path d="M0 0 C3.3 0 6.6 0 10 0 C10 2.64 10 5.28 10 8 C8.68 8 7.36 8 6 8 C6 6.68 6 5.36 6 4 C4.02 4 2.04 4 0 4 C0 2.68 0 1.36 0 0 Z " fill="#9F9A93" transform="translate(79,81)"/>
<path d="M0 0 C0 0.33 0 0.66 0 1 C-0.825 1.268125 -1.65 1.53625 -2.5 1.8125 C-6.06488822 2.96075224 -6.06488822 2.96075224 -9.625 4.625 C-14.93695398 6.68157362 -20.39407481 6.25226663 -26 6 C-22.27037151 3.8549805 -18.26524134 2.90056437 -14.125 1.875 C-13.43019531 1.69324219 -12.73539063 1.51148437 -12.01953125 1.32421875 C-7.92148229 0.29777711 -4.25965752 -0.20029738 0 0 Z " fill="#666461" transform="translate(26,26)"/>
<path d="M0 0 C-2.70058139 3.46489688 -6.41500419 4.44644911 -10.4375 5.75 C-11.10587891 5.98332031 -11.77425781 6.21664062 -12.46289062 6.45703125 C-15.94336242 7.60913985 -18.52212334 8.45875134 -22 7 C-22 6.34 -22 5.68 -22 5 C-20.94039062 4.72285156 -19.88078125 4.44570313 -18.7890625 4.16015625 C-17.40101131 3.794386 -16.01299213 3.42849428 -14.625 3.0625 C-13.92632812 2.88009766 -13.22765625 2.69769531 -12.5078125 2.50976562 C-2.7433162 -0.07219253 -2.7433162 -0.07219253 0 0 Z " fill="#1C1A1B" transform="translate(58,29)"/>
<path d="M0 0 C1.32 0.33 2.64 0.66 4 1 C0.12356776 7.27612839 -6.81651288 10.7317302 -13.71875 12.82421875 C-15.79775433 13.28804725 -17.8979422 13.65540036 -20 14 C-20 13.34 -20 12.68 -20 12 C-19.154375 11.69707031 -18.30875 11.39414063 -17.4375 11.08203125 C-10.76095875 8.61626317 -4.87072057 6.02892588 1 2 C0.67 1.34 0.34 0.68 0 0 Z " fill="#6F6D68" transform="translate(20,53)"/>
<path d="M0 0 C0.66 0.33 1.32 0.66 2 1 C1.54109375 1.38671875 1.0821875 1.7734375 0.609375 2.171875 C-0.31101563 2.95304687 -0.31101563 2.95304687 -1.25 3.75 C-1.89710938 4.29527344 -2.54421875 4.84054688 -3.2109375 5.40234375 C-5.1183233 7.01998077 -5.1183233 7.01998077 -6.875 9.3125 C-10.18996627 11.94497321 -13.87171888 11.82357773 -18 12 C-16.33784732 10.66104368 -14.67036393 9.32869858 -13 8 C-12.071875 7.2265625 -12.071875 7.2265625 -11.125 6.4375 C-8.26798465 4.50481315 -5.167056 3.34893126 -2 2 C-1.34 1.34 -0.68 0.68 0 0 Z " fill="#ADA9A2" transform="translate(189,104)"/>
<path d="M0 0 C-1 2 -1 2 -2.73413086 2.62597656 C-5.13295621 3.17941028 -7.53193519 3.72649011 -9.9375 4.25 C-11.19336914 4.54777344 -11.19336914 4.54777344 -12.47460938 4.8515625 C-13.67633789 5.11839844 -13.67633789 5.11839844 -14.90234375 5.390625 C-16.00823853 5.6386084 -16.00823853 5.6386084 -17.13647461 5.89160156 C-18.05891968 5.94525879 -18.05891968 5.94525879 -19 6 C-19.66 5.34 -20.32 4.68 -21 4 C-13.75880117 1.25545087 -7.76751234 -0.51783416 0 0 Z " fill="#5A5751" transform="translate(126,33)"/>
<path d="M0 0 C0.2208542 3.86494842 -0.15446933 6.5725859 -2 10 C-4.375 12.0625 -4.375 12.0625 -7 14 C-8.35147138 15.31494512 -9.69112542 16.64264858 -11 18 C-11 15 -11 15 -8.625 12.4375 C-7.75875 11.633125 -6.8925 10.82875 -6 10 C-3.3144406 7.3144406 -2.93950026 4.62378672 -2 1 C-3.32 1.99 -4.64 2.98 -6 4 C-6.66 3.67 -7.32 3.34 -8 3 C-5.53387212 -0.1151089 -3.89156016 -0.31553191 0 0 Z " fill="#89857E" transform="translate(68,35)"/>
<path d="M0 0 C3.88844395 0.38190075 7.72064172 0.32181837 11.625 0.2578125 C11.295 0.9178125 10.965 1.5778125 10.625 2.2578125 C4.14911956 3.84726422 -2.24164335 2.94815103 -8.8125 2.3203125 C-10.4821582 2.17045898 -10.4821582 2.17045898 -12.18554688 2.01757812 C-14.9161009 1.77147669 -17.64576101 1.51802819 -20.375 1.2578125 C-20.375 0.9278125 -20.375 0.5978125 -20.375 0.2578125 C-13.43591898 -0.52934329 -6.94250234 -0.78708602 0 0 Z " fill="#C6C2B9" transform="translate(166.375,25.7421875)"/>
<path d="M0 0 C0.66 0.66 1.32 1.32 2 2 C1.625 5.125 1.625 5.125 1 8 C0.01 8 -0.98 8 -2 8 C-1.67 6.02 -1.34 4.04 -1 2 C-7.64966444 3.11595558 -7.64966444 3.11595558 -12.8125 7.125 C-13.204375 7.74375 -13.59625 8.3625 -14 9 C-14.99 8.67 -15.98 8.34 -17 8 C-11.61513227 2.30742554 -8.11178863 -0.76526308 0 0 Z " fill="#C6C1B9" transform="translate(123,107)"/>
<path d="M0 0 C1.16660156 0.00322266 2.33320312 0.00644531 3.53515625 0.00976562 C4.75847656 0.01814453 5.98179687 0.02652344 7.2421875 0.03515625 C8.47324219 0.03966797 9.70429688 0.04417969 10.97265625 0.04882812 C14.02088142 0.06064295 17.06901064 0.07711597 20.1171875 0.09765625 C20.1171875 0.42765625 20.1171875 0.75765625 20.1171875 1.09765625 C18.81265625 1.13503906 17.508125 1.17242188 16.1640625 1.2109375 C6.44083652 1.55420868 -2.56540687 2.08654345 -11.8828125 5.09765625 C-7.72844722 0.80481213 -5.97673314 -0.02901327 0 0 Z " fill="#8D8882" transform="translate(123.8828125,29.90234375)"/>
<path d="M0 0 C0.33 0.66 0.66 1.32 1 2 C1.66 2.33 2.32 2.66 3 3 C2.01 3 1.02 3 0 3 C0 3.99 0 4.98 0 6 C-1.86328125 7.640625 -1.86328125 7.640625 -4.3125 9.25 C-5.51326172 10.06210937 -5.51326172 10.06210937 -6.73828125 10.890625 C-9 12 -9 12 -12 11 C-8.19588166 7.08060535 -4.18423892 3.50897269 0 0 Z " fill="#DEDAD3" transform="translate(118,25)"/>
<path d="M0 0 C3.16115776 1.36983503 3.9927092 1.9890638 6 5 C8.07807494 6.11639354 8.07807494 6.11639354 10.4375 7 C13.62629951 8.26081035 15.7178677 9.41700782 18 12 C13.66907601 12.6496386 11.32975491 11.85931814 7.875 9.375 C4.4225577 6.59717286 2.18996379 3.83243663 0 0 Z " fill="#83807A" transform="translate(21,104)"/>
<path d="M0 0 C0 0.66 0 1.32 0 2 C-2.31 2.66 -4.62 3.32 -7 4 C-7 4.66 -7 5.32 -7 6 C-12.93438408 9.07708804 -17.29873464 10.48736475 -24 10 C-20.8377726 8.26830404 -17.73257278 7.2871024 -14.25 6.375 C-13.26515625 6.11460938 -12.2803125 5.85421875 -11.265625 5.5859375 C-10.14414062 5.29589844 -10.14414062 5.29589844 -9 5 C-9 4.34 -9 3.68 -9 3 C-8.01 3 -7.02 3 -6 3 C-6 2.34 -6 1.68 -6 1 C-3.92446352 0.4465236 -2.15634036 0 0 0 Z " fill="#716E69" transform="translate(57,41)"/>
<path d="M0 0 C0.97582031 0.00902344 1.95164062 0.01804688 2.95703125 0.02734375 C3.69308594 0.03894531 4.42914063 0.05054688 5.1875 0.0625 C4.8575 0.7225 4.5275 1.3825 4.1875 2.0625 C2.26139221 2.32817004 0.33326945 2.58525755 -1.6015625 2.77734375 C-4.80303057 3.19025394 -7.7350394 4.10079356 -10.8125 5.0625 C-10.8125 3.7425 -10.8125 2.4225 -10.8125 1.0625 C-7.13862505 0.20951624 -3.7677607 -0.04539471 0 0 Z " fill="#19191A" transform="translate(10.8125,33.9375)"/>
<path d="M0 0 C1.3242287 0.36784131 2.65613912 0.71202981 4 1 C-1.324335 3.32086397 -5.43842552 2.91457003 -11 2 C-11 1.01 -11 0.02 -11 -1 C-3.8319739 -2.37846656 -3.8319739 -2.37846656 0 0 Z " fill="#ADA8A1" transform="translate(166,39)"/>
<path d="M0 0 C1.22589844 0.01353516 1.22589844 0.01353516 2.4765625 0.02734375 C3.41628906 0.04474609 3.41628906 0.04474609 4.375 0.0625 C3.23510742 1.54418945 3.23510742 1.54418945 1.375 3.0625 C-1.26049805 3.40307617 -1.26049805 3.40307617 -4.38671875 3.35546875 C-5.50498047 3.34580078 -6.62324219 3.33613281 -7.77539062 3.32617188 C-8.94263672 3.30103516 -10.10988281 3.27589844 -11.3125 3.25 C-12.49134766 3.23646484 -13.67019531 3.22292969 -14.88476562 3.20898438 C-17.79863411 3.17359326 -20.71158945 3.12421809 -23.625 3.0625 C-23.625 2.7325 -23.625 2.4025 -23.625 2.0625 C-21.81902344 1.97162109 -21.81902344 1.97162109 -19.9765625 1.87890625 C-18.40102923 1.79450268 -16.82550904 1.70985459 -15.25 1.625 C-14.4559375 1.58568359 -13.661875 1.54636719 -12.84375 1.50585938 C-8.31913579 1.25662215 -4.47585933 -0.06394085 0 0 Z " fill="#A7A29B" transform="translate(155.625,35.9375)"/>
<path d="M0 0 C0.99 0 1.98 0 3 0 C3 0.66 3 1.32 3 2 C0.25430077 3.34287473 -2.49594266 4.67446996 -5.25 6 C-6.02730469 6.3815625 -6.80460937 6.763125 -7.60546875 7.15625 C-8.35957031 7.5171875 -9.11367187 7.878125 -9.890625 8.25 C-10.58188477 8.58515625 -11.27314453 8.9203125 -11.98535156 9.265625 C-14 10 -14 10 -18 10 C-17.67 9.01 -17.34 8.02 -17 7 C-14.9609375 6.12109375 -14.9609375 6.12109375 -12.375 5.4375 C-11.4778125 5.19257812 -10.580625 4.94765625 -9.65625 4.6953125 C-8.7796875 4.46585937 -7.903125 4.23640625 -7 4 C-5.6240284 3.6075574 -4.24886036 3.21227084 -2.875 2.8125 C-1.92625 2.544375 -0.9775 2.27625 0 2 C0 1.34 0 0.68 0 0 Z " fill="#BFBBB3" transform="translate(82,1)"/>
<path d="M0 0 C0 0.66 0 1.32 0 2 C-2.9615696 3.4807848 -5.83506295 3.35314037 -9.125 3.5625 C-10.40632812 3.64628906 -11.68765625 3.73007812 -13.0078125 3.81640625 C-13.99523437 3.87699219 -14.98265625 3.93757813 -16 4 C-16 3.01 -16 2.02 -16 1 C-14.08351538 0.83125293 -12.16680367 0.66508357 -10.25 0.5 C-9.18265625 0.4071875 -8.1153125 0.314375 -7.015625 0.21875 C-4.6820782 0.04947717 -2.33967818 0 0 0 Z " fill="#353433" transform="translate(16,31)"/>
<path d="M0 0 C0.99 0 1.98 0 3 0 C1.68756427 4.24017698 0.05211497 8.06677963 -2 12 C-2.391875 12.78375 -2.78375 13.5675 -3.1875 14.375 C-3.455625 14.91125 -3.72375 15.4475 -4 16 C-5.35606055 11.55829268 -4.59120114 9.2943828 -2.5625 5.1875 C-2.08941406 4.21167969 -1.61632812 3.23585937 -1.12890625 2.23046875 C-0.75636719 1.49441406 -0.38382812 0.75835937 0 0 Z " fill="#605D5A" transform="translate(114,0)"/>
<path d="M0 0 C0 0.33 0 0.66 0 1 C-9.04271357 3.45226131 -9.04271357 3.45226131 -13 3 C-13.99 2.34 -14.98 1.68 -16 1 C-16 0.34 -16 -0.32 -16 -1 C-9.93179132 -2.08360869 -5.89893243 -1.79074734 0 0 Z " fill="#8D8882" transform="translate(126,55)"/>
<path d="M0 0 C0.33 0 0.66 0 1 0 C1 1.65 1 3.3 1 5 C4.96 4.34 8.92 3.68 13 3 C12.67 3.66 12.34 4.32 12 5 C11.34 5 10.68 5 10 5 C10 5.66 10 6.32 10 7 C5.545 7.495 5.545 7.495 1 8 C1 7.34 1 6.68 1 6 C0.34 6 -0.32 6 -1 6 C-0.67 4.02 -0.34 2.04 0 0 Z " fill="#5D5B59" transform="translate(32,46)"/>
<path d="M0 0 C9.9 0 19.8 0 30 0 C25.09164613 3.6812654 23.84493669 3.38327454 18 3 C17.67 2.67 17.34 2.34 17 2 C14.14122091 1.76298761 11.30116703 1.57780818 8.4375 1.4375 C7.63119141 1.39431641 6.82488281 1.35113281 5.99414062 1.30664062 C3.99631195 1.20024738 1.9981793 1.09959112 0 1 C0 0.67 0 0.34 0 0 Z " fill="#ACA79F" transform="translate(148,29)"/>
<path d="M0 0 C0.33 0.66 0.66 1.32 1 2 C0.67 2.66 0.34 3.32 0 4 C0.66 4 1.32 4 2 4 C2 4.66 2 5.32 2 6 C3.32 6.33 4.64 6.66 6 7 C3.04335481 8.4783226 0.25770263 8.06032783 -3 8 C-2.67 6.68 -2.34 5.36 -2 4 C-3.98 4 -5.96 4 -8 4 C-5.33440687 2.22293791 -2.9719385 1.12451727 0 0 Z " fill="#484745" transform="translate(31,48)"/>
<path d="M0 0 C0.59296875 0.20238281 1.1859375 0.40476563 1.796875 0.61328125 C-3.05023057 4.61686455 -7.00973237 7.32299112 -13.203125 8.61328125 C-12.543125 7.62328125 -11.883125 6.63328125 -11.203125 5.61328125 C-10.213125 5.61328125 -9.223125 5.61328125 -8.203125 5.61328125 C-8.203125 4.95328125 -8.203125 4.29328125 -8.203125 3.61328125 C-2.99894173 -0.52640999 -2.99894173 -0.52640999 0 0 Z " fill="#494846" transform="translate(50.203125,47.38671875)"/>
<path d="M0 0 C5.35152885 0.32433508 8.28280043 3.49704824 12 7 C11.67 7.66 11.34 8.32 11 9 C5.91130316 6.83639731 2.35876434 5.30721977 0 0 Z " fill="#5F5D58" transform="translate(12,100)"/>
<path d="M0 0 C4.29 0 8.58 0 13 0 C13.33 0.66 13.66 1.32 14 2 C4.58997722 4.29612756 4.58997722 4.29612756 0 4 C1.32 3.34 2.64 2.68 4 2 C2.68 1.34 1.36 0.68 0 0 Z " fill="#67645E" transform="translate(121,32)"/>
<path d="M0 0 C2.31914205 1.25981781 4.62983916 2.53196129 6.9375 3.8125 C7.59685547 4.16892578 8.25621094 4.52535156 8.93554688 4.89257812 C13.88671875 7.66015625 13.88671875 7.66015625 15 11 C9.89900903 9.24653435 3.52889062 6.67194133 0.76171875 1.8359375 C0.51035156 1.23007813 0.25898438 0.62421875 0 0 Z " fill="#B4B0A8" transform="translate(26,105)"/>
<path d="M0 0 C3.63 0.33 7.26 0.66 11 1 C11 1.66 11 2.32 11 3 C9.35 3 7.7 3 6 3 C5.67 3.66 5.34 4.32 5 5 C2.5 3.625 2.5 3.625 0 2 C0 1.34 0 0.68 0 0 Z " fill="#ACA7A0" transform="translate(124,85)"/>
<path d="M0 0 C0.928125 0.495 1.85625 0.99 2.8125 1.5 C5.86527516 3.21289852 5.86527516 3.21289852 9 3 C9 3.66 9 4.32 9 5 C7.6078125 4.9071875 7.6078125 4.9071875 6.1875 4.8125 C3.01604897 4.69105736 3.01604897 4.69105736 1.125 6.5 C0.75375 6.995 0.3825 7.49 0 8 C-2 6.625 -2 6.625 -4 5 C-4 4.34 -4 3.68 -4 3 C-1.525 3.495 -1.525 3.495 1 4 C0.67 2.68 0.34 1.36 0 0 Z " fill="#5C5855" transform="translate(88,39)"/>
<path d="M0 0 C1.32 0 2.64 0 4 0 C3.8125 1.8125 3.8125 1.8125 3 4 C0.36425528 5.87276598 -1.92992508 6.97664169 -5 8 C-3.62901008 5.04709864 -2.22467373 2.39580248 0 0 Z " fill="#5C5A53" transform="translate(205,96)"/>
<path d="M0 0 C-3.07999946 3.67230705 -5.2482602 4.56802365 -10 5 C-10 3.68 -10 2.36 -10 1 C-8.71073008 0.63720544 -7.41846728 0.28503302 -6.125 -0.0625 C-5.40570313 -0.25972656 -4.68640625 -0.45695312 -3.9453125 -0.66015625 C-2 -1 -2 -1 0 0 Z " fill="#64615B" transform="translate(45,36)"/>
<path d="M0 0 C0 3.90689726 -1.23150967 4.76963412 -3.8125 7.625 C-4.52019531 8.42164063 -5.22789063 9.21828125 -5.95703125 10.0390625 C-8 12 -8 12 -11 13 C-9.63422544 8.71506993 -7.79318655 6.56854295 -4.375 3.6875 C-3.55773438 2.99011719 -2.74046875 2.29273438 -1.8984375 1.57421875 C-0.95871094 0.79498047 -0.95871094 0.79498047 0 0 Z " fill="#7F7C76" transform="translate(55,52)"/>
<path d="M0 0 C1.65 0.99 3.3 1.98 5 3 C4.67 3.99 4.34 4.98 4 6 C1.4375 7.1875 1.4375 7.1875 -1 8 C-1.04241723 5.66705225 -1.04092937 3.33297433 -1 1 C-0.67 0.67 -0.34 0.34 0 0 Z " fill="#A09B92" transform="translate(1,6)"/>
<path d="M0 0 C0.99 0 1.98 0 3 0 C1.5140084 4.59306496 -0.85014682 7.43569245 -4 11 C-4.66 10.67 -5.32 10.34 -6 10 C-5.07615834 8.32572385 -4.13549431 6.66071997 -3.1875 5 C-2.66542969 4.071875 -2.14335938 3.14375 -1.60546875 2.1875 C-0.81076172 1.1046875 -0.81076172 1.1046875 0 0 Z " fill="#484542" transform="translate(115,22)"/>
<path d="M0 0 C0.33 0 0.66 0 1 0 C1.20413361 5.73842251 1.27141454 10.60539047 -1 16 C-1.66 16 -2.32 16 -3 16 C-2.85691406 15.46890625 -2.71382813 14.9378125 -2.56640625 14.390625 C-1.8879064 11.52688769 -1.41106361 8.65452348 -0.9375 5.75 C-0.76089844 4.67234375 -0.58429688 3.5946875 -0.40234375 2.484375 C-0.26957031 1.66453125 -0.13679688 0.8446875 0 0 Z " fill="#C7C3BB" transform="translate(69,35)"/>
<path d="M0 0 C-0.33 0.99 -0.66 1.98 -1 3 C-6.94 2.01 -6.94 2.01 -13 1 C-13 0.67 -13 0.34 -13 0 C-8.37078475 -1.0161692 -4.65537393 -0.83796731 0 0 Z " fill="#BDB9B1" transform="translate(184,28)"/>
<path d="M0 0 C1.32 0 2.64 0 4 0 C4 0.66 4 1.32 4 2 C3.01 2 2.02 2 1 2 C3.0072908 5.0109362 3.83884224 5.63016497 7 7 C6.01 7.495 6.01 7.495 5 8 C0.34751773 5.84397163 0.34751773 5.84397163 -0.875 2.875 C-0.91625 2.25625 -0.9575 1.6375 -1 1 C-0.67 0.67 -0.34 0.34 0 0 Z " fill="#C2BEB6" transform="translate(123,83)"/>
<path d="M0 0 C-0.33 1.65 -0.66 3.3 -1 5 C-3.66666667 5 -6.33333333 5 -9 5 C-6.47717345 2.47717345 -3.69610207 0 0 0 Z " fill="#5E5B57" transform="translate(66,36)"/>
<path d="M0 0 C0.99 1.32 1.98 2.64 3 4 C2.01 5.485 2.01 5.485 1 7 C1.33 7.66 1.66 8.32 2 9 C0.35 9 -1.3 9 -3 9 C-2.01 6.03 -1.02 3.06 0 0 Z " fill="#343435" transform="translate(105,30)"/>
<path d="M0 0 C2.125 0.375 2.125 0.375 4 1 C2.625 2.5 2.625 2.5 1 4 C0.34 4 -0.32 4 -1 4 C-1 4.66 -1 5.32 -1 6 C-1.99 6 -2.98 6 -4 6 C-2.84826645 3.53199953 -1.95216435 1.95216435 0 0 Z " fill="#AFABA3" transform="translate(113,110)"/>
<path d="M0 0 C1.32 0.66 2.64 1.32 4 2 C2.90554162 2.86657116 1.79902219 3.71792724 0.6875 4.5625 C0.07261719 5.03816406 -0.54226562 5.51382813 -1.17578125 6.00390625 C-1.77777344 6.33261719 -2.37976563 6.66132812 -3 7 C-3.99 6.67 -4.98 6.34 -6 6 C-4 4 -2 2 0 0 Z " fill="#B9B5B0" transform="translate(112,30)"/>
<path d="M0 0 C0.66 0.33 1.32 0.66 2 1 C1.67 1.66 1.34 2.32 1 3 C1.66 3.33 2.32 3.66 3 4 C0.64561267 5.42944945 -0.48032433 6.08661261 -3.25 5.625 C-3.8275 5.41875 -4.405 5.2125 -5 5 C-3.35 3.35 -1.7 1.7 0 0 Z " fill="#CECAC3" transform="translate(50,36)"/>
<path d="M0 0 C0.99 0 1.98 0 3 0 C3.66 1.98 4.32 3.96 5 6 C3.68 6.33 2.36 6.66 1 7 C0.67 4.69 0.34 2.38 0 0 Z " fill="#282827" transform="translate(30,32)"/>
<path d="M0 0 C-1.76956458 2.14210449 -2.87575652 2.96060573 -5.5625 3.8125 C-6.366875 3.874375 -7.17125 3.93625 -8 4 C-8.66 3.34 -9.32 2.68 -10 2 C-6.49223216 0.39644899 -3.85645121 -0.22036864 0 0 Z " fill="#292726" transform="translate(58,29)"/>
<path d="M0 0 C0.33 0 0.66 0 1 0 C0.67 2.31 0.34 4.62 0 7 C-0.66 7 -1.32 7 -2 7 C-2.33 7.99 -2.66 8.98 -3 10 C-3.33 9.34 -3.66 8.68 -4 8 C-3.22265625 6.0546875 -3.22265625 6.0546875 -2.0625 3.875 C-1.49208984 2.78832031 -1.49208984 2.78832031 -0.91015625 1.6796875 C-0.60980469 1.12539062 -0.30945313 0.57109375 0 0 Z " fill="#2C2A2B" transform="translate(115,4)"/>
<path d="M0 0 C0.66 0.33 1.32 0.66 2 1 C0.02 3.31 -1.96 5.62 -4 8 C-4.66 7.34 -5.32 6.68 -6 6 C-5.38125 5.7525 -4.7625 5.505 -4.125 5.25 C-1.64931313 3.79371361 -1.04874998 2.62187494 0 0 Z " fill="#363534" transform="translate(31,64)"/>
<path d="M0 0 C2.97 0 5.94 0 9 0 C7.515 1.485 7.515 1.485 6 3 C2.3125 2.6875 2.3125 2.6875 -1 2 C-0.67 1.34 -0.34 0.68 0 0 Z " fill="#9B978F" transform="translate(151,36)"/>
<path d="M0 0 C0.99 0.33 1.98 0.66 3 1 C1.68 3.64 0.36 6.28 -1 9 C-1.33 9 -1.66 9 -2 9 C-1.125 2.25 -1.125 2.25 0 0 Z " fill="#252426" transform="translate(130,0)"/>
<path d="M0 0 C1.32 0.33 2.64 0.66 4 1 C2.68 2.65 1.36 4.3 0 6 C-1.32 5.67 -2.64 5.34 -4 5 C-2.35 4.01 -0.7 3.02 1 2 C0.67 1.34 0.34 0.68 0 0 Z " fill="#7C7A75" transform="translate(20,53)"/>
<path d="M0 0 C0.66 0.33 1.32 0.66 2 1 C2 1.99 2 2.98 2 4 C0.02 4.33 -1.96 4.66 -4 5 C-4 4.01 -4 3.02 -4 2 C-2.125 0.9375 -2.125 0.9375 0 0 Z " fill="#C1BCB6" transform="translate(45,39)"/>
<path d="M0 0 C-2.31 1.32 -4.62 2.64 -7 4 C-7.66 3.34 -8.32 2.68 -9 2 C-3.375 -1.125 -3.375 -1.125 0 0 Z " fill="#7D7973" transform="translate(60,31)"/>
<path d="M0 0 C0.66 0 1.32 0 2 0 C1.50168276 3.68754757 0.89932357 5.60490662 -2 8 C-1.125 1.125 -1.125 1.125 0 0 Z " fill="#232324" transform="translate(108,25)"/>
<path d="M0 0 C0.66 0.33 1.32 0.66 2 1 C1.01 2.98 0.02 4.96 -1 7 C-1.625 5.1875 -1.625 5.1875 -2 3 C-1.34 2.01 -0.68 1.02 0 0 Z " fill="#BDB9B1" transform="translate(65,47)"/>
</svg>
