<?xml version="1.0" encoding="UTF-8"?>
<svg version="1.1" xmlns="http://www.w3.org/2000/svg" width="218" height="120">
<path d="M0 0 C71.94 0 143.88 0 218 0 C218 39.6 218 79.2 218 120 C146.06 120 74.12 120 0 120 C0 80.4 0 40.8 0 0 Z " fill="#DDD8C5" transform="translate(0,0)"/>
<path d="M0 0 C8.79699834 -0.04634424 17.59395464 -0.08187981 26.39104843 -0.10362434 C30.4759121 -0.11406072 34.56069222 -0.12821724 38.64550781 -0.15087891 C42.58771842 -0.17261251 46.52984867 -0.18456973 50.47211456 -0.18975449 C51.97600825 -0.19344931 53.47989755 -0.20066437 54.98375702 -0.21146011 C57.09050493 -0.22598206 59.19692101 -0.22797767 61.30371094 -0.22705078 C62.50284119 -0.231492 63.70197144 -0.23593323 64.93743896 -0.24050903 C67.94537369 -0.00428991 69.40522419 0.60334184 72 2 C73.32 2 74.64 2 76 2 C76 2.99 76 3.98 76 5 C76.66 5 77.32 5 78 5 C78.33 3.68 78.66 2.36 79 1 C76.36 1 73.72 1 71 1 C71 0.67 71 0.34 71 0 C112.91 0 154.82 0 198 0 C197.67 1.65 197.34 3.3 197 5 C196.01 5 195.02 5 194 5 C194 4.01 194 3.02 194 2 C192.02 1.67 190.04 1.34 188 1 C188 1.99 188 2.98 188 4 C188.99 4.495 188.99 4.495 190 5 C189.01 5 188.02 5 187 5 C187 4.34 187 3.68 187 3 C186.01 3 185.02 3 184 3 C184 3.66 184 4.32 184 5 C182.02 5 180.04 5 178 5 C177.67 4.01 177.34 3.02 177 2 C162.15 1.505 162.15 1.505 147 1 C147 1.66 147 2.32 147 3 C148.32 2.67 149.64 2.34 151 2 C151 2.99 151 3.98 151 5 C174.265 5.495 174.265 5.495 198 6 C198 6.33 198 6.66 198 7 C133.98 7 69.96 7 4 7 C4.33 8.65 4.66 10.3 5 12 C4.01 11.67 3.02 11.34 2 11 C2.33 9.68 2.66 8.36 3 7 C2.01 7 1.02 7 0 7 C0 8.98 0 10.96 0 13 C65.67 13 131.34 13 199 13 C199 16.3 199 19.6 199 23 C197.26081117 24.73918883 195.00648694 24.12240946 192.68864197 24.12908131 C191.92114704 24.12616847 191.15365212 24.12325563 190.36289978 24.12025452 C189.55350199 24.12110894 188.7441042 24.12196337 187.9101792 24.12284368 C185.17699528 24.12450096 182.44387169 24.11897309 179.71069336 24.11352539 C177.75983176 24.11324355 175.80897006 24.1134012 173.85810852 24.1139679 C168.54427841 24.11425598 163.23047066 24.10835754 157.91664577 24.10139394 C152.36993315 24.09516216 146.82322009 24.09455674 141.27650452 24.09336853 C130.76507375 24.09025469 120.25365334 24.0820406 109.74222714 24.07201904 C97.77870865 24.06085953 85.81518968 24.05534786 73.85166728 24.05032361 C49.23443911 24.03985803 24.61722013 24.02225758 0 24 C0 27.3 0 30.6 0 34 C65.67 34 131.34 34 199 34 C199 34.33 199 34.66 199 35 C133 35 67 35 -1 35 C-1 25.43 -1 15.86 -1 6 C29.69 5.505 29.69 5.505 61 5 C61 3.68 61 2.36 61 1 C60.34 2.32 59.68 3.64 59 5 C54.78121808 5.19622241 51.82989106 4.80230168 48 3 C47.67 3.66 47.34 4.32 47 5 C45.02 4.67 43.04 4.34 41 4 C41.33 3.34 41.66 2.68 42 2 C41.34 1.67 40.68 1.34 40 1 C39.67 2.32 39.34 3.64 39 5 C38.34 5 37.68 5 37 5 C37 4.34 37 3.68 37 3 C36.34 3.66 35.68 4.32 35 5 C32.375 5.125 32.375 5.125 30 5 C30 4.01 30 3.02 30 2 C27.69 2 25.38 2 23 2 C22.67 2.99 22.34 3.98 22 5 C18.04 5 14.08 5 10 5 C10.66 4.01 11.32 3.02 12 2 C8.04 1.67 4.08 1.34 0 1 C0 0.67 0 0.34 0 0 Z " fill="#A0A29A" transform="translate(10,44)"/>
<path d="M0 0 C68.31 0.33 136.62 0.66 207 1 C207 4.63 207 8.26 207 12 C138.69 12 70.38 12 0 12 C0 11.67 0 11.34 0 11 C4.62 11 9.24 11 14 11 C14 10.01 14 9.02 14 8 C12.02 8 10.04 8 8 8 C7.67 8.66 7.34 9.32 7 10 C7 9.34 7 8.68 7 8 C4.69 8 2.38 8 0 8 C0 5.36 0 2.72 0 0 Z " fill="#CCCACF" transform="translate(6,94)"/>
<path d="M0 0 C65.34 0 130.68 0 198 0 C198 0.66 198 1.32 198 2 C196.68 2 195.36 2 194 2 C194.33 3.32 194.66 4.64 195 6 C195.99 6 196.98 6 198 6 C198 6.99 198 7.98 198 9 C132.66 9 67.32 9 0 9 C0 6.03 0 3.06 0 0 Z " fill="#E0DBC6" transform="translate(10,58)"/>
<path d="M0 0 C47.85 0 95.7 0 145 0 C145 1.65 145 3.3 145 5 C144.27559219 4.99777939 143.55118439 4.99555878 142.80482483 4.99327087 C135.99156547 4.97326773 129.17831047 4.95802575 122.36502934 4.94818783 C118.86191115 4.94296011 115.35881715 4.9358645 111.85571289 4.92456055 C107.83219159 4.91165794 103.80869586 4.90677088 99.78515625 4.90234375 C97.88987938 4.89460182 97.88987938 4.89460182 95.95631409 4.88670349 C94.795186 4.88662796 93.63405792 4.88655243 92.43774414 4.88647461 C91.40960098 4.884254 90.38145782 4.88203339 89.32215881 4.87974548 C87.0386489 4.73815391 87.0386489 4.73815391 86 6 C105.47 6 124.94 6 145 6 C145 6.99 145 7.98 145 9 C120.58 9 96.16 9 71 9 C71 8.01 71 7.02 71 6 C75.29 6 79.58 6 84 6 C84 5.01 84 4.02 84 3 C83.01 2.505 83.01 2.505 82 2 C82 2.66 82 3.32 82 4 C61.95939086 5.98984772 61.95939086 5.98984772 54 4 C53.67 4.33 53.34 4.66 53 5 C50.78144736 5.08783542 48.56011504 5.10694609 46.33984375 5.09765625 C45.34314415 5.09553383 45.34314415 5.09553383 44.3263092 5.09336853 C42.19666101 5.08775518 40.06711661 5.07520054 37.9375 5.0625 C36.49674631 5.05748671 35.05599097 5.05292351 33.61523438 5.04882812 C30.07678898 5.03778145 26.53840461 5.02050792 23 5 C23 4.34 23 3.68 23 3 C22.01 2.67 21.02 2.34 20 2 C20 2.99 20 3.98 20 5 C13.4 5 6.8 5 0 5 C0 3.35 0 1.7 0 0 Z " fill="#CBCBD0" transform="translate(67,96)"/>
<path d="M0 0 C7.92 0 15.84 0 24 0 C24 0.33 24 0.66 24 1 C17.73 1 11.46 1 5 1 C5.33 2.65 5.66 4.3 6 6 C5.01 5.67 4.02 5.34 3 5 C3.33 3.68 3.66 2.36 4 1 C3.01 1 2.02 1 1 1 C1 2.98 1 4.96 1 7 C66.67 7 132.34 7 200 7 C200 10.3 200 13.6 200 17 C198.26081117 18.73918883 196.00648694 18.12240946 193.68864197 18.12908131 C192.92114704 18.12616847 192.15365212 18.12325563 191.36289978 18.12025452 C190.55350199 18.12110894 189.7441042 18.12196337 188.9101792 18.12284368 C186.17699528 18.12450096 183.44387169 18.11897309 180.71069336 18.11352539 C178.75983176 18.11324355 176.80897006 18.1134012 174.85810852 18.1139679 C169.54427841 18.11425598 164.23047066 18.10835754 158.91664577 18.10139394 C153.36993315 18.09516216 147.82322009 18.09455674 142.27650452 18.09336853 C131.76507375 18.09025469 121.25365334 18.0820406 110.74222714 18.07201904 C98.77870865 18.06085953 86.81518968 18.05534786 74.85166728 18.05032361 C50.23443911 18.03985803 25.61722013 18.02225758 1 18 C1 21.3 1 24.6 1 28 C66.67 28 132.34 28 200 28 C200 28.33 200 28.66 200 29 C134 29 68 29 0 29 C0 19.43 0 9.86 0 0 Z M1 8 C1 10.97 1 13.94 1 17 C66.34 17 131.68 17 199 17 C199 16.01 199 15.02 199 14 C198.01 14 197.02 14 196 14 C195.67 12.68 195.34 11.36 195 10 C196.32 10 197.64 10 199 10 C198.67 9.34 198.34 8.68 198 8 C132.99 8 67.98 8 1 8 Z " fill="#9A978A" transform="translate(9,50)"/>
<path d="M0 0 C3.63 0 7.26 0 11 0 C11 2.31 11 4.62 11 7 C11.66 7 12.32 7 13 7 C13.33 6.01 13.66 5.02 14 4 C14 5.65 14 7.3 14 9 C13.01 8.67 12.02 8.34 11 8 C11 14.93 11 21.86 11 29 C37.4 29 63.8 29 91 29 C91 29.33 91 29.66 91 30 C63.28 30 35.56 30 7 30 C7.99 29.67 8.98 29.34 10 29 C10 26.36 10 23.72 10 21 C8.02 21 6.04 21 4 21 C4 20.67 4 20.34 4 20 C5.65 20 7.3 20 9 20 C9 16.04 9 12.08 9 8 C6.36 8.33 3.72 8.66 1 9 C1 17.91 1 26.82 1 36 C67 36 133 36 201 36 C201 24.12 201 12.24 201 0 C201.33 0 201.66 0 202 0 C202 12.54 202 25.08 202 38 C135.34 38 68.68 38 0 38 C0 25.46 0 12.92 0 0 Z " fill="#C6C2AC" transform="translate(9,0)"/>
<path d="M0 0 C66.66 0 133.32 0 202 0 C202 0.99 202 1.98 202 3 C179.3538364 3.02347715 156.70767485 3.04105134 134.0615015 3.05181217 C123.54384514 3.0569439 113.02619639 3.06392626 102.50854492 3.07543945 C93.32937837 3.08548258 84.15021733 3.09187607 74.97104543 3.09408849 C70.12166658 3.09537944 65.2723035 3.09836071 60.42292976 3.10573006 C40.25805717 3.13522973 20.14199432 3.10721034 0 2 C0 1.34 0 0.68 0 0 Z " fill="#CFCAC4" transform="translate(9,92)"/>
<path d="M0 0 C41.91 0 83.82 0 127 0 C127 3.63 127 7.26 127 11 C58.69 11 -9.62 11 -80 11 C-80 10.67 -80 10.34 -80 10 C-75.38 10 -70.76 10 -66 10 C-66 9.01 -66 8.02 -66 7 C-67.98 7 -69.96 7 -72 7 C-72.33 7.66 -72.66 8.32 -73 9 C-73 8.34 -73 7.68 -73 7 C-75.31 7 -77.62 7 -80 7 C-80 6.67 -80 6.34 -80 6 C-75.05 6 -70.1 6 -65 6 C-65 7.32 -65 8.64 -65 10 C-51.14 10 -37.28 10 -23 10 C-23 9.01 -23 8.02 -23 7 C-34.55 7 -46.1 7 -58 7 C-58 7.66 -58 8.32 -58 9 C-58.66 9 -59.32 9 -60 9 C-60 6.69 -60 4.38 -60 2 C-59.01 2.66 -58.02 3.32 -57 4 C-57 4.66 -57 5.32 -57 6 C-46.44 6 -35.88 6 -25 6 C-24.67 5.01 -24.34 4.02 -24 3 C-23.34 3 -22.68 3 -22 3 C-22 5.31 -22 7.62 -22 10 C26.84 10 75.68 10 126 10 C126 9.01 126 8.02 126 7 C106.53 7 87.06 7 67 7 C67.33 5.68 67.66 4.36 68 3 C68 3.99 68 4.98 68 6 C87.14 6 106.28 6 126 6 C126 4.35 126 2.7 126 1 C84.42 1 42.84 1 0 1 C0 0.67 0 0.34 0 0 Z " fill="#7B7D82" transform="translate(86,95)"/>
<path d="M0 0 C13.86 0.33 27.72 0.66 42 1 C42 2.65 42 4.3 42 6 C37.19453321 6.07405295 32.3893971 6.12855497 27.58349609 6.16479492 C25.94802059 6.17989911 24.31258571 6.20038389 22.67724609 6.22631836 C20.32899976 6.26263145 17.98128795 6.27970932 15.6328125 6.29296875 C14.53273361 6.31619453 14.53273361 6.31619453 13.41043091 6.33988953 C11.34814453 6.34057617 11.34814453 6.34057617 8 6 C7.34 5.01 6.68 4.02 6 3 C5.67 4.98 5.34 6.96 5 9 C5.66 9 6.32 9 7 9 C7 8.34 7 7.68 7 7 C18.55 7 30.1 7 42 7 C42 7.99 42 8.98 42 10 C28.14 10 14.28 10 0 10 C0 6.7 0 3.4 0 0 Z " fill="#D4D4B5" transform="translate(21,95)"/>
<path d="M0 0 C52.8 0 105.6 0 160 0 C160 3.3 160 6.6 160 10 C159.67 9.01 159.34 8.02 159 7 C157.68 7.33 156.36 7.66 155 8 C155 6.35 155 4.7 155 3 C156.32 3 157.64 3 159 3 C157.96009653 1.73684079 157.96009653 1.73684079 155.66715717 1.87974548 C154.10295678 1.8830764 154.10295678 1.8830764 152.50715637 1.88647461 C151.31437576 1.8865451 150.12159515 1.8866156 148.89266968 1.88668823 C147.55841032 1.8918233 146.22415129 1.89704474 144.88989258 1.90234375 C143.49375969 1.90426174 142.09762612 1.9057261 140.70149231 1.9067688 C137.68563898 1.90993903 134.66981337 1.91622218 131.65397072 1.92483521 C126.87394544 1.93834121 122.09392947 1.94424965 117.31388855 1.94897461 C106.28626434 1.96103915 95.25866383 1.98297562 84.23105621 2.00520325 C74.15981136 2.02543376 64.08857513 2.04351363 54.01731414 2.05341816 C49.2785917 2.05836655 44.53991307 2.06817742 39.80120814 2.08184814 C36.82981362 2.08938618 33.85842484 2.09263917 30.88702202 2.0948143 C28.88107427 2.09753573 26.87513528 2.10530676 24.86920166 2.11331177 C16.52833383 2.11379003 8.31030656 1.70378613 0 1 C0 0.67 0 0.34 0 0 Z " fill="#B8B5AB" transform="translate(49,57)"/>
<path d="M0 0 C41.91 0 83.82 0 127 0 C126.67 1.65 126.34 3.3 126 5 C125.01 5 124.02 5 123 5 C123 4.01 123 3.02 123 2 C121.02 1.67 119.04 1.34 117 1 C117 1.99 117 2.98 117 4 C117.99 4.495 117.99 4.495 119 5 C118.01 5 117.02 5 116 5 C116 4.34 116 3.68 116 3 C115.01 3 114.02 3 113 3 C113 3.66 113 4.32 113 5 C111.02 5 109.04 5 107 5 C106.505 3.515 106.505 3.515 106 2 C91.15 1.505 91.15 1.505 76 1 C76 1.66 76 2.32 76 3 C77.32 2.67 78.64 2.34 80 2 C80 2.99 80 3.98 80 5 C78.35 5 76.7 5 75 5 C75 3.68 75 2.36 75 1 C71.37 1.33 67.74 1.66 64 2 C63.67 2.99 63.34 3.98 63 5 C61.35 5 59.7 5 58 5 C58 4.34 58 3.68 58 3 C57.34 3.66 56.68 4.32 56 5 C53.31160615 5.26991906 50.70858064 5.08737357 48 5 C48.33 4.01 48.66 3.02 49 2 C46.525 1.505 46.525 1.505 44 1 C44 2.32 44 3.64 44 5 C41.36 5 38.72 5 36 5 C35.505 3.515 35.505 3.515 35 2 C34.34 2.99 33.68 3.98 33 5 C30 4 30 4 29 3 C28.67 2.34 28.34 1.68 28 1 C23.38 1.33 18.76 1.66 14 2 C14 2.33 14 2.66 14 3 C12.35 3 10.7 3 9 3 C9 3.66 9 4.32 9 5 C8.34 4.67 7.68 4.34 7 4 C7.33 3.01 7.66 2.02 8 1 C5.36 1 2.72 1 0 1 C0 0.67 0 0.34 0 0 Z " fill="#8E9389" transform="translate(81,44)"/>
<path d="M0 0 C4.95 0 9.9 0 15 0 C14.67 0.99 14.34 1.98 14 3 C16.64 3 19.28 3 22 3 C22 2.01 22 1.02 22 0 C27.61 0 33.22 0 39 0 C39 0.33 39 0.66 39 1 C36.03 1 33.06 1 30 1 C30 1.99 30 2.98 30 4 C30.66 3.34 31.32 2.68 32 2 C34.625 1.875 34.625 1.875 37 2 C37 2.66 37 3.32 37 4 C37.66 4 38.32 4 39 4 C39.33 2.68 39.66 1.36 40 0 C41.32 0.33 42.64 0.66 44 1 C43.34 1.33 42.68 1.66 42 2 C44.475 2.99 44.475 2.99 47 4 C47.33 3.01 47.66 2.02 48 1 C50.31 1.33 52.62 1.66 55 2 C55 2.66 55 3.32 55 4 C55.66 4 56.32 4 57 4 C57.33 2.68 57.66 1.36 58 0 C58.495 0.495 58.495 0.495 59 1 C59.66 0.67 60.32 0.34 61 0 C61 1.32 61 2.64 61 4 C61.78375 3.79375 62.5675 3.5875 63.375 3.375 C64.24125 3.25125 65.1075 3.1275 66 3 C66.99 3.99 66.99 3.99 68 5 C45.56 5 23.12 5 0 5 C0 3.35 0 1.7 0 0 Z " fill="#DFE2D9" transform="translate(10,45)"/>
<path d="M0 0 C22.44 0 44.88 0 68 0 C68 0.33 68 0.66 68 1 C66.02 1 64.04 1 62 1 C61.67 1.99 61.34 2.98 61 4 C61 3.01 61 2.02 61 1 C60.34 2.32 59.68 3.64 59 5 C54.78121808 5.19622241 51.82989106 4.80230168 48 3 C47.67 3.66 47.34 4.32 47 5 C45.02 4.67 43.04 4.34 41 4 C41.33 3.34 41.66 2.68 42 2 C41.34 1.67 40.68 1.34 40 1 C39.67 2.32 39.34 3.64 39 5 C38.34 5 37.68 5 37 5 C37 4.34 37 3.68 37 3 C36.34 3.66 35.68 4.32 35 5 C32.375 5.125 32.375 5.125 30 5 C30 4.01 30 3.02 30 2 C27.69 2 25.38 2 23 2 C22.67 2.99 22.34 3.98 22 5 C18.04 5 14.08 5 10 5 C10.66 4.01 11.32 3.02 12 2 C8.04 1.67 4.08 1.34 0 1 C0 0.67 0 0.34 0 0 Z " fill="#939D90" transform="translate(10,44)"/>
<path d="M0 0 C26.67246057 -0.24254476 53.33532394 0.43311247 80 1 C80 1.33 80 1.66 80 2 C72.74 2 65.48 2 58 2 C57.67 2.66 57.34 3.32 57 4 C57 3.34 57 2.68 57 2 C55.57119507 2.00785522 55.57119507 2.00785522 54.11352539 2.01586914 C50.54078124 2.03412605 46.96804112 2.04550678 43.39526367 2.05493164 C41.85619409 2.05992496 40.31712916 2.06672194 38.77807617 2.07543945 C30.79274406 2.11950003 22.92367363 2.14483112 15 1 C15 2.98 15 4.96 15 7 C10.05 7 5.1 7 0 7 C0 4.69 0 2.38 0 0 Z " fill="#8D8E8C" transform="translate(6,94)"/>
<path d="M0 0 C7.92 0 15.84 0 24 0 C23.01 0.33 22.02 0.66 21 1 C21 1.66 21 2.32 21 3 C24.00259517 3.33218192 24.00259517 3.33218192 25.6875 1.5 C26.3371875 0.7575 26.3371875 0.7575 27 0 C27 0.99 27 1.98 27 3 C28.423125 2.9690625 28.423125 2.9690625 29.875 2.9375 C33 3 33 3 35 4 C35 2.68 35 1.36 35 0 C39.62 0 44.24 0 49 0 C49 0.33 49 0.66 49 1 C48.04287109 1.07347656 48.04287109 1.07347656 47.06640625 1.1484375 C46.24011719 1.22320312 45.41382813 1.29796875 44.5625 1.375 C43.73878906 1.44460937 42.91507813 1.51421875 42.06640625 1.5859375 C41.38449219 1.72257812 40.70257813 1.85921875 40 2 C39.67 2.66 39.34 3.32 39 4 C39.495 3.67 39.99 3.34 40.5 3 C44.09090894 1.56363642 47.14456127 1.87148538 51 2 C51 2.66 51 3.32 51 4 C51.99 3.67 52.98 3.34 54 3 C54.33 2.34 54.66 1.68 55 1 C53.35 1 51.7 1 50 1 C50 0.67 50 0.34 50 0 C52.31 0 54.62 0 57 0 C57 1.65 57 3.3 57 5 C41.16 5 25.32 5 9 5 C9 4.34 9 3.68 9 3 C4.545 2.01 4.545 2.01 0 1 C0 0.67 0 0.34 0 0 Z " fill="#E8E8DD" transform="translate(90,45)"/>
<path d="M0 0 C0.66 0 1.32 0 2 0 C2 2.31 2 4.62 2 7 C2.66 7 3.32 7 4 7 C4.33 6.01 4.66 5.02 5 4 C5 5.65 5 7.3 5 9 C4.01 8.67 3.02 8.34 2 8 C2 14.93 2 21.86 2 29 C28.4 29 54.8 29 82 29 C82 29.33 82 29.66 82 30 C54.28 30 26.56 30 -2 30 C-1.01 29.67 -0.02 29.34 1 29 C1 26.36 1 23.72 1 21 C-0.98 21 -2.96 21 -5 21 C-5 20.67 -5 20.34 -5 20 C-3.35 20 -1.7 20 0 20 C-0.08378906 19.14277344 -0.16757812 18.28554688 -0.25390625 17.40234375 C-0.78843976 11.40068264 -1.23818759 5.91578513 0 0 Z " fill="#788368" transform="translate(18,0)"/>
<path d="M0 0 C9.57 0 19.14 0 29 0 C29 1.65 29 3.3 29 5 C19.43 5 9.86 5 0 5 C0 3.35 0 1.7 0 0 Z " fill="#C9C9CE" transform="translate(34,96)"/>
<path d="M0 0 C8.58 0 17.16 0 26 0 C26 1.65 26 3.3 26 5 C15.77 5 5.54 5 -5 5 C-5 4.67 -5 4.34 -5 4 C1.75 2.875 1.75 2.875 4 4 C4 3.01 4 2.02 4 1 C2.68 1.33 1.36 1.66 0 2 C0 1.34 0 0.68 0 0 Z " fill="#F6F7EF" transform="translate(157,45)"/>
<path d="M0 0 C9.9 0 19.8 0 30 0 C29 2 29 2 26.95703125 2.68359375 C23.07466501 3.09901207 19.53635104 2.61626677 15.6875 2.0625 C14.94693359 1.96259766 14.20636719 1.86269531 13.44335938 1.75976562 C11.62790363 1.51380065 9.81379929 1.25789626 8 1 C8 1.66 8 2.32 8 3 C7.34 3 6.68 3 6 3 C6 3.66 6 4.32 6 5 C6.763125 5.103125 7.52625 5.20625 8.3125 5.3125 C11 6 11 6 14 9 C9.38 9 4.76 9 0 9 C0 6.03 0 3.06 0 0 Z " fill="#E1DCC6" transform="translate(10,58)"/>
<path d="M0 0 C7.92 0 15.84 0 24 0 C24 0.33 24 0.66 24 1 C17.73 1 11.46 1 5 1 C5.33 2.65 5.66 4.3 6 6 C5.01 5.67 4.02 5.34 3 5 C3.33 3.68 3.66 2.36 4 1 C3.01 1 2.02 1 1 1 C1 2.98 1 4.96 1 7 C13.87 7 26.74 7 40 7 C40 7.33 40 7.66 40 8 C27.13 8 14.26 8 1 8 C1 10.97 1 13.94 1 17 C3.64 17 6.28 17 9 17 C9 17.33 9 17.66 9 18 C6.36 18 3.72 18 1 18 C1 21.3 1 24.6 1 28 C0.67 28 0.34 28 0 28 C0 18.76 0 9.52 0 0 Z " fill="#A1A09A" transform="translate(9,50)"/>
<path d="M0 0 C2.97 0 5.94 0 9 0 C9 2.31 9 4.62 9 7 C6.09399739 8.25664978 4.20395416 9 1 9 C1 18.24 1 27.48 1 37 C0.67 37 0.34 37 0 37 C0 24.79 0 12.58 0 0 Z " fill="#BBB8A2" transform="translate(9,0)"/>
<path d="M0 0 C2.64 0 5.28 0 8 0 C8 1.32 8 2.64 8 4 C25.16 4.33 42.32 4.66 60 5 C60 5.33 60 5.66 60 6 C40.2 6 20.4 6 0 6 C0 4.02 0 2.04 0 0 Z " fill="#A0A19A" transform="translate(148,45)"/>
<path d="M0 0 C9.57 0 19.14 0 29 0 C29 0.99 29 1.98 29 3 C19.43 3 9.86 3 0 3 C0 2.01 0 1.02 0 0 Z " fill="#CDCBCF" transform="translate(34,102)"/>
<path d="M0 0 C4.62 0 9.24 0 14 0 C10.23312136 1.88343932 8.97041037 2.22057835 5 2 C5 2.66 5 3.32 5 4 C5.928125 3.7215625 5.928125 3.7215625 6.875 3.4375 C9 3 9 3 11 4 C11 3.34 11 2.68 11 2 C11.99 2 12.98 2 14 2 C14.33 2.33 14.66 2.66 15 3 C15 2.01 15 1.02 15 0 C17.31 0 19.62 0 22 0 C21.67 1.32 21.34 2.64 21 4 C21.66 4.33 22.32 4.66 23 5 C15.41 5 7.82 5 0 5 C0 3.35 0 1.7 0 0 Z " fill="#D7DFD1" transform="translate(183,45)"/>
<path d="M0 0 C1.32 0.33 2.64 0.66 4 1 C3.01 1.495 3.01 1.495 2 2 C4.475 2.99 4.475 2.99 7 4 C7.33 3.01 7.66 2.02 8 1 C10.31 1.33 12.62 1.66 15 2 C15 2.66 15 3.32 15 4 C15.66 4 16.32 4 17 4 C17.33 2.68 17.66 1.36 18 0 C18.33 0.33 18.66 0.66 19 1 C19.66 0.67 20.32 0.34 21 0 C21 1.32 21 2.64 21 4 C21.78375 3.79375 22.5675 3.5875 23.375 3.375 C24.674375 3.189375 24.674375 3.189375 26 3 C26.66 3.66 27.32 4.32 28 5 C15.46 5 2.92 5 -10 5 C-9.34 4.01 -8.68 3.02 -8 2 C-5.375 1.8125 -5.375 1.8125 -3 2 C-3 2.66 -3 3.32 -3 4 C-2.34 4 -1.68 4 -1 4 C-0.67 2.68 -0.34 1.36 0 0 Z " fill="#E9EBDC" transform="translate(50,45)"/>
<path d="M0 0 C18.15 0 36.3 0 55 0 C55 3.3 55 6.6 55 10 C54.505 8.515 54.505 8.515 54 7 C52.68 7.33 51.36 7.66 50 8 C50 6.35 50 4.7 50 3 C51.32 3 52.64 3 54 3 C54 2.34 54 1.68 54 1 C36.18 1 18.36 1 0 1 C0 0.67 0 0.34 0 0 Z " fill="#B4AFA1" transform="translate(154,57)"/>
<path d="M0 0 C0.99 0 1.98 0 3 0 C3 0.66 3 1.32 3 2 C9.27 2.33 15.54 2.66 22 3 C22 2.01 22 1.02 22 0 C23.32 0.33 24.64 0.66 26 1 C25.67 1.66 25.34 2.32 25 3 C34.9 3 44.8 3 55 3 C55.33 2.01 55.66 1.02 56 0 C56 1.32 56 2.64 56 4 C37.52 4 19.04 4 0 4 C0 2.68 0 1.36 0 0 Z " fill="#83868F" transform="translate(65,98)"/>
<path d="M0 0 C2.64 0 5.28 0 8 0 C8.66 2.31 9.32 4.62 10 7 C6.18510326 8.46726798 3.70988378 7.43336419 0 6 C0 5.34 0 4.68 0 4 C-0.66 4 -1.32 4 -2 4 C-2 3.34 -2 2.68 -2 2 C-1.34 2 -0.68 2 0 2 C0 1.34 0 0.68 0 0 Z " fill="#CECCBA" transform="translate(18,59)"/>
<path d="M0 0 C4.29 0 8.58 0 13 0 C13 0.33 13 0.66 13 1 C12.04287109 1.07347656 12.04287109 1.07347656 11.06640625 1.1484375 C10.24011719 1.22320312 9.41382813 1.29796875 8.5625 1.375 C7.73878906 1.44460937 6.91507813 1.51421875 6.06640625 1.5859375 C5.38449219 1.72257812 4.70257813 1.85921875 4 2 C3.67 2.66 3.34 3.32 3 4 C3.495 3.67 3.99 3.34 4.5 3 C8.09090894 1.56363642 11.14456127 1.87148538 15 2 C15 2.66 15 3.32 15 4 C15.99 3.67 16.98 3.34 18 3 C18.33 2.34 18.66 1.68 19 1 C17.35 1 15.7 1 14 1 C14 0.67 14 0.34 14 0 C16.31 0 18.62 0 21 0 C21 1.65 21 3.3 21 5 C14.07 5 7.14 5 0 5 C0 3.35 0 1.7 0 0 Z " fill="#E7E9DF" transform="translate(126,45)"/>
<path d="M0 0 C0.99 0.33 1.98 0.66 3 1 C2.67 2.32 2.34 3.64 2 5 C-11.86 4.505 -11.86 4.505 -26 4 C-26 3.01 -26 2.02 -26 1 C-25.44731445 1.16298584 -24.89462891 1.32597168 -24.32519531 1.49389648 C-21.74526966 2.05544477 -19.43644776 2.1130026 -16.796875 2.09765625 C-15.8171875 2.09443359 -14.8375 2.09121094 -13.828125 2.08789062 C-12.81234375 2.07951172 -11.7965625 2.07113281 -10.75 2.0625 C-9.71875 2.05798828 -8.6875 2.05347656 -7.625 2.04882812 C-5.08327427 2.03706088 -2.54166681 2.02062011 0 2 C0 1.34 0 0.68 0 0 Z " fill="#8B8F97" transform="translate(149,98)"/>
<path d="M0 0 C4.29 0 8.58 0 13 0 C13 0.66 13 1.32 13 2 C12.34 2.66 11.68 3.32 11 4 C11 4.33 11 4.66 11 5 C5.72 5 0.44 5 -5 5 C-5 4.67 -5 4.34 -5 4 C1.75 2.875 1.75 2.875 4 4 C4 3.01 4 2.02 4 1 C2.68 1.33 1.36 1.66 0 2 C0 1.34 0 0.68 0 0 Z " fill="#E8E9DE" transform="translate(157,45)"/>
<path d="M0 0 C1.32 0.33 2.64 0.66 4 1 C3.01 1 2.02 1 1 1 C1 1.66 1 2.32 1 3 C4.00259517 3.33218192 4.00259517 3.33218192 5.6875 1.5 C6.3371875 0.7575 6.3371875 0.7575 7 0 C7 0.99 7 1.98 7 3 C8.423125 2.9690625 8.423125 2.9690625 9.875 2.9375 C13 3 13 3 15 4 C15.33 2.68 15.66 1.36 16 0 C16 1.65 16 3.3 16 5 C13.45826023 5.02716824 10.91681585 5.04691969 8.375 5.0625 C7.30572266 5.07506836 7.30572266 5.07506836 6.21484375 5.08789062 C2.02655562 5.10710296 -1.8728462 4.8267327 -6 4 C-5.67 3.01 -5.34 2.02 -5 1 C-3.35 1.33 -1.7 1.66 0 2 C0 1.34 0 0.68 0 0 Z " fill="#D4D6CE" transform="translate(110,45)"/>
<path d="M0 0 C4.29 0 8.58 0 13 0 C13 1.98 13 3.96 13 6 C8.71 6 4.42 6 0 6 C0 5.67 0 5.34 0 5 C2.31 5 4.62 5 7 5 C7 3.68 7 2.36 7 1 C4.69 1 2.38 1 0 1 C0 0.67 0 0.34 0 0 Z " fill="#C8C6BE" transform="translate(7,95)"/>
<path d="M0 0 C0.66 0 1.32 0 2 0 C2 2.31 2 4.62 2 7 C2.66 7 3.32 7 4 7 C4.33 6.01 4.66 5.02 5 4 C5 5.65 5 7.3 5 9 C4.01 8.67 3.02 8.34 2 8 C1.67 12.29 1.34 16.58 1 21 C-0.98 21 -2.96 21 -5 21 C-5 20.67 -5 20.34 -5 20 C-3.35 20 -1.7 20 0 20 C-0.08378906 19.14277344 -0.16757812 18.28554688 -0.25390625 17.40234375 C-0.78843976 11.40068264 -1.23818759 5.91578513 0 0 Z " fill="#88907B" transform="translate(18,0)"/>
<path d="M0 0 C1.485 0.99 1.485 0.99 3 2 C3 2.66 3 3.32 3 4 C13.23 4 23.46 4 34 4 C34 4.33 34 4.66 34 5 C23.44 5 12.88 5 2 5 C2 5.66 2 6.32 2 7 C1.34 7 0.68 7 0 7 C0 4.69 0 2.38 0 0 Z " fill="#989B97" transform="translate(26,97)"/>
<path d="M0 0 C6.625 -0.125 6.625 -0.125 10 1 C11.32 1 12.64 1 14 1 C14 1.99 14 2.98 14 4 C9.05 4 4.1 4 -1 4 C-0.67 2.68 -0.34 1.36 0 0 Z " fill="#B2B6A9" transform="translate(72,45)"/>
<path d="M0 0 C1.65 0 3.3 0 5 0 C4.34 1.65 3.68 3.3 3 5 C4.32 5.33 5.64 5.66 7 6 C5.68 6 4.36 6 3 6 C2.34 7.32 1.68 8.64 1 10 C0.34 10 -0.32 10 -1 10 C-1.33 9.01 -1.66 8.02 -2 7 C-2.66 6.67 -3.32 6.34 -4 6 C-4 5.34 -4 4.68 -4 4 C-3.01 4 -2.02 4 -1 4 C-0.67 2.68 -0.34 1.36 0 0 Z " fill="#97A297" transform="translate(71,9)"/>
<path d="M0 0 C9.9 0 19.8 0 30 0 C29.67 0.66 29.34 1.32 29 2 C25.30772656 3.08269057 22.06692749 3.00608432 18.26171875 2.66015625 C16.66166992 2.5199707 16.66166992 2.5199707 15.02929688 2.37695312 C13.92650391 2.27318359 12.82371094 2.16941406 11.6875 2.0625 C10.00430664 1.91264648 10.00430664 1.91264648 8.28710938 1.75976562 C5.52410179 1.51285856 2.76185892 1.25939059 0 1 C0 0.67 0 0.34 0 0 Z " fill="#E9E6D4" transform="translate(10,58)"/>
<path d="M0 0 C1.76923828 0.04060547 1.76923828 0.04060547 3.57421875 0.08203125 C4.47785156 0.11683594 5.38148437 0.15164062 6.3125 0.1875 C6.3125 1.5075 6.3125 2.8275 6.3125 4.1875 C-0.4375 3.3125 -0.4375 3.3125 -2.6875 2.1875 C-3.0175 2.8475 -3.3475 3.5075 -3.6875 4.1875 C-6.6575 3.6925 -6.6575 3.6925 -9.6875 3.1875 C-6.99455929 -0.5165087 -4.35133403 -0.12924755 0 0 Z " fill="#B2B6AB" transform="translate(60.6875,44.8125)"/>
<path d="M0 0 C1.65 0 3.3 0 5 0 C5 0.99 5 1.98 5 3 C5.66 3 6.32 3 7 3 C7 2.34 7 1.68 7 1 C8.98 1 10.96 1 13 1 C13 1.99 13 2.98 13 4 C8.71 4 4.42 4 0 4 C0 2.68 0 1.36 0 0 Z " fill="#CDCEB3" transform="translate(21,101)"/>
<path d="M0 0 C2.66666667 0.66666667 5.33333333 1.33333333 8 2 C8 3.32 8 4.64 8 6 C5.36 6.33 2.72 6.66 0 7 C0 4.69 0 2.38 0 0 Z " fill="#9B9892" transform="translate(6,94)"/>
<path d="M0 0 C4.62 0 9.24 0 14 0 C10.23312136 1.88343932 8.97041037 2.22057835 5 2 C5 2.99 5 3.98 5 5 C3.35 5 1.7 5 0 5 C0 3.35 0 1.7 0 0 Z " fill="#E3E4DC" transform="translate(183,45)"/>
<path d="M0 0 C0.99 0 1.98 0 3 0 C3 1.32 3 2.64 3 4 C3.66 4.33 4.32 4.66 5 5 C4.67 3.35 4.34 1.7 4 0 C5.32 0.33 6.64 0.66 8 1 C8 2.65 8 4.3 8 6 C5.36 6 2.72 6 0 6 C0 4.02 0 2.04 0 0 Z " fill="#ECEDE3" transform="translate(10,51)"/>
<path d="M0 0 C7.92 0 15.84 0 24 0 C24 0.33 24 0.66 24 1 C17.73 1 11.46 1 5 1 C5.33 2.65 5.66 4.3 6 6 C5.01 5.67 4.02 5.34 3 5 C3.33 3.68 3.66 2.36 4 1 C2.68 0.67 1.36 0.34 0 0 Z " fill="#959A95" transform="translate(9,50)"/>
<path d="M0 0 C2.97 0 5.94 0 9 0 C9 1.65 9 3.3 9 5 C6.75 5.3125 6.75 5.3125 4 5 C1.6875 2.5 1.6875 2.5 0 0 Z " fill="#DBD9BD" transform="translate(25,96)"/>
<path d="M0 0 C2.625 0.375 2.625 0.375 5 1 C5 1.33 5 1.66 5 2 C3.35 2.33 1.7 2.66 0 3 C0.495 3.61875 0.99 4.2375 1.5 4.875 C3 7 3 7 3 9 C1.35 9 -0.3 9 -2 9 C-2.125 5.625 -2.125 5.625 -2 2 C-1.34 1.34 -0.68 0.68 0 0 Z " fill="#8A897D" transform="translate(53,13)"/>
<path d="M0 0 C1.32 0.33 2.64 0.66 4 1 C3.34 1.66 2.68 2.32 2 3 C2 3.66 2 4.32 2 5 C-1.96 5 -5.92 5 -10 5 C-9.34 4.01 -8.68 3.02 -8 2 C-5.375 1.8125 -5.375 1.8125 -3 2 C-3 2.66 -3 3.32 -3 4 C-2.34 4 -1.68 4 -1 4 C-0.67 2.68 -0.34 1.36 0 0 Z " fill="#E1E5D8" transform="translate(50,45)"/>
<path d="M0 0 C0.66 0 1.32 0 2 0 C2.33 0.66 2.66 1.32 3 2 C3.66 2 4.32 2 5 2 C4.67 3.32 4.34 4.64 4 6 C4.66 6.33 5.32 6.66 6 7 C3.03 6.505 3.03 6.505 0 6 C0 5.34 0 4.68 0 4 C-0.66 4 -1.32 4 -2 4 C-2 3.34 -2 2.68 -2 2 C-1.34 2 -0.68 2 0 2 C0 1.34 0 0.68 0 0 Z " fill="#9DA8A1" transform="translate(18,59)"/>
<path d="M0 0 C3.96 0 7.92 0 12 0 C12.33 1.32 12.66 2.64 13 4 C8.51474352 3.343621 4.33085971 2.29925791 0 1 C0 0.67 0 0.34 0 0 Z " fill="#DCDDD5" transform="translate(90,45)"/>
<path d="M0 0 C4.62 0 9.24 0 14 0 C14 0.33 14 0.66 14 1 C11.03 1 8.06 1 5 1 C5 1.99 5 2.98 5 4 C3.68 4 2.36 4 1 4 C0.67 2.68 0.34 1.36 0 0 Z " fill="#DEE6D5" transform="translate(35,45)"/>
<path d="M0 0 C0.99 0.33 1.98 0.66 3 1 C2.67 2.32 2.34 3.64 2 5 C1.34 5 0.68 5 0 5 C0 4.34 0 3.68 0 3 C-3.96 3 -7.92 3 -12 3 C-12 2.67 -12 2.34 -12 2 C-8.04 2 -4.08 2 0 2 C0 1.34 0 0.68 0 0 Z " fill="#A2A3AC" transform="translate(149,98)"/>
<path d="M0 0 C0 2.64 0 5.28 0 8 C-0.33 7.01 -0.66 6.02 -1 5 C-2.32 5.33 -3.64 5.66 -5 6 C-5 4.35 -5 2.7 -5 1 C-1.125 0 -1.125 0 0 0 Z " fill="#8F8E86" transform="translate(209,59)"/>
<path d="M0 0 C1.0625 1.875 1.0625 1.875 2 4 C1.67 4.66 1.34 5.32 1 6 C-3.95 6 -8.9 6 -14 6 C-14 5.67 -14 5.34 -14 5 C-7.565 4.505 -7.565 4.505 -1 4 C-0.67 2.68 -0.34 1.36 0 0 Z " fill="#A6A8A3" transform="translate(147,45)"/>
<path d="M0 0 C0.33 0.99 0.66 1.98 1 3 C1.66 3.33 2.32 3.66 3 4 C2.01 4 1.02 4 0 4 C0 3.34 0 2.68 0 2 C-0.99 2 -1.98 2 -3 2 C-3 2.66 -3 3.32 -3 4 C-4.98 4 -6.96 4 -9 4 C-9.33 3.01 -9.66 2.02 -10 1 C-6.7 0.67 -3.4 0.34 0 0 Z " fill="#8DA694" transform="translate(197,45)"/>
<path d="M0 0 C0.99 0 1.98 0 3 0 C3 0.99 3 1.98 3 3 C3.99 3.33 4.98 3.66 6 4 C5.01 4.33 4.02 4.66 3 5 C3 5.66 3 6.32 3 7 C2.34 7 1.68 7 1 7 C0.67 4.69 0.34 2.38 0 0 Z " fill="#7E7C71" transform="translate(34,0)"/>
<path d="M0 0 C1.32 0.33 2.64 0.66 4 1 C3.01 1 2.02 1 1 1 C1 1.66 1 2.32 1 3 C1.66 3.33 2.32 3.66 3 4 C-0.47823115 5.15941038 -2.45895578 4.70820884 -6 4 C-5.67 3.01 -5.34 2.02 -5 1 C-3.35 1.33 -1.7 1.66 0 2 C0 1.34 0 0.68 0 0 Z " fill="#C3CBBA" transform="translate(110,45)"/>
<path d="M0 0 C2.97 0 5.94 0 9 0 C8.01 1.485 8.01 1.485 7 3 C5.0546875 3.29296875 5.0546875 3.29296875 2.875 3.1875 C1.59625 3.125625 0.3175 3.06375 -1 3 C-0.67 2.01 -0.34 1.02 0 0 Z " fill="#9FAD9F" transform="translate(130,46)"/>
<path d="M0 0 C2.97 0 5.94 0 9 0 C8.01 0.495 8.01 0.495 7 1 C7 1.66 7 2.32 7 3 C4.69 2.67 2.38 2.34 0 2 C0 1.34 0 0.68 0 0 Z " fill="#9EB29E" transform="translate(11,46)"/>
<path d="M0 0 C2.64 0 5.28 0 8 0 C7.67 0.99 7.34 1.98 7 3 C5.35 2.67 3.7 2.34 2 2 C2.33 2.99 2.66 3.98 3 5 C2.01 4.67 1.02 4.34 0 4 C0 2.68 0 1.36 0 0 Z " fill="#E9EBDD" transform="translate(148,45)"/>
<path d="M0 0 C3.3 0 6.6 0 10 0 C9.67 1.65 9.34 3.3 9 5 C8.01 5 7.02 5 6 5 C6 4.01 6 3.02 6 2 C3.03 1.505 3.03 1.505 0 1 C0 0.67 0 0.34 0 0 Z " fill="#93A292" transform="translate(198,44)"/>
<path d="M0 0 C0.99 0 1.98 0 3 0 C3 1.98 3 3.96 3 6 C1.68 6 0.36 6 -1 6 C-1.042721 4.33388095 -1.04063832 2.66617115 -1 1 C-0.67 0.67 -0.34 0.34 0 0 Z " fill="#828177" transform="translate(12,2)"/>
<path d="M0 0 C1.32 0.33 2.64 0.66 4 1 C3.67 1.33 3.34 1.66 3 2 C3.66 2.66 4.32 3.32 5 4 C4.34 4.66 3.68 5.32 3 6 C2.01 6 1.02 6 0 6 C0 4.02 0 2.04 0 0 Z " fill="#706E65" transform="translate(98,0)"/>
<path d="M0 0 C1.98 0 3.96 0 6 0 C6 0.99 6 1.98 6 3 C3.69 3 1.38 3 -1 3 C-0.67 2.01 -0.34 1.02 0 0 Z " fill="#C9C9C4" transform="translate(14,102)"/>
<path d="M0 0 C2.64 0 5.28 0 8 0 C8 0.66 8 1.32 8 2 C5.29120665 3.35439668 2.99066732 3.06501451 0 3 C0 2.01 0 1.02 0 0 Z " fill="#BFBFB9" transform="translate(162,45)"/>
<path d="M0 0 C1.98 0 3.96 0 6 0 C6 0.99 6 1.98 6 3 C4.02 3 2.04 3 0 3 C0 2.01 0 1.02 0 0 Z " fill="#F6F5F4" transform="translate(7,102)"/>
<path d="M0 0 C1.32 0 2.64 0 4 0 C4.66 1.32 5.32 2.64 6 4 C4.02 4 2.04 4 0 4 C0 2.68 0 1.36 0 0 Z " fill="#929285" transform="translate(98,21)"/>
<path d="M0 0 C0.33 1.32 0.66 2.64 1 4 C2.32 4.33 3.64 4.66 5 5 C3.68 5 2.36 5 1 5 C0.67 5.66 0.34 6.32 0 7 C-0.66 7 -1.32 7 -2 7 C-2 5.68 -2 4.36 -2 3 C-1.34 3 -0.68 3 0 3 C0 2.01 0 1.02 0 0 Z " fill="#5D6866" transform="translate(73,10)"/>
</svg>
