<?xml version="1.0" encoding="UTF-8"?>
<svg version="1.1" xmlns="http://www.w3.org/2000/svg" width="392" height="274">
<path d="M0 0 C129.36 0 258.72 0 392 0 C392 90.42 392 180.84 392 274 C262.64 274 133.28 274 0 274 C0 183.58 0 93.16 0 0 Z " fill="#F0ECE4" transform="translate(0,0)"/>
<path d="M0 0 C44.55 0 89.1 0 135 0 C135 90.42 135 180.84 135 274 C50.19 274 -34.62 274 -122 274 C-120.68 272.02 -119.36 270.04 -118 268 C-117.30570621 266.6808418 -116.62469505 265.35350594 -116 264 C-116.59167969 263.55269531 -117.18335938 263.10539062 -117.79296875 262.64453125 C-124.63739377 257.40793201 -124.63739377 257.40793201 -127.5 254.1875 C-130.13199316 251.88450599 -130.84475579 251.69750263 -134.125 251.1875 C-139.47199032 250.24339445 -142.81731106 247.48708722 -147.04296875 244.20703125 C-150.10985805 241.91800555 -153.26253194 239.9974989 -156.5625 238.0625 C-161.73537896 234.93683815 -166.02165798 231.4848976 -170.4140625 227.35546875 C-178.06404897 220.38727866 -186.57477059 214.52869106 -195.21484375 208.87109375 C-199.31494413 206.11660836 -203.15922398 203.10047377 -207 200 C-207.69609375 199.48566406 -208.3921875 198.97132813 -209.109375 198.44140625 C-213.79608903 194.83263644 -213.79608903 194.83263644 -214.75 190.9375 C-213.78183451 187.1455185 -211.80178201 185.64563174 -209 183 C-196.24321157 191.87751938 -183.55527345 200.83944164 -171 210 C-170.24396484 210.55123535 -169.48792969 211.1024707 -168.70898438 211.67041016 C-157.62524216 219.763783 -146.67248856 228.01926718 -135.7734375 236.359375 C-131.93544011 239.29404805 -128.07011318 242.18721467 -124.1875 245.0625 C-120.12314789 248.07742596 -116.3564979 251.26707111 -112.71875 254.78515625 C-110.80638554 256.38479543 -110.80638554 256.38479543 -107 256 C-105.02369236 254.17937774 -105.02369236 254.17937774 -103.25 251.6875 C-102.63640625 250.88699219 -102.0228125 250.08648437 -101.390625 249.26171875 C-101.04064453 248.77791748 -100.69066406 248.29411621 -100.33007812 247.7956543 C-99.28417136 246.38364177 -98.19548415 245.00331026 -97.09179688 243.63598633 C-91.77668915 236.83016083 -89.16641617 230.61719816 -87 222.3125 C-84.55982114 213.61963303 -81.88240114 205.63954081 -77.34960938 197.80786133 C-75.74334523 194.96203257 -74.96193214 193.38954367 -75.28515625 190.08203125 C-75.63900391 189.05142578 -75.63900391 189.05142578 -76 188 C-75.01 188 -74.02 188 -73 188 C-72.34 186.68 -71.68 185.36 -71 184 C-72.32 184.33 -73.64 184.66 -75 185 C-73.66666667 181.66666667 -72.33333333 178.33333333 -71 175 C-67.7 174.67 -64.4 174.34 -61 174 C-61.99 171.525 -61.99 171.525 -63 169 C-62.01 169.33 -61.02 169.66 -60 170 C-60 170.66 -60 171.32 -60 172 C-54.79804773 170.63499686 -50.40215134 169.15196155 -46 166 C-44.14484533 160.92131127 -44.07114048 156.40667667 -44 151 C-43.67 150.34 -43.34 149.68 -43 149 C-42.34 149 -41.68 149 -41 149 C-39.34375 151.30078125 -39.34375 151.30078125 -37.5 154.3125 C-36.8915625 155.29863281 -36.283125 156.28476563 -35.65625 157.30078125 C-34.83640625 158.63689453 -34.83640625 158.63689453 -34 160 C-33.34 160.99 -32.68 161.98 -32 163 C-30.82824219 162.86722656 -29.65648437 162.73445312 -28.44921875 162.59765625 C-27.31492432 162.47076416 -27.31492432 162.47076416 -26.15771484 162.34130859 C-24.50260475 162.15449937 -22.84797636 161.96337473 -21.19384766 161.76806641 C-16.73171227 161.25202522 -12.36901228 160.95763389 -7.875 160.875 C-1.62111394 160.34031661 1.07789062 156.50761855 5 152 C6.39471994 150.72555866 7.8110587 149.4742926 9.25 148.25 C11.39813377 146.4093442 13.39705832 144.59249278 15.375 142.5625 C17 141 17 141 19 141 C19.35384766 140.18015625 19.35384766 140.18015625 19.71484375 139.34375 C21.33559443 136.38797369 23.36590068 134.05754287 25.5625 131.5 C29.68009213 126.64027941 33.58679958 121.6754582 37.36328125 116.54296875 C39.46161143 113.69721891 41.62160786 110.90365876 43.79296875 108.11328125 C44.80097534 106.80423828 44.80097534 106.80423828 45.8293457 105.46875 C47.16359034 103.73625428 48.50679699 102.01061279 49.86010742 100.29296875 C52.81208244 96.43307665 55.14517693 93.18537262 56.39453125 88.45703125 C58.1015334 82.50536206 62.39384654 78.9934252 66.8125 74.875 C68.40459883 73.35391937 69.99448435 71.83051835 71.58203125 70.3046875 C72.33564941 69.58120117 73.08926758 68.85771484 73.86572266 68.11230469 C76.79590509 65.21228886 79.44351236 62.23574764 82 59 C82 58.34 82 57.68 82 57 C80.6068459 55.7814504 80.6068459 55.7814504 78.73730469 54.60839844 C78.02037949 54.1327243 77.30345428 53.65705017 76.56480408 53.16696167 C75.77513748 52.65295807 74.98547089 52.13895447 74.171875 51.609375 C73.35969009 51.07257111 72.54750519 50.53576721 71.71070862 49.98269653 C69.96659219 48.83072909 68.22046539 47.68180088 66.4725647 46.5355835 C61.96085778 43.57659802 57.46338518 40.59613445 52.96484375 37.6171875 C51.64742439 36.74593735 51.64742439 36.74593735 50.3033905 35.85708618 C41.70585664 30.16266785 33.26765814 24.26143662 24.85449219 18.29882812 C22.08133824 16.35659813 19.26329127 14.48987988 16.4375 12.625 C10.84069444 8.92839376 5.2670957 5.15768775 0 1 C0 0.67 0 0.34 0 0 Z " fill="#59676B" transform="translate(257,0)"/>
<path d="M0 0 C60.06 0 120.12 0 182 0 C180.02 2.31 178.04 4.62 176 7 C174.95799797 8.33335421 173.93017642 9.67818906 172.9296875 11.04296875 C172.42566406 11.72423828 171.92164063 12.40550781 171.40234375 13.10742188 C170.37578728 14.50548152 169.34975376 15.90392528 168.32421875 17.30273438 C165.73496542 20.80055603 163.14267915 23.97186041 160 27 C159.566875 27.7425 159.13375 28.485 158.6875 29.25 C156.24688382 33.22730045 153.12545566 36.54915443 150 40 C150.33 40.66 150.66 41.32 151 42 C150.13761719 42.66 149.27523437 43.32 148.38671875 44 C144.54920176 47.20224096 141.75669757 50.9894427 138.8125 55 C137.67279238 56.51469339 136.53083244 58.02769446 135.38671875 59.5390625 C134.82001465 60.28833008 134.25331055 61.03759766 133.66943359 61.80957031 C131.20602011 65.04176478 128.69941143 68.23056957 126.125 71.375 C124.89136719 72.90253906 124.89136719 72.90253906 123.6328125 74.4609375 C120.50792333 77.47455465 118.00391042 78.41826652 114 80 C112.63755204 81.64295195 111.30135125 83.30824337 110 85 C108.6696875 85.495 108.6696875 85.495 107.3125 86 C106.1678125 86.495 106.1678125 86.495 105 87 C104.64080332 88.66128463 104.31088368 90.32900023 104 92 C102.85336018 93.14663982 101.69884665 94.28659937 100.50390625 95.3828125 C98.6063065 97.42334834 97.26887971 99.62434516 95.8125 102 C86.78740495 116.54586903 75.34265982 130.22085218 62.19140625 141.1953125 C58.04287962 144.81377345 54.76447025 148.77264456 51.5 153.1875 C50.94393066 153.9285498 50.38786133 154.66959961 49.81494141 155.43310547 C40.50138557 167.43130069 40.50138557 167.43130069 34 181 C34.33 181.66 34.66 182.32 35 183 C36.97536745 182.65213292 36.97536745 182.65213292 39 182 C39.33 181.34 39.66 180.68 40 180 C42.375 180.3125 42.375 180.3125 45 181 C45.66 181.99 46.32 182.98 47 184 C46.2575 184.804375 46.2575 184.804375 45.5 185.625 C43.54224065 188.72478563 43.54440205 190.37777074 44 194 C45.95055765 196.46646412 45.95055765 196.46646412 48.8125 198.5625 C49.59645142 199.18596313 49.59645142 199.18596313 50.39624023 199.82202148 C56.07644505 204.24589483 62.08657603 208.22184255 68.05541992 212.24121094 C75.16088641 217.04310467 81.88181258 222.11562908 88.1328125 228.01171875 C93.17364885 232.74564071 98.44281591 236.25657704 104.40332031 239.69726562 C108.27956013 241.93739211 111.90597835 244.31682964 115.5 247 C118.58990849 249.24859678 119.73267318 249.96773642 123.625 250.4375 C128.24031462 251.2067191 129.90565831 253.56161332 133 256.921875 C135.73730913 259.76611026 138.72265801 261.81510534 142 264 C140.23760158 268.16566899 138.15395214 270.21525743 135 274 C90.45 274 45.9 274 0 274 C0 183.58 0 93.16 0 0 Z " fill="#D0CABD" transform="translate(0,0)"/>
<path d="M0 0 C22.44 0 44.88 0 68 0 C68 90.42 68 180.84 68 274 C41.6 274 15.2 274 -12 274 C-27.00679245 237.1651458 -27.00679245 237.1651458 -19.0546875 213.14453125 C-18 211 -18 211 -15 209 C-15.66 209 -16.32 209 -17 209 C-15.21898676 193.89209461 -9.94789281 179.3197839 -5 165 C-4.01 165 -3.02 165 -2 165 C-2.22816406 164.31550781 -2.45632813 163.63101563 -2.69140625 162.92578125 C-3.10177268 159.03509189 -1.68722184 156.53991937 0.0625 153.1875 C2.69808891 147.89868627 4.89557918 142.64881734 6.8125 137.0625 C11.26249767 124.50945273 19.29438496 113.74676444 27 103 C29.51314858 99.44692787 31.39753849 96.053285 33 92 C33.82777584 90.60086373 34.66180476 89.2054192 35.5 87.8125 C37.86059023 83.67111363 38.78754491 79.93457337 39.53125 75.2578125 C40 73 40 73 41.625 70.1875 C43.85397001 65.02034225 43.39881292 59.55270299 43 54 C42.67 53.34 42.34 52.68 42 52 C41.87637761 49.73167291 41.82439352 47.45916213 41.8125 45.1875 C41.79832031 43.96417969 41.78414063 42.74085937 41.76953125 41.48046875 C41.98852521 38.17328877 42.57317147 35.9608102 44 33 C39.22088926 30.15978993 39.22088926 30.15978993 34.125 28 C33.42375 27.67 32.7225 27.34 32 27 C31.6278958 25.67696283 31.29369827 24.34262065 31 23 C28.19982126 21.09987871 25.3063908 20.55106513 22 20 C22 19.01 22 18.02 22 17 C20.10988445 15.3357543 20.10988445 15.3357543 17.6875 13.875 C16.88699219 13.35679688 16.08648437 12.83859375 15.26171875 12.3046875 C12.95631021 10.8742603 12.95631021 10.8742603 10 10 C8.66666667 8.66666667 7.33333333 7.33333333 6 6 C5.01 5.67 4.02 5.34 3 5 C1.3125 3.5625 1.3125 3.5625 0 2 C0 1.34 0 0.68 0 0 Z " fill="#CCC8BE" transform="translate(324,0)"/>
<path d="M0 0 C0.66 0 1.32 0 2 0 C3.65625 2.30078125 3.65625 2.30078125 5.5 5.3125 C6.1084375 6.29863281 6.716875 7.28476563 7.34375 8.30078125 C7.8903125 9.19152344 8.436875 10.08226562 9 11 C9.99 12.485 9.99 12.485 11 14 C11.55872803 13.93417725 12.11745605 13.86835449 12.69311523 13.80053711 C15.27350105 13.50252372 17.85536602 13.21994938 20.4375 12.9375 C21.31599609 12.83373047 22.19449219 12.72996094 23.09960938 12.62304688 C29.83939744 11.90181494 36.80736419 11.19546672 42.875 14.625 C48.60739495 21.03179435 48.5333572 28.16751841 48.9375 36.375 C49.69857955 48.50306142 51.23782867 59.84678107 55.59765625 71.265625 C56.99509922 74.98694944 57.67792871 77.10190992 57 81 C53.77760177 86.26325044 50.08185256 88.16911467 44.5625 90.70703125 C41.30029374 92.35305301 38.6083406 94.45826866 35.75390625 96.71875 C33.64328979 98.26058118 31.42999513 99.07088421 29 100 C28.34 100.99 27.68 101.98 27 103 C26.34 103 25.68 103 25 103 C24.67 102.34 24.34 101.68 24 101 C23.85304687 102.04800781 23.85304687 102.04800781 23.703125 103.1171875 C23.55359375 104.02726562 23.4040625 104.93734375 23.25 105.875 C23.11078125 106.77992188 22.9715625 107.68484375 22.828125 108.6171875 C22 111 22 111 20.16186523 111.98852539 C19.09174194 112.48920532 19.09174194 112.48920532 18 113 C16.83744542 113.82362027 15.69783642 114.6804817 14.58203125 115.56640625 C13.96779297 116.05173828 13.35355469 116.53707031 12.72070312 117.03710938 C12.09099609 117.54048828 11.46128906 118.04386719 10.8125 118.5625 C10.17119141 119.06974609 9.52988281 119.57699219 8.86914062 120.09960938 C5.83827773 122.43918865 5.83827773 122.43918865 3 125 C0.44410112 125.09506052 -2.08467972 125.12556761 -4.64086914 125.11352539 C-5.84077736 125.11374443 -5.84077736 125.11374443 -7.06492615 125.1139679 C-9.72169665 125.11326855 -12.37839793 125.10547518 -15.03515625 125.09765625 C-16.87218691 125.09579215 -18.70921806 125.09436821 -20.54624939 125.09336853 C-25.39109662 125.08954275 -30.23591408 125.07971196 -35.08074951 125.06866455 C-40.02062578 125.05845172 -44.96050685 125.05387119 -49.90039062 125.04882812 C-59.60027353 125.03808974 -69.30013429 125.0210126 -79 125 C-78.36578125 124.05898438 -77.7315625 123.11796875 -77.078125 122.1484375 C-75.51843814 119.78545327 -74.18093974 117.55870278 -73 115 C-73.59167969 114.55269531 -74.18335938 114.10539062 -74.79296875 113.64453125 C-81.63739377 108.40793201 -81.63739377 108.40793201 -84.5 105.1875 C-87.13199316 102.88450599 -87.84475579 102.69750263 -91.125 102.1875 C-96.47199032 101.24339445 -99.81731106 98.48708722 -104.04296875 95.20703125 C-107.10985805 92.91800555 -110.26253194 90.9974989 -113.5625 89.0625 C-118.73537896 85.93683815 -123.02165798 82.4848976 -127.4140625 78.35546875 C-135.06404897 71.38727866 -143.57477059 65.52869106 -152.21484375 59.87109375 C-156.31494413 57.11660836 -160.15922398 54.10047377 -164 51 C-164.69609375 50.48566406 -165.3921875 49.97132813 -166.109375 49.44140625 C-170.79608903 45.83263644 -170.79608903 45.83263644 -171.75 41.9375 C-170.78183451 38.1455185 -168.80178201 36.64563174 -166 34 C-153.24321157 42.87751938 -140.55527345 51.83944164 -128 61 C-127.24396484 61.55123535 -126.48792969 62.1024707 -125.70898438 62.67041016 C-114.62524216 70.763783 -103.67248856 79.01926718 -92.7734375 87.359375 C-88.93544011 90.29404805 -85.07011318 93.18721467 -81.1875 96.0625 C-77.12314789 99.07742596 -73.3564979 102.26707111 -69.71875 105.78515625 C-67.80638554 107.38479543 -67.80638554 107.38479543 -64 107 C-62.02369236 105.17937774 -62.02369236 105.17937774 -60.25 102.6875 C-59.63640625 101.88699219 -59.0228125 101.08648437 -58.390625 100.26171875 C-58.04064453 99.77791748 -57.69066406 99.29411621 -57.33007812 98.7956543 C-56.28417136 97.38364177 -55.19548415 96.00331026 -54.09179688 94.63598633 C-48.77668915 87.83016083 -46.16641617 81.61719816 -44 73.3125 C-41.55982114 64.61963303 -38.88240114 56.63954081 -34.34960938 48.80786133 C-32.74334523 45.96203257 -31.96193214 44.38954367 -32.28515625 41.08203125 C-32.63900391 40.05142578 -32.63900391 40.05142578 -33 39 C-32.01 39 -31.02 39 -30 39 C-29.34 37.68 -28.68 36.36 -28 35 C-29.32 35.33 -30.64 35.66 -32 36 C-30.66666667 32.66666667 -29.33333333 29.33333333 -28 26 C-24.7 25.67 -21.4 25.34 -18 25 C-18.99 22.525 -18.99 22.525 -20 20 C-19.01 20.33 -18.02 20.66 -17 21 C-17 21.66 -17 22.32 -17 23 C-11.79804773 21.63499686 -7.40215134 20.15196155 -3 17 C-1.14484533 11.92131127 -1.07114048 7.40667667 -1 2 C-0.67 1.34 -0.34 0.68 0 0 Z " fill="#DBAA86" transform="translate(214,149)"/>
<path d="M0 0 C19.23632091 -2.18849625 19.23632091 -2.18849625 27.33740234 3.68383789 C29.95043813 5.82356531 32.49478424 8.02739732 35.00683594 10.28466797 C38.43346038 13.23364682 42.15579123 15.75008545 45.875 18.3125 C47.20625419 19.24534494 48.53699426 20.17892406 49.8671875 21.11328125 C51.24472429 22.07561728 52.62233196 23.03785186 54 24 C55.62508778 25.13789548 57.25008342 26.27592255 58.875 27.4140625 C62.27088328 29.79144087 65.66950548 32.16482722 69.0703125 34.53515625 C70.75520833 35.7109375 72.44010417 36.88671875 74.125 38.0625 C74.96675781 38.64837891 75.80851562 39.23425781 76.67578125 39.83789062 C81.28949247 43.06033544 85.83436976 46.34110863 90.28588867 49.78491211 C92.16214158 51.19043904 92.16214158 51.19043904 95.1875 52.5 C98.83636502 54.44606134 100.519376 56.71682117 103 60 C101.47938343 64.96547015 98.52138295 68.1542389 95.125 71.9375 C91.39256532 76.12854284 88.05570749 80.27230162 85 85 C83.69961555 86.73829626 82.38647078 88.46710034 81.0625 90.1875 C75.85572897 97.0841127 71.00837187 104.20923487 66.1640625 111.36328125 C64.2386015 114.2027269 62.28673982 117.01514963 60.2734375 119.79296875 C56.42100739 125.13108599 53.45843498 129.79271487 51.7421875 136.1875 C50.43771333 139.37316324 47.96839019 140.54738352 45 142 C44.34 142 43.68 142 43 142 C42.7834375 142.66128906 42.566875 143.32257813 42.34375 144.00390625 C40.54093994 148.02354379 38.07447728 151.37706978 35.5 154.9375 C34.69695435 156.06248901 34.69695435 156.06248901 33.87768555 157.21020508 C31.3646677 160.72738716 28.83327375 164.23120441 26.30078125 167.734375 C25.47119096 168.88529904 24.64175938 170.03633751 23.8125 171.1875 C23.41015137 171.74252197 23.00780273 172.29754395 22.59326172 172.86938477 C20.45763301 175.84552295 18.43834262 178.8594741 16.51953125 181.98046875 C16.11694092 182.63184814 15.71435059 183.28322754 15.29956055 183.9543457 C14.53378865 185.20654432 13.78064317 186.46657941 13.04223633 187.73510742 C12.0078125 189.4296875 12.0078125 189.4296875 10 192 C8.68 192 7.36 192 6 192 C4.84117437 188.26914675 4.82517737 184.63643537 4.6875 180.75 C4.37032948 174.58304364 3.45270736 170.17906104 0 165 C-3.03525486 162.97649676 -4.19426202 162.67875982 -7.6875 162.375 C-8.49574219 162.30023438 -9.30398437 162.22546875 -10.13671875 162.1484375 C-11.05904297 162.07496094 -11.05904297 162.07496094 -12 162 C-12 161.67 -12 161.34 -12 161 C-10.68 161 -9.36 161 -8 161 C-2.68877395 160.41817555 -0.45300476 158.06292746 3.01953125 154.1953125 C4.9786488 152.0236674 7.02758955 150.14788101 9.25 148.25 C11.39813377 146.4093442 13.39705832 144.59249278 15.375 142.5625 C17 141 17 141 19 141 C19.23589844 140.4534375 19.47179687 139.906875 19.71484375 139.34375 C21.33559443 136.38797369 23.36590068 134.05754287 25.5625 131.5 C29.68009213 126.64027941 33.58679958 121.6754582 37.36328125 116.54296875 C39.46161143 113.69721891 41.62160786 110.90365876 43.79296875 108.11328125 C44.46497314 107.24058594 45.13697754 106.36789063 45.8293457 105.46875 C47.16359034 103.73625428 48.50679699 102.01061279 49.86010742 100.29296875 C52.81208244 96.43307665 55.14517693 93.18537262 56.39453125 88.45703125 C58.1015334 82.50536206 62.39384654 78.9934252 66.8125 74.875 C68.40459883 73.35391937 69.99448435 71.83051835 71.58203125 70.3046875 C72.33564941 69.58120117 73.08926758 68.85771484 73.86572266 68.11230469 C76.79590509 65.21228886 79.44351236 62.23574764 82 59 C82 58.34 82 57.68 82 57 C80.6068459 55.7814504 80.6068459 55.7814504 78.73730469 54.60839844 C78.02037949 54.1327243 77.30345428 53.65705017 76.56480408 53.16696167 C75.77513748 52.65295807 74.98547089 52.13895447 74.171875 51.609375 C73.35969009 51.07257111 72.54750519 50.53576721 71.71070862 49.98269653 C69.96659219 48.83072909 68.22046539 47.68180088 66.4725647 46.5355835 C61.96085778 43.57659802 57.46338518 40.59613445 52.96484375 37.6171875 C52.08656418 37.03635406 51.20828461 36.45552063 50.3033905 35.85708618 C41.70585664 30.16266785 33.26765814 24.26143662 24.85449219 18.29882812 C22.08133824 16.35659813 19.26329127 14.48987988 16.4375 12.625 C10.84069444 8.92839376 5.2670957 5.15768775 0 1 C0 0.67 0 0.34 0 0 Z " fill="#212F39" transform="translate(257,0)"/>
<path d="M0 0 C15.18 0 30.36 0 46 0 C46 0.66 46 1.32 46 2 C46.99 2.33 47.98 2.66 49 3 C49 3.66 49 4.32 49 5 C49.598125 5.12375 50.19625 5.2475 50.8125 5.375 C53 6 53 6 56 8 C56 8.66 56 9.32 56 10 C56.56203125 10.10183594 57.1240625 10.20367187 57.703125 10.30859375 C60.45339488 11.13648111 62.39095874 12.43198618 64.75 14.0625 C65.54921875 14.61035156 66.3484375 15.15820312 67.171875 15.72265625 C67.77515625 16.14417969 68.3784375 16.56570312 69 17 C68.505 18.485 68.505 18.485 68 20 C68.99 19.67 69.98 19.34 71 19 C73.75763075 20.60861794 76.21446951 22.21030224 78.47265625 24.48046875 C82.02758628 28.017215 86.41234131 30.98143018 91 33 C90.67386719 33.67675781 90.34773438 34.35351562 90.01171875 35.05078125 C88.80210919 38.57686316 88.76936936 41.46650189 88.8125 45.1875 C88.81894531 46.41855469 88.82539063 47.64960937 88.83203125 48.91796875 C88.79021867 51.91200187 88.79021867 51.91200187 90 54 C90.61405733 61.10695864 90.68764918 66.96198775 86.95703125 73.14453125 C85.32251122 76.31349865 85.2516282 79.47720519 85 83 C84.34 82.01 83.68 81.02 83 80 C82.443125 80.721875 81.88625 81.44375 81.3125 82.1875 C79.01545684 84.98120114 76.55659824 87.44340176 74 90 C72.8040901 91.34674538 71.61708856 92.70143628 70.4375 94.0625 C63.45101351 102.09242278 63.45101351 102.09242278 59 104 C59.0825 104.763125 59.165 105.52625 59.25 106.3125 C59 109 59 109 57.25 110.5625 C56.5075 111.036875 55.765 111.51125 55 112 C52.88381825 113.98792831 51.07613332 115.89458463 49.375 118.25 C48.92125 118.8275 48.4675 119.405 48 120 C47.34 120 46.68 120 46 120 C45.76796875 120.70382813 45.5359375 121.40765625 45.296875 122.1328125 C43.73807832 125.57906781 41.71022264 128.00474025 39.25 130.875 C38.80479004 131.39803711 38.35958008 131.92107422 37.90087891 132.45996094 C36.60645901 133.97833379 35.30340133 135.48932996 34 137 C33.34257812 137.77085937 32.68515625 138.54171875 32.0078125 139.3359375 C30.6774772 140.89542146 29.3398063 142.44864533 28 144 C26.68 143.67 25.36 143.34 24 143 C24.8125 141.0625 24.8125 141.0625 26 139 C26.99 138.67 27.98 138.34 29 138 C29.96493493 135.8087356 29.96493493 135.8087356 30.6875 133.125 C32.54348745 127.70939482 35.06252193 123.78721545 38.53515625 119.2734375 C41.66949569 115.18743898 44.49655499 110.8928225 47.375 106.625 C52.65138878 98.84995139 58.19393221 91.38565976 64 84 C64.98407699 82.6911776 65.96387042 81.37911272 66.9375 80.0625 C71.49654339 73.94413163 76.27294777 67.98872097 81 62 C80.68546875 61.38382813 80.3709375 60.76765625 80.046875 60.1328125 C79 58 79 58 78.25 55.875 C77.10461158 53.72700397 77.10461158 53.72700397 74.36328125 53.19921875 C70.25775313 51.73534287 67.36476592 49.57416921 63.9375 46.9375 C62.60132263 45.93348065 61.26406528 44.9308971 59.92578125 43.9296875 C59.26271973 43.43178711 58.5996582 42.93388672 57.91650391 42.42089844 C55.19464934 40.40291199 52.41820379 38.48085128 49.625 36.5625 C38.46350974 28.88982721 27.4213149 21.04969856 16.4375 13.125 C15.71216064 12.60196289 14.98682129 12.07892578 14.23950195 11.54003906 C12.15531052 10.03256119 10.07622634 8.51842689 8 7 C7.23961426 6.44538086 6.47922852 5.89076172 5.69580078 5.31933594 C4.96216309 4.77825195 4.22852539 4.23716797 3.47265625 3.6796875 C2.8062915 3.18968262 2.13992676 2.69967773 1.45336914 2.19482422 C0.97375732 1.80053223 0.49414551 1.40624023 0 1 C0 0.67 0 0.34 0 0 Z " fill="#5F6B6E" transform="translate(278,0)"/>
<path d="M0 0 C4.65092021 2.57994442 8.99741462 5.31314636 13.3125 8.4375 C13.90587158 8.86579102 14.49924316 9.29408203 15.1105957 9.73535156 C16.39800183 10.66508045 17.68434478 11.59628298 18.96972656 12.52880859 C21.05691181 14.04123984 23.14896273 15.54672175 25.2421875 17.05078125 C41.74865836 28.92122066 58.0798983 41.00371948 74.2265625 53.359375 C78.06455989 56.29404805 81.92988682 59.18721467 85.8125 62.0625 C89.87685211 65.07742596 93.6435021 68.26707111 97.28125 71.78515625 C99.19361446 73.38479543 99.19361446 73.38479543 103 73 C104.97630764 71.17937774 104.97630764 71.17937774 106.75 68.6875 C107.36359375 67.88699219 107.9771875 67.08648437 108.609375 66.26171875 C108.9595166 65.77759521 109.3096582 65.29347168 109.67041016 64.79467773 C110.71431219 63.38562084 111.80141623 62.0085583 112.90380859 60.64477539 C118.26832679 53.78195187 120.92316965 47.44031637 123.125 39.0625 C125.54743482 30.11853214 128.56926784 22.15795455 133 14 C134 17 134 17 133.13354492 19.28833008 C132.69115479 20.16900146 132.24876465 21.04967285 131.79296875 21.95703125 C129.04346725 27.74020327 127.07376093 33.5390891 125.3125 39.6875 C125.01069824 40.7405835 124.70889648 41.79366699 124.39794922 42.87866211 C119.9792336 58.79212473 119.58711414 74.56080416 119 91 C108.77 91 98.54 91 88 91 C89.32 89.02 90.64 87.04 92 85 C92.69429379 83.6808418 93.37530495 82.35350594 94 81 C93.40832031 80.55269531 92.81664062 80.10539062 92.20703125 79.64453125 C85.36260623 74.40793201 85.36260623 74.40793201 82.5 71.1875 C79.86800684 68.88450599 79.15524421 68.69750263 75.875 68.1875 C70.52800968 67.24339445 67.18268894 64.48708722 62.95703125 61.20703125 C59.89014195 58.91800555 56.73746806 56.9974989 53.4375 55.0625 C48.26462104 51.93683815 43.97834202 48.4848976 39.5859375 44.35546875 C31.93595103 37.38727866 23.42522941 31.52869106 14.78515625 25.87109375 C10.68505587 23.11660836 6.84077602 20.10047377 3 17 C2.30390625 16.48566406 1.6078125 15.97132813 0.890625 15.44140625 C-3.81663274 11.81681779 -3.81663274 11.81681779 -4.6875 7.9375 C-3.86699343 4.43169921 -2.44722882 2.60018062 0 0 Z " fill="#27323B" transform="translate(47,183)"/>
<path d="M0 0 C9.78669163 0.3427913 9.78669163 0.3427913 14 2.625 C19.51993814 9.17992654 19.53293495 16.14924059 19.9375 24.375 C20.66942729 36.12704872 21.55311592 48.34724441 27 59 C27.125 61.75 27.125 61.75 27 64 C26.01 64.33 25.02 64.66 24 65 C23.505 66.485 23.505 66.485 23 68 C20.69 67.67 18.38 67.34 16 67 C16.2475 65.6078125 16.2475 65.6078125 16.5 64.1875 C17.16600973 59.94168796 17.10152706 57.70857716 15 54 C14.505 53.505 14.505 53.505 14 53 C10.51331568 53.99619552 7.97998501 55.01417728 5 57.125 C1.64289531 59.22319043 -0.12142796 59.36938781 -4 59 C-5.5625 56.1875 -5.5625 56.1875 -7 53 C-6.67 52.01 -6.34 51.02 -6 50 C-6.66 49.67 -7.32 49.34 -8 49 C-8 48.01 -8 47.02 -8 46 C-3.05 45.505 -3.05 45.505 2 45 C2 44.34 2 43.68 2 43 C-1.3 43.66 -4.6 44.32 -8 45 C-8.38323492 39.66892854 -8.71343471 34.33712747 -9 29 C-9.06832031 27.77539062 -9.13664063 26.55078125 -9.20703125 25.2890625 C-9.41841905 18.57162806 -9.05634533 14.45071403 -5 9 C-5.33 9.33 -5.66 9.66 -6 10 C-7.49738124 10.0979057 -8.99942892 10.12974864 -10.5 10.125 C-11.3146875 10.12757813 -12.129375 10.13015625 -12.96875 10.1328125 C-15 10 -15 10 -16 9 C-16 7.35 -16 5.7 -16 4 C-10.72 3.01 -5.44 2.02 0 1 C0 0.67 0 0.34 0 0 Z " fill="#D6A683" transform="translate(243,161)"/>
<path d="M0 0 C0 0.33 0 0.66 0 1 C-5.61 1.66 -11.22 2.32 -17 3 C-16.67 4.65 -16.34 6.3 -16 8 C-14.54176788 8.0270043 -13.08339325 8.04639787 -11.625 8.0625 C-10.40683594 8.07990234 -10.40683594 8.07990234 -9.1640625 8.09765625 C-6.95062858 8.14466334 -6.95062858 8.14466334 -5 7 C-6.12451727 9.9719385 -7.22293791 12.33440687 -9 15 C-9.27710363 18.10479949 -9.27710363 18.10479949 -9.1953125 21.63671875 C-9.18564453 23.58481445 -9.18564453 23.58481445 -9.17578125 25.57226562 C-9.1590706 26.94401307 -9.14214071 28.31575786 -9.125 29.6875 C-9.11496674 31.07095718 -9.10584149 32.45442127 -9.09765625 33.83789062 C-9.07404967 37.22543452 -9.04112037 40.61263072 -9 44 C-7.84951172 43.50886719 -7.84951172 43.50886719 -6.67578125 43.0078125 C-3.90281247 41.96339506 -1.93226553 41.83244197 1 42 C1 42.66 1 43.32 1 44 C-3.95 44.495 -3.95 44.495 -9 45 C-9 45.99 -9 46.98 -9 48 C-7.35 48.33 -5.7 48.66 -4 49 C-5.98 49.495 -5.98 49.495 -8 50 C-7.505 53.465 -7.505 53.465 -7 57 C-9.62148526 52.57260267 -10.34056529 47.51604313 -11.41210938 42.55078125 C-12.24531676 38.82624465 -13.20344438 35.29588327 -14.5859375 31.734375 C-16.14077452 27.62823083 -16.61347577 24.32907138 -17 20 C-19.82520394 29.14634368 -13.6400327 42.95006242 -10.3125 51.5625 C-9.22239892 54.41752665 -8.46987823 56.99277932 -8 60 C-7.34 59.34 -6.68 58.68 -6 58 C-4.47508002 61.04983996 -4.76437452 63.6423369 -5 67 C-6.0625 68.9375 -6.0625 68.9375 -8 70 C-11.375 70.5 -11.375 70.5 -15 70 C-19.48391603 66.3979434 -20.92149009 63.20002076 -22.3125 57.6875 C-22.80169922 55.80611328 -22.80169922 55.80611328 -23.30078125 53.88671875 C-23.53152344 52.93410156 -23.76226562 51.98148438 -24 51 C-24.58007812 51.30035156 -25.16015625 51.60070312 -25.7578125 51.91015625 C-29.33902076 53.6534837 -32.17278937 54.96756037 -36.1875 55.125 C-39.89694726 53.64122109 -42.91174832 51.46958547 -45 48 C-44.66015625 45.80078125 -44.66015625 45.80078125 -44 44 C-43.67 44.66 -43.34 45.32 -43 46 C-42.67128906 45.11699219 -42.34257812 44.23398438 -42.00390625 43.32421875 C-38.20039842 33.72783449 -33.44241947 26.12862231 -25.83203125 18.95703125 C-23.92314262 16.91789862 -23.16660242 15.44392538 -22.3125 12.8125 C-21.06944444 9.06944444 -21.06944444 9.06944444 -20 8 C-19.95907063 5.66702567 -19.95758277 3.33294775 -20 1 C-13.29980211 0.29867087 -6.73742646 -0.11044961 0 0 Z " fill="#2F3E47" transform="translate(244,162)"/>
<path d="M0 0 C4.24994263 -0.05805933 8.49978324 -0.09361654 12.75 -0.125 C13.9565625 -0.14175781 15.163125 -0.15851562 16.40625 -0.17578125 C17.56640625 -0.18222656 18.7265625 -0.18867187 19.921875 -0.1953125 C20.99018555 -0.20578613 22.05849609 -0.21625977 23.15917969 -0.22705078 C27.98820172 0.15890578 30.07153753 2.02239477 33.31640625 5.44921875 C35.55779283 7.51379061 38.00665254 9.18713662 40.5 10.9375 C46.37551653 15.12086777 46.37551653 15.12086777 48.625 18.0625 C54.19959493 24.95739373 63.30454697 31.74590832 71.5859375 35.0234375 C74.94707593 36.38312133 76.76384517 38.17192184 79 41 C79.18545667 44.70913348 78.02025696 45.97481567 75.6875 48.875 C73 51 73 51 71.05322266 50.77392578 C68.93075065 49.97389769 67.31542273 49.0436433 65.4609375 47.7421875 C64.80359619 47.28529541 64.14625488 46.82840332 63.46899414 46.35766602 C62.77797607 45.86838623 62.08695801 45.37910645 61.375 44.875 C60.65497803 44.37218506 59.93495605 43.86937012 59.19311523 43.35131836 C57.12518123 41.90587825 55.06238304 40.45334298 53 39 C51.35428076 37.85400281 49.70846831 36.70813943 48.0625 35.5625 C46.3743125 34.37597757 44.68690916 33.18833917 43 32 C42.11803955 31.3805249 42.11803955 31.3805249 41.21826172 30.74853516 C32.92323874 24.92209788 24.65749948 19.05690538 16.4375 13.125 C15.71240234 12.60212402 14.98730469 12.07924805 14.24023438 11.54052734 C12.15578564 10.03290417 10.07646333 8.51860022 8 7 C7.23961426 6.44538086 6.47922852 5.89076172 5.69580078 5.31933594 C4.96216309 4.77825195 4.22852539 4.23716797 3.47265625 3.6796875 C2.8062915 3.18968262 2.13992676 2.69967773 1.45336914 2.19482422 C0.97375732 1.80053223 0.49414551 1.40624023 0 1 C0 0.67 0 0.34 0 0 Z " fill="#DFCAB5" transform="translate(278,0)"/>
<path d="M0 0 C4.18999765 4.18999765 4.27388491 9.5094075 4.32226562 15.13476562 C4.31904297 15.97716797 4.31582031 16.81957031 4.3125 17.6875 C4.32861328 18.54150391 4.34472656 19.39550781 4.36132812 20.27539062 C4.36197266 21.09587891 4.36261719 21.91636719 4.36328125 22.76171875 C4.36626221 23.50381592 4.36924316 24.24591309 4.37231445 25.01049805 C3.90145715 27.52657422 2.83142006 28.2790203 1 30 C0.34494305 33.08086829 0.34494305 33.08086829 0.0625 36.5625 C-0.72683603 42.88371171 -2.03748193 48.34604394 -5 54 C-5.48710449 55.02496582 -5.97420898 56.04993164 -6.47607422 57.10595703 C-9 60 -9 60 -10.98324585 60.52740479 C-13.53467494 60.69602958 -16.02255512 60.67406159 -18.578125 60.5859375 C-19.5046991 60.57744781 -20.43127319 60.56895813 -21.38592529 60.56021118 C-24.34180595 60.52665632 -27.29494585 60.45137412 -30.25 60.375 C-32.2551689 60.34490305 -34.26038061 60.31752677 -36.265625 60.29296875 C-41.17813737 60.22685812 -46.08860425 60.12332245 -51 60 C-47.57979573 56.53954535 -44.10647091 53.3611342 -40.3125 50.3125 C-36.53910677 47.28629616 -36.53910677 47.28629616 -33 44 C-32.67 44 -32.34 44 -32 44 C-31.67 40.37 -31.34 36.74 -31 33 C-29 36 -29 36 -29 38 C-28.2575 37.13375 -28.2575 37.13375 -27.5 36.25 C-25.31270344 34.2814331 -23.8445079 33.34053716 -21.25 32.125 C-17.42421157 30.32546248 -14.33435246 28.04747984 -11.01953125 25.4453125 C-8.4202509 23.58509252 -5.69518396 22.30423658 -2.76171875 21.0546875 C-0.44774383 19.66938101 0.6591888 18.33910987 2 16 C2.18488876 13.60198224 2.18488876 13.60198224 1.75 11.125 C1.63269531 10.25359375 1.51539063 9.3821875 1.39453125 8.484375 C1.19923828 7.25460938 1.19923828 7.25460938 1 6 C0.814375 4.80375 0.62875 3.6075 0.4375 2.375 C0.293125 1.59125 0.14875 0.8075 0 0 Z " fill="#202D36" transform="translate(268,214)"/>
<path d="M0 0 C0.66 0 1.32 0 2 0 C2.25394531 0.97839844 2.50789062 1.95679688 2.76953125 2.96484375 C4.43095104 9.31213223 6.10982251 15.60513217 8.28125 21.80078125 C9.45394426 25.38897074 10.34227417 29.05286405 11.25390625 32.71484375 C11.86301178 35.16482543 11.86301178 35.16482543 14 37 C17.01198193 37.49032264 19.09653078 37.56441448 21.73828125 35.9140625 C22.91617765 35.01039919 24.08806869 34.09885565 25.25390625 33.1796875 C27.71710174 31.51551515 30.07578481 31.21396697 33 31 C36.80774366 35.63551402 36.80774366 35.63551402 37 39 C36.16985857 41.4481241 35.12459387 43.66084474 34 46 C36.31 46.33 38.62 46.66 41 47 C41.33 45.68 41.66 44.36 42 43 C43.98 42.505 43.98 42.505 46 42 C46.46374601 45.89546651 46.19803952 47.67653545 44.125 51.0625 C41.13799882 54.32027749 37.52912729 55.88309102 33.5625 57.70703125 C30.30029374 59.35305301 27.6083406 61.45826866 24.75390625 63.71875 C22.64328979 65.26058118 20.42999513 66.07088421 18 67 C17.34 67.99 16.68 68.98 16 70 C15.34 70 14.68 70 14 70 C13.67 69.34 13.34 68.68 13 68 C12.01 72.95 12.01 72.95 11 78 C10.34 77.34 9.68 76.68 9 76 C9.19911813 74.08846598 9.41107916 72.17697648 9.70263672 70.27734375 C10.19299365 66.52196656 10.10509161 62.78082471 10.0625 59 C10.05798828 58.22527344 10.05347656 57.45054687 10.04882812 56.65234375 C10.03719758 54.76819476 10.01926906 52.88408635 10 51 C8.35 51 6.7 51 5 51 C5 50.67 5 50.34 5 50 C6.134375 49.690625 7.26875 49.38125 8.4375 49.0625 C11.78775099 48.37075469 11.78775099 48.37075469 13 47 C13.04092937 44.66702567 13.04241723 42.33294775 13 40 C12.34 40.66 11.68 41.32 11 42 C10.75765625 41.18917969 10.5153125 40.37835938 10.265625 39.54296875 C8.61800969 34.09950124 6.93401557 28.70161104 4.9375 23.375 C2.10441292 15.69319076 -0.55115847 8.26737698 0 0 Z " fill="#C48E6F" transform="translate(225,182)"/>
<path d="M0 0 C4.65092021 2.57994442 8.99741462 5.31314636 13.3125 8.4375 C13.90587158 8.86579102 14.49924316 9.29408203 15.1105957 9.73535156 C16.39800183 10.66508045 17.68434478 11.59628298 18.96972656 12.52880859 C21.05691181 14.04123984 23.14896273 15.54672175 25.2421875 17.05078125 C41.74280891 28.9170141 58.06522805 40.99881961 74.2109375 53.34375 C79.77922258 57.60043352 85.38250253 61.80855678 91 66 C92.33360407 66.99963892 93.66703617 67.99950752 95 69 C94.34 70.65 93.68 72.3 93 74 C88.7200907 72.5775482 85.98925399 70.48157272 82.625 67.5078125 C75.82561464 61.65626957 68.49956218 56.77448704 61 51.875 C59.71049568 51.02540979 58.4214318 50.17515071 57.1328125 49.32421875 C54.61083968 47.66005026 52.08678717 45.99911927 49.56079102 44.34106445 C40.16740426 38.17122507 30.85272274 31.88630271 21.5625 25.5625 C20.47590088 24.82330322 19.38930176 24.08410645 18.26977539 23.32250977 C10.821243 18.25108553 3.38979056 13.15669282 -4 8 C-3.27633685 4.65569263 -2.18284504 2.65737657 0 0 Z " fill="#23303A" transform="translate(47,183)"/>
<path d="M0 0 C6.20501803 3.1189244 11.81123405 6.91857298 17.41796875 10.98925781 C23.46240059 15.36792672 29.66136705 19.49379913 35.88989258 23.60424805 C40.60288429 26.72170421 45.30137739 29.86094705 50 33 C50.59880981 33.39985107 51.19761963 33.79970215 51.8145752 34.21166992 C55.73 36.82738874 59.64010543 39.45085683 63.5456543 42.08129883 C64.89062353 42.98570557 66.23698169 43.88805019 67.5847168 44.78833008 C75.27572501 49.92778365 82.66102551 55.12639577 89.64819336 61.20727539 C92.02988431 63.02278008 94.17892246 64.03414381 97 65 C97.99 64.01 98.98 63.02 100 62 C100.433125 62.45375 100.86625 62.9075 101.3125 63.375 C103.10798342 65.20024334 103.10798342 65.20024334 106 67 C105.34 67 104.68 67 104 67 C103.5978125 67.8971875 103.5978125 67.8971875 103.1875 68.8125 C102.00913692 70.98316883 100.76939019 72.30817212 99 74 C89.51485977 66.57764755 89.51485977 66.57764755 86.4375 63.125 C83.8533507 60.87215189 83.10343884 60.69425671 79.875 60.1875 C74.52800968 59.24339445 71.18268894 56.48708722 66.95703125 53.20703125 C63.89014195 50.91800555 60.73746806 48.9974989 57.4375 47.0625 C52.26462104 43.93683815 47.97834202 40.4848976 43.5859375 36.35546875 C35.93595103 29.38727866 27.42522941 23.52869106 18.78515625 17.87109375 C14.686575 15.11762892 10.82921464 12.11306381 7 9 C6.30390625 8.45085937 5.6078125 7.90171875 4.890625 7.3359375 C4.24609375 6.81257812 3.6015625 6.28921875 2.9375 5.75 C2.36902344 5.29109375 1.80054688 4.8321875 1.21484375 4.359375 C0 3 0 3 0 0 Z " fill="#845B52" transform="translate(43,191)"/>
<path d="M0 0 C5.88454004 0 8.61718059 3.03387796 12.6640625 6.83203125 C15.45559246 9.42283247 18.40500129 11.712994 21.42578125 14.02734375 C24.59304819 16.4544603 27.7360311 18.91144653 30.875 21.375 C31.47554199 21.84623291 32.07608398 22.31746582 32.69482422 22.80297852 C37.32776141 26.44868118 41.89428692 30.17046252 46.4453125 33.91796875 C50.24398301 37.01382713 54.11349519 40.01554816 58 43 C56.52307692 47.67692308 56.52307692 47.67692308 53.875 49.3125 C53.25625 49.539375 52.6375 49.76625 52 50 C44.18386235 43.96565665 36.51719997 37.8104382 29.04907227 31.34936523 C22.81490562 25.95834049 16.42315499 20.76899186 10.015625 15.5859375 C9.04109375 14.79445312 8.0665625 14.00296875 7.0625 13.1875 C6.18722656 12.47980469 5.31195313 11.77210938 4.41015625 11.04296875 C2.13017108 9.11033951 -0.03182886 7.25129552 -2 5 C-2 4.01 -2 3.02 -2 2 C-1.34 2 -0.68 2 0 2 C0 1.34 0 0.68 0 0 Z " fill="#7C5F59" transform="translate(28,219)"/>
<path d="M0 0 C0 0.33 0 0.66 0 1 C-5.61 1.66 -11.22 2.32 -17 3 C-16.67 4.65 -16.34 6.3 -16 8 C-14.54176788 8.0270043 -13.08339325 8.04639787 -11.625 8.0625 C-10.40683594 8.07990234 -10.40683594 8.07990234 -9.1640625 8.09765625 C-6.95062858 8.14466334 -6.95062858 8.14466334 -5 7 C-6.12451727 9.9719385 -7.22293791 12.33440687 -9 15 C-9.27710363 18.10479949 -9.27710363 18.10479949 -9.1953125 21.63671875 C-9.18886719 22.93544922 -9.18242187 24.23417969 -9.17578125 25.57226562 C-9.1590706 26.94401307 -9.14214071 28.31575786 -9.125 29.6875 C-9.11496674 31.07095718 -9.10584149 32.45442127 -9.09765625 33.83789062 C-9.07404967 37.22543452 -9.04112037 40.61263072 -9 44 C-8.23300781 43.67257813 -7.46601563 43.34515625 -6.67578125 43.0078125 C-3.90281247 41.96339506 -1.93226553 41.83244197 1 42 C1 42.66 1 43.32 1 44 C-3.95 44.495 -3.95 44.495 -9 45 C-9 45.99 -9 46.98 -9 48 C-7.35 48.33 -5.7 48.66 -4 49 C-5.98 49.495 -5.98 49.495 -8 50 C-7.67 52.31 -7.34 54.62 -7 57 C-9.62148526 52.57260267 -10.34056529 47.51604313 -11.41210938 42.55078125 C-12.24531676 38.82624465 -13.20344438 35.29588327 -14.5859375 31.734375 C-16.14077452 27.62823083 -16.61347577 24.32907138 -17 20 C-18.02105682 23.17102857 -17.93824815 25.22349875 -17.125 28.4375 C-16.93421875 29.23027344 -16.7434375 30.02304688 -16.546875 30.83984375 C-16.27617187 31.90912109 -16.27617187 31.90912109 -16 33 C-14.8286341 37.6854636 -14.90587568 42.19965945 -15 47 C-16.4579838 44.222888 -17.58784797 41.48008789 -18.5625 38.5 C-18.81128906 37.7471875 -19.06007812 36.994375 -19.31640625 36.21875 C-19.76785799 34.75346664 -20.17280272 33.27294858 -20.52734375 31.78125 C-20.84326471 29.98936883 -20.84326471 29.98936883 -22 29 C-22.4125 29.515625 -22.825 30.03125 -23.25 30.5625 C-23.8275 31.036875 -24.405 31.51125 -25 32 C-25.5775 31.814375 -26.155 31.62875 -26.75 31.4375 C-29.57724878 30.88775718 -30.22055399 31.52839923 -32.625 33 C-33.73875 33.66 -34.8525 34.32 -36 35 C-36.66 34.67 -37.32 34.34 -38 34 C-36.57655843 32.10207791 -35.15270676 30.20448695 -33.7265625 28.30859375 C-32.58797259 26.78618054 -31.45754392 25.25762466 -30.3359375 23.72265625 C-29.55089844 22.65337891 -29.55089844 22.65337891 -28.75 21.5625 C-28.03070313 20.57443359 -28.03070313 20.57443359 -27.296875 19.56640625 C-26 18 -26 18 -24 17 C-23.13234482 15.14985526 -23.13234482 15.14985526 -22.4375 13 C-21.08991826 9.08991826 -21.08991826 9.08991826 -20 8 C-19.95907063 5.66702567 -19.95758277 3.33294775 -20 1 C-13.29980211 0.29867087 -6.73742646 -0.11044961 0 0 Z " fill="#262D32" transform="translate(244,162)"/>
<path d="M0 0 C1.94824219 0.74169922 1.94824219 0.74169922 4 2 C4.63769531 3.87939453 4.63769531 3.87939453 4.828125 6.1328125 C4.90546875 6.93847656 4.9828125 7.74414062 5.0625 8.57421875 C5.124375 9.41597656 5.18625 10.25773438 5.25 11.125 C5.32734375 11.97449219 5.4046875 12.82398438 5.484375 13.69921875 C5.67303293 15.79803818 5.83870349 17.8989007 6 20 C-2.61435973 24.92005922 -2.61435973 24.92005922 -7.25 25.1875 C-10.88813636 23.61648657 -13.92807811 21.44245388 -16 18 C-15.66015625 15.80078125 -15.66015625 15.80078125 -15 14 C-14.67 14.66 -14.34 15.32 -14 16 C-13.731875 15.25234375 -13.46375 14.5046875 -13.1875 13.734375 C-9.58864852 4.689893 -9.58864852 4.689893 -4.75 2.375 C-3.5125 1.92125 -2.275 1.4675 -1 1 C-0.67 0.67 -0.34 0.34 0 0 Z " fill="#232E37" transform="translate(215,192)"/>
<path d="M0 0 C3.25 -0.3125 3.25 -0.3125 7 0 C9.0625 2.3125 9.0625 2.3125 11 5 C14.11662908 6.80979141 14.11662908 6.80979141 17 8 C17 8.66 17 9.32 17 10 C17.78375 10.309375 18.5675 10.61875 19.375 10.9375 C22 12 22 12 24 13 C24 13.66 24 14.32 24 15 C24.99 15.33 25.98 15.66 27 16 C27 16.66 27 17.32 27 18 C28.98 18.33 30.96 18.66 33 19 C33.495 20.485 33.495 20.485 34 22 C36.01508358 22.73323796 36.01508358 22.73323796 38 23 C38 23.66 38 24.32 38 25 C38.70125 25.2475 39.4025 25.495 40.125 25.75 C43.39514548 27.17180238 46.141122 28.87246288 49 31 C49 31.66 49 32.32 49 33 C49.556875 33.2475 50.11375 33.495 50.6875 33.75 C53.39971127 35.21606015 55.63587365 37.02989471 58 39 C57.75 40.875 57.75 40.875 57 43 C54.9375 44.25 54.9375 44.25 53 45 C52.7525 43.88625 52.505 42.7725 52.25 41.625 C51.39943662 38.04951017 51.39943662 38.04951017 49.3125 36.75 C48.549375 36.5025 47.78625 36.255 47 36 C35.93267871 31.79441791 26.718826 24.01981684 18.625 15.5 C15.15031665 12.19077776 11.27806051 9.581448 7.328125 6.8671875 C5 5 5 5 4 2 C1.99983534 0.79117904 1.99983534 0.79117904 0 0 Z " fill="#92857E" transform="translate(304,0)"/>
<path d="M0 0 C1.1810733 0.00007553 2.36214661 0.00015106 3.57901001 0.00022888 C4.85924042 0.00539017 6.13947083 0.01055145 7.45849609 0.01586914 C8.76523285 0.01728409 10.0719696 0.01869904 11.41830444 0.02015686 C14.89369617 0.02397645 18.36904616 0.03380197 21.84442139 0.04486084 C25.39025305 0.05508696 28.93609144 0.05965706 32.48193359 0.06469727 C39.44028408 0.07542473 46.39860683 0.09249447 53.35693359 0.11352539 C53.35693359 1.10352539 53.35693359 2.09352539 53.35693359 3.11352539 C56.65693359 3.11352539 59.95693359 3.11352539 63.35693359 3.11352539 C63.35693359 3.77352539 63.35693359 4.43352539 63.35693359 5.11352539 C33.32693359 4.78352539 3.29693359 4.45352539 -27.64306641 4.11352539 C-27.64306641 3.78352539 -27.64306641 3.45352539 -27.64306641 3.11352539 C-21.04306641 3.11352539 -14.44306641 3.11352539 -7.64306641 3.11352539 C-7.64306641 2.45352539 -7.64306641 1.79352539 -7.64306641 1.11352539 C-4.98399057 -0.21601253 -2.97741272 -0.00633492 0 0 Z " fill="#59595C" transform="translate(75.64306640625,-0.113525390625)"/>
<path d="M0 0 C0.66 0 1.32 0 2 0 C3.7265625 2.30078125 3.7265625 2.30078125 5.625 5.3125 C6.25664062 6.29863281 6.88828125 7.28476563 7.5390625 8.30078125 C9 11 9 11 9 14 C8.2678125 13.73574219 7.535625 13.47148437 6.78125 13.19921875 C5.8634375 13.13347656 4.945625 13.06773437 4 13 C1.58947187 15.01599669 1.58947187 15.01599669 -0.5 17.8125 C-5.47819653 24.02648123 -9.64164683 25.04781524 -17.3125 26.625 C-19.19388672 27.01558594 -19.19388672 27.01558594 -21.11328125 27.4140625 C-22.06589844 27.60742188 -23.01851562 27.80078125 -24 28 C-24.2475 28.969375 -24.495 29.93875 -24.75 30.9375 C-26.03854722 35.49410178 -27.99998479 39.71841403 -30 44 C-30.99 42.68 -31.98 41.36 -33 40 C-31.515 39.505 -31.515 39.505 -30 39 C-28.79117904 36.99983534 -28.79117904 36.99983534 -28 35 C-29.98 35.495 -29.98 35.495 -32 36 C-30.66666667 32.66666667 -29.33333333 29.33333333 -28 26 C-24.7 25.67 -21.4 25.34 -18 25 C-18.66 23.35 -19.32 21.7 -20 20 C-19.01 20.33 -18.02 20.66 -17 21 C-17 21.66 -17 22.32 -17 23 C-11.79804773 21.63499686 -7.40215134 20.15196155 -3 17 C-1.14484533 11.92131127 -1.07114048 7.40667667 -1 2 C-0.67 1.34 -0.34 0.68 0 0 Z " fill="#2A373F" transform="translate(214,149)"/>
<path d="M0 0 C0.66 0.33 1.32 0.66 2 1 C1.55084229 1.4439209 1.10168457 1.8878418 0.63891602 2.34521484 C-1.38915607 4.35253603 -3.41336416 6.36370999 -5.4375 8.375 C-6.14455078 9.07367188 -6.85160156 9.77234375 -7.58007812 10.4921875 C-8.59038086 11.49765625 -8.59038086 11.49765625 -9.62109375 12.5234375 C-10.55586548 13.450354 -10.55586548 13.450354 -11.50952148 14.39599609 C-13.09048151 15.94660067 -13.09048151 15.94660067 -14 18 C-14.66 18 -15.32 18 -16 18 C-16.33 18.99 -16.66 19.98 -17 21 C-18.62890625 22.31640625 -18.62890625 22.31640625 -20.5625 23.5625 C-22.46890121 24.74992017 -22.46890121 24.74992017 -24 26 C-24 26.66 -24 27.32 -24 28 C-23.01 27.34 -22.02 26.68 -21 26 C-20.01 26 -19.02 26 -18 26 C-17.67 25.01 -17.34 24.02 -17 23 C-16.34 23.33 -15.68 23.66 -15 24 C-14.01 24.33 -13.02 24.66 -12 25 C-14.66952448 28.44228156 -17.48075146 31.57150056 -21.94921875 32.33154297 C-26.64756118 32.62358475 -31.31187867 32.35843646 -36 32 C-32.61013888 28.51134511 -29.10340442 25.35867013 -25.3125 22.3125 C-21.53910677 19.28629616 -21.53910677 19.28629616 -18 16 C-17.67 16 -17.34 16 -17 16 C-16.67 12.37 -16.34 8.74 -16 5 C-14 8 -14 8 -14 10 C-13.2575 9.13375 -13.2575 9.13375 -12.5 8.25 C-9.76098766 5.78488889 -7.13013393 4.44809889 -3.8046875 2.9296875 C-1.82018034 2.02336415 -1.82018034 2.02336415 0 0 Z " fill="#2E3339" transform="translate(253,242)"/>
<path d="M0 0 C4.75763291 -0.34425708 7.0368717 0.23223006 10.8125 3.125 C14.04640531 5.54314541 17.27305929 7.84412446 20.6875 10 C26.00262635 13.51529521 30.12066823 17.92284383 34.375 22.625 C37.88827657 25.8036788 41.80071999 27.85004182 46 30 C45.67 31.65 45.34 33.3 45 35 C44.67 34.34 44.34 33.68 44 33 C40.71635081 30.97929281 37.76343324 29.265542 34.125 28 C33.42375 27.67 32.7225 27.34 32 27 C31.6278958 25.67696283 31.29369827 24.34262065 31 23 C28.19982126 21.09987871 25.3063908 20.55106513 22 20 C22 19.01 22 18.02 22 17 C20.10988445 15.3357543 20.10988445 15.3357543 17.6875 13.875 C16.88699219 13.35679688 16.08648437 12.83859375 15.26171875 12.3046875 C12.95631021 10.8742603 12.95631021 10.8742603 10 10 C8.66666667 8.66666667 7.33333333 7.33333333 6 6 C5.01 5.67 4.02 5.34 3 5 C1.3125 3.5625 1.3125 3.5625 0 2 C0 1.34 0 0.68 0 0 Z " fill="#A3A9A7" transform="translate(324,0)"/>
<path d="M0 0 C0.33 0 0.66 0 1 0 C1 2.31 1 4.62 1 7 C2.65 7 4.3 7 6 7 C5.67 7.66 5.34 8.32 5 9 C4.01 9 3.02 9 2 9 C2.66 12.96 3.32 16.92 4 21 C8.29 18.69 12.58 16.38 17 14 C17 13.34 17 12.68 17 12 C19.64 11.67 22.28 11.34 25 11 C22.8841927 13.31823172 20.98014289 14.65337264 18.12890625 15.9453125 C8.38082975 19.99940132 8.38082975 19.99940132 2.1875 27.9375 C2.01605469 28.66839844 1.84460938 29.39929688 1.66796875 30.15234375 C1 32 1 32 -1.07421875 33.25390625 C-1.70972656 33.50011719 -2.34523437 33.74632812 -3 34 C-4.14947895 30.44706507 -4.0868937 29.20023331 -2.5625 25.6875 C-2.046875 24.800625 -1.53125 23.91375 -1 23 C-5.28324091 25.51407619 -7.64531705 27.12314139 -9 32 C-9.66 32 -10.32 32 -11 32 C-9.63855967 26.80177328 -7.53269829 23.90456127 -4 20 C-2.68 20.66 -1.36 21.32 0 22 C0.33 20.02 0.66 18.04 1 16 C-0.0725 16.350625 -1.145 16.70125 -2.25 17.0625 C-5.78720743 17.94680186 -6.74811124 18.02880551 -10 17 C-9.36191406 16.82984375 -8.72382813 16.6596875 -8.06640625 16.484375 C-7.24011719 16.24203125 -6.41382813 15.9996875 -5.5625 15.75 C-4.73878906 15.51796875 -3.91507813 15.2859375 -3.06640625 15.046875 C-2.38449219 14.70140625 -1.70257813 14.3559375 -1 14 C-0.34293531 11.97393752 -0.34293531 11.97393752 0 10 C-1.80597656 10.77537109 -1.80597656 10.77537109 -3.6484375 11.56640625 C-5.22378608 12.23217857 -6.79931639 12.89752099 -8.375 13.5625 C-9.1690625 13.90474609 -9.963125 14.24699219 -10.78125 14.59960938 C-11.54179688 14.91865234 -12.30234375 15.23769531 -13.0859375 15.56640625 C-13.7876709 15.86490479 -14.4894043 16.16340332 -15.21240234 16.47094727 C-17 17 -17 17 -19 16 C-16.77447742 14.84658302 -14.54504031 13.70218841 -12.3125 12.5625 C-11.68666016 12.23701172 -11.06082031 11.91152344 -10.41601562 11.57617188 C-6.96286361 9.82247687 -3.84806481 8.52239503 0 8 C0 5.36 0 2.72 0 0 Z " fill="#6F7071" transform="translate(137,107)"/>
<path d="M0 0 C1.19192783 3.57578349 0.74032108 4.33791554 -0.6171875 7.74609375 C-0.97683594 8.66583984 -1.33648437 9.58558594 -1.70703125 10.53320312 C-2.28517578 11.97083008 -2.28517578 11.97083008 -2.875 13.4375 C-3.62432403 15.33126944 -4.37179248 17.22577439 -5.1171875 19.12109375 C-5.45347168 19.9608374 -5.78975586 20.80058105 -6.13623047 21.66577148 C-7.13787593 24.24204003 -7.13787593 24.24204003 -8 28 C1.9 28 11.8 28 22 28 C22.495 28.99 22.495 28.99 23 30 C12.44 30 1.88 30 -9 30 C-11.31 36.6 -13.62 43.2 -16 50 C-16.99064947 46.03740212 -17.09410666 45.41677713 -15.78515625 41.890625 C-15.51123047 41.13652344 -15.23730469 40.38242187 -14.95507812 39.60546875 C-14.66052734 38.82816406 -14.36597656 38.05085938 -14.0625 37.25 C-13.77181641 36.45722656 -13.48113281 35.66445313 -13.18164062 34.84765625 C-12.46405186 32.89487371 -11.73329094 30.94694059 -11 29 C-11.95253662 29.00785522 -11.95253662 29.00785522 -12.92431641 29.01586914 C-15.82453405 29.03676256 -18.7247358 29.04969934 -21.625 29.0625 C-23.12353516 29.07506836 -23.12353516 29.07506836 -24.65234375 29.08789062 C-29.55020275 29.1041087 -34.18656199 29.04318537 -39 28 C-39 27.67 -39 27.34 -39 27 C-35.66668561 26.97062562 -32.33340517 26.95307666 -29 26.9375 C-28.06542969 26.92912109 -27.13085938 26.92074219 -26.16796875 26.91210938 C-20.67725599 26.89291108 -15.43133519 27.1865807 -10 28 C-9.81824219 27.38253906 -9.63648437 26.76507813 -9.44921875 26.12890625 C-7.74279553 20.37957263 -5.93345274 14.67694634 -4 9 C-5.32 8.67 -6.64 8.34 -8 8 C-8 6.35 -8 4.7 -8 3 C-4.25 1.875 -4.25 1.875 -2 3 C-1.34 2.01 -0.68 1.02 0 0 Z " fill="#5F5F60" transform="translate(92,19)"/>
<path d="M0 0 C5.53539396 0.13838485 7.95279742 2.43818222 11.78515625 6.03515625 C14.13306453 8.1180449 16.5779586 9.82151324 19.1875 11.5625 C23.21301629 14.30939485 25.91823791 17.20706204 29 21 C35.04630715 26.24728826 42.07579321 32.09121999 49.58984375 35.00390625 C52.81167774 36.33545838 54.6625155 38.46215969 57 41 C56.505 41.99 56.505 41.99 56 43 C35.06807148 29.9231854 35.06807148 29.9231854 27 24 C26.25621094 23.52691406 25.51242187 23.05382812 24.74609375 22.56640625 C24.16988281 22.04949219 23.59367187 21.53257813 23 21 C23 19.68 23 18.36 23 17 C22.41283203 16.71697021 21.82566406 16.43394043 21.22070312 16.14233398 C19.20071573 15.10324856 17.3547648 13.98443775 15.46875 12.72265625 C14.82292969 12.29146484 14.17710937 11.86027344 13.51171875 11.41601562 C12.84785156 10.96935547 12.18398438 10.52269531 11.5 10.0625 C10.83613281 9.61970703 10.17226563 9.17691406 9.48828125 8.72070312 C1.98330161 3.69491337 1.98330161 3.69491337 0 2 C0 1.34 0 0.68 0 0 Z " fill="#D3BAA2" transform="translate(300,0)"/>
<path d="M0 0 C2.64398662 1.26575751 5.04867577 2.63675287 7.44140625 4.328125 C8.0974585 4.79081787 8.75351074 5.25351074 9.42944336 5.73022461 C10.4853064 6.48251343 10.4853064 6.48251343 11.5625 7.25 C12.67927124 8.04192749 12.67927124 8.04192749 13.81860352 8.84985352 C20.21079712 13.40030756 26.53053348 18.04661499 32.83789062 22.71362305 C40.43317601 28.33219068 48.08940655 33.86350543 55.75732422 39.38232422 C58.0306298 41.02209373 60.29912929 42.66831309 62.56640625 44.31640625 C64.08574468 45.41953646 65.60527464 46.52240291 67.125 47.625 C67.86113525 48.15923584 68.59727051 48.69347168 69.35571289 49.24389648 C75.17253138 53.44603644 81.07282719 57.51779101 87.05126953 61.48681641 C90.02808664 63.492681 91.98405926 64.97608889 94 68 C89.15101815 66.39617815 85.40739692 63.64652412 81.3125 60.6875 C80.56991943 60.15697021 79.82733887 59.62644043 79.06225586 59.07983398 C76.70397751 57.39231084 74.35147333 55.69698965 72 54 C70.50522327 52.9244584 69.01043184 51.84893724 67.515625 50.7734375 C63.76401481 48.07059815 60.01903359 45.35869312 56.27490234 42.64550781 C53.99493621 40.9963372 51.71101766 39.35279572 49.42578125 37.7109375 C42.20906134 32.52213288 35.02847978 27.29717562 27.9375 21.9375 C18.81210707 15.04150864 9.51804606 8.34536404 0 2 C0 1.34 0 0.68 0 0 Z " fill="#595B5F" transform="translate(155,73)"/>
<path d="M0 0 C0 0.33 0 0.66 0 1 C-5.61 1.66 -11.22 2.32 -17 3 C-17.226875 4.93875 -17.45375 6.8775 -17.6875 8.875 C-19.04455807 17.64809375 -21.93575522 25.28132565 -29 31 C-31.29881928 32.55581695 -33.48987175 33.76861633 -36 35 C-36.66 34.67 -37.32 34.34 -38 34 C-36.57655843 32.10207791 -35.15270676 30.20448695 -33.7265625 28.30859375 C-32.58797259 26.78618054 -31.45754392 25.25762466 -30.3359375 23.72265625 C-29.55089844 22.65337891 -29.55089844 22.65337891 -28.75 21.5625 C-28.03070313 20.57443359 -28.03070313 20.57443359 -27.296875 19.56640625 C-26 18 -26 18 -24 17 C-23.13234482 15.14985526 -23.13234482 15.14985526 -22.4375 13 C-21.08991826 9.08991826 -21.08991826 9.08991826 -20 8 C-19.95907063 5.66702567 -19.95758277 3.33294775 -20 1 C-13.29980211 0.29867087 -6.73742646 -0.11044961 0 0 Z " fill="#815E51" transform="translate(244,162)"/>
<path d="M0 0 C0.33 0 0.66 0 1 0 C2.06996173 9.01824887 2.10234659 17.93664124 2 27 C2.76699219 26.67257813 3.53398437 26.34515625 4.32421875 26.0078125 C7.09718753 24.96339506 9.06773447 24.83244197 12 25 C12 25.66 12 26.32 12 27 C7.05 27.495 7.05 27.495 2 28 C2 28.99 2 29.98 2 31 C3.65 31.33 5.3 31.66 7 32 C5.02 32.495 5.02 32.495 3 33 C3.33 35.31 3.66 37.62 4 40 C1.37851474 35.57260267 0.65943471 30.51604313 -0.41210938 25.55078125 C-1.24704781 21.81850663 -2.20840619 18.27502355 -3.5859375 14.703125 C-5.01229374 10.96780536 -5.58950056 7.94079462 -6 4 C-3.525 4.495 -3.525 4.495 -1 5 C-0.67 3.35 -0.34 1.7 0 0 Z " fill="#393F44" transform="translate(233,179)"/>
<path d="M0 0 C13.36237972 4.97264131 24.74503968 13.46318833 35.79833984 22.25439453 C38.81068089 24.64275542 41.85173873 26.99327323 44.89160156 29.34643555 C53.29394795 35.85548419 61.65096637 42.42278701 70 49 C65.99593097 49 63.91668203 47.09337838 60.8125 44.8125 C60.19882568 44.3683374 59.58515137 43.9241748 58.95288086 43.46655273 C54.19772429 39.98183497 49.61650807 36.30442388 45.0625 32.5625 C32.93114115 22.60901098 20.38938285 13.80306051 7.06005859 5.50610352 C6.14434082 4.93432373 5.22862305 4.36254395 4.28515625 3.7734375 C3.45894775 3.26216309 2.63273926 2.75088867 1.78149414 2.22412109 C1.19360107 1.82016113 0.60570801 1.41620117 0 1 C0 0.67 0 0.34 0 0 Z " fill="#565A5E" transform="translate(86,173)"/>
<path d="M0 0 C1.32 1.32 2.64 2.64 4 4 C4 3.34 4 2.68 4 2 C5.65 1.34 7.3 0.68 9 0 C9 0.66 9 1.32 9 2 C5.53846154 5 5.53846154 5 3 5 C3.03955898 6.92309422 3.03955898 6.92309422 4 9 C7.18976724 11.10234659 9.03465831 12.10492845 12.875 11.6875 C13.57625 11.460625 14.2775 11.23375 15 11 C15 11.66 15 12.32 15 13 C13.5390625 14.2890625 13.5390625 14.2890625 11.625 15.625 C10.99851562 16.07101563 10.37203125 16.51703125 9.7265625 16.9765625 C8 18 8 18 6 18 C6.474375 18.94875 6.94875 19.8975 7.4375 20.875 C8.29166667 22.58333333 9.14583333 24.29166667 10 26 C8.0625 25.25 8.0625 25.25 6 24 C5.25 21.875 5.25 21.875 5 20 C4.071875 20.515625 3.14375 21.03125 2.1875 21.5625 C-1 23 -1 23 -4 22 C-2.02 21.01 -0.04 20.02 2 19 C1.67 16.03 1.34 13.06 1 10 C-2.90838866 10 -4.11594107 11.50567876 -7 14 C-7.66 13.67 -8.32 13.34 -9 13 C-8.43410156 12.64808594 -7.86820312 12.29617187 -7.28515625 11.93359375 C-2.95614348 9.19599341 -2.95614348 9.19599341 -0.24609375 5.04296875 C0.0662845 2.93068384 0.0662845 2.93068384 0 0 Z " fill="#656567" transform="translate(95,148)"/>
<path d="M0 0 C0.33 0 0.66 0 1 0 C1 5.61 1 11.22 1 17 C-3.62 17 -8.24 17 -13 17 C-9.22338138 10.92457005 -4.71380115 5.37354208 0 0 Z " fill="#4B5B5F" transform="translate(164,257)"/>
<path d="M0 0 C-1.375 1.5 -1.375 1.5 -3 3 C-3.66 3 -4.32 3 -5 3 C-5 3.66 -5 4.32 -5 5 C-11.93 6.485 -11.93 6.485 -19 8 C-19.2475 8.969375 -19.495 9.93875 -19.75 10.9375 C-21.03854722 15.49410178 -22.99998479 19.71841403 -25 24 C-25.99 22.68 -26.98 21.36 -28 20 C-27.01 19.67 -26.02 19.34 -25 19 C-23.79117904 16.99983534 -23.79117904 16.99983534 -23 15 C-24.32 15.33 -25.64 15.66 -27 16 C-25.66666667 12.66666667 -24.33333333 9.33333333 -23 6 C-19.7 5.67 -16.4 5.34 -13 5 C-13.66 3.35 -14.32 1.7 -15 0 C-14.01 0.33 -13.02 0.66 -12 1 C-12 1.66 -12 2.32 -12 3 C-11.38511719 2.69964844 -10.77023438 2.39929688 -10.13671875 2.08984375 C-9.32847656 1.70957031 -8.52023438 1.32929688 -7.6875 0.9375 C-6.88699219 0.55464844 -6.08648437 0.17179688 -5.26171875 -0.22265625 C-3 -1 -3 -1 0 0 Z " fill="#6A6665" transform="translate(209,169)"/>
<path d="M0 0 C2.90854122 1.32238871 5.04782741 2.77401363 7.35546875 4.9765625 C8.28214355 5.85308472 8.28214355 5.85308472 9.22753906 6.74731445 C9.87432617 7.36695068 10.52111328 7.98658691 11.1875 8.625 C12.53970688 9.90303998 13.892568 11.18038812 15.24609375 12.45703125 C16.2203833 13.37863037 16.2203833 13.37863037 17.21435547 14.31884766 C23.46571901 20.20439446 29.99405032 25.67881636 36.71484375 31.01953125 C39 33 39 33 41 36 C37.24269753 34.3718356 34.383177 31.98598083 31.25 29.375 C30.26515625 28.55773437 29.2803125 27.74046875 28.265625 26.8984375 C27.51796875 26.27195312 26.7703125 25.64546875 26 25 C26.66 25.99 27.32 26.98 28 28 C27.67 28.66 27.34 29.32 27 30 C23.04 26.37 19.08 22.74 15 19 C15.99 18.67 16.98 18.34 18 18 C13.01667708 12.91285786 7.98819331 7.99009082 2.53125 3.41015625 C1 2 1 2 0 0 Z " fill="#757576" transform="translate(234,54)"/>
<path d="M0 0 C3 1 3 1 5 4 C4.67 4.99 4.34 5.98 4 7 C3.01 6.01 2.02 5.02 1 4 C0.855625 4.5775 0.71125 5.155 0.5625 5.75 C0.04166667 7.83333333 -0.47916667 9.91666667 -1 12 C-1.66 12 -2.32 12 -3 12 C-3 11.01 -3 10.02 -3 9 C-6.2263954 11.62613579 -7.14372884 14.63984361 -8.5 18.5 C-9.98854043 22.73661506 -10.77561214 24.77561214 -14 28 C-14.33 24.37 -14.66 20.74 -15 17 C-18.96 19.64 -22.92 22.28 -27 25 C-27.33 24.34 -27.66 23.68 -28 23 C-26.06829319 21.65828736 -24.12943124 20.32687117 -22.1875 19 C-21.10855469 18.2575 -20.02960937 17.515 -18.91796875 16.75 C-16 15 -16 15 -13 15 C-12.67 17.31 -12.34 19.62 -12 22 C-11.68546875 21.08476563 -11.3709375 20.16953125 -11.046875 19.2265625 C-10.61890625 18.03804687 -10.1909375 16.84953125 -9.75 15.625 C-9.12351562 13.84996094 -9.12351562 13.84996094 -8.484375 12.0390625 C-6.86539454 8.72441303 -6.23638088 8.35719198 -3 7 C-1.89506665 5.30049572 -1.89506665 5.30049572 -1.25 3.375 C-0.8375 2.26125 -0.425 1.1475 0 0 Z " fill="#545557" transform="translate(54,63)"/>
<path d="M0 0 C1.8125 0.8125 1.8125 0.8125 4 2 C5.66140763 2.67966676 7.32700041 3.34938905 9 4 C9.99 3.01 10.98 2.02 12 1 C12.433125 1.45375 12.86625 1.9075 13.3125 2.375 C15.10798342 4.20024334 15.10798342 4.20024334 18 6 C17.34 6 16.68 6 16 6 C15.731875 6.598125 15.46375 7.19625 15.1875 7.8125 C14.00913692 9.98316883 12.76939019 11.30817212 11 13 C9.39097942 11.75625426 7.78796893 10.50473101 6.1875 9.25 C5.29417969 8.55390625 4.40085938 7.8578125 3.48046875 7.140625 C1.25694367 5.22174036 -0.3600921 3.41900036 -2 1 C-1.34 0.67 -0.68 0.34 0 0 Z " fill="#86665E" transform="translate(131,252)"/>
<path d="M0 0 C2 2 2 2 2.3125 5.4375 C2 9 2 9 0.9375 10.9375 C-2.12883274 12.61903731 -4.57513751 12.36051184 -8 12 C-10.4375 10.5 -10.4375 10.5 -12 9 C-11.0518738 6.62968451 -10.31103322 5.23327492 -8.25 3.6875 C-5.24827907 2.77030749 -3.02230874 3.31311165 0 4 C0 2.68 0 1.36 0 0 Z " fill="#1E2A34" transform="translate(237,220)"/>
<path d="M0 0 C0.66 0 1.32 0 2 0 C2.25394531 0.97839844 2.50789062 1.95679688 2.76953125 2.96484375 C4.43129563 9.31344872 6.11979705 15.60321448 8.27734375 21.8046875 C9.45027357 25.36785808 10.39104255 28.99199929 11.3515625 32.6171875 C11.84430339 34.42786185 12.40659161 36.21977483 13 38 C12.0625 40.1875 12.0625 40.1875 11 42 C10.75765625 41.18917969 10.5153125 40.37835938 10.265625 39.54296875 C8.61800969 34.09950124 6.93401557 28.70161104 4.9375 23.375 C2.10441292 15.69319076 -0.55115847 8.26737698 0 0 Z " fill="#5E6D77" transform="translate(225,182)"/>
<path d="M0 0 C1.28253196 3.63828056 0.70925239 6.16299043 -0.21484375 9.859375 C-0.48876953 10.97441406 -0.76269531 12.08945313 -1.04492188 13.23828125 C-1.33947266 14.39714844 -1.63402344 15.55601563 -1.9375 16.75 C-2.22818359 17.92433594 -2.51886719 19.09867188 -2.81835938 20.30859375 C-3.53729359 23.20790223 -4.26479233 26.10478324 -5 29 C-5.99 29 -6.98 29 -8 29 C-8.08636719 28.45214844 -8.17273438 27.90429688 -8.26171875 27.33984375 C-9.38373779 21.00918584 -11.20091505 15.11285448 -13.41088867 9.09155273 C-15.10559924 4.31679772 -15.10559924 4.31679772 -14 1 C-11.69 7.27 -9.38 13.54 -7 20 C-5.1871512 15.16573654 -3.42505034 10.3932562 -1.8125 5.5 C-1.46832031 4.4584375 -1.12414062 3.416875 -0.76953125 2.34375 C-0.38861328 1.18359375 -0.38861328 1.18359375 0 0 Z " fill="#4F5152" transform="translate(74,69)"/>
<path d="M0 0 C3.56940271 1.67261866 6.8054763 3.75530414 10.125 5.875 C14.87175548 8.86295201 19.57028168 11.27809063 24.87890625 13.11328125 C27.23975457 14.10022889 29.01765327 15.39524312 31 17 C30.75 18.875 30.75 18.875 30 21 C27.9375 22.25 27.9375 22.25 26 23 C25.7525 21.88625 25.505 20.7725 25.25 19.625 C24.39943662 16.04951017 24.39943662 16.04951017 22.3125 14.75 C21.549375 14.5025 20.78625 14.255 20 14 C12.33171914 11.08605327 4.6852382 6.92137462 0 0 Z " fill="#9C8B81" transform="translate(331,22)"/>
<path d="M0 0 C-0.44850658 1.81495662 -0.90909571 3.62693134 -1.375 5.4375 C-1.63023437 6.44683594 -1.88546875 7.45617187 -2.1484375 8.49609375 C-3 11 -3 11 -5 12 C-5.33 12.99 -5.66 13.98 -6 15 C-6.66 15 -7.32 15 -8 15 C-8 13.68 -8 12.36 -8 11 C-10.41666771 8.24958334 -10.41666771 8.24958334 -13 6 C-12.67 5.01 -12.34 4.02 -12 3 C-9.5625 1.875 -9.5625 1.875 -7 1 C-4.53721199 -0.231394 -2.7204945 -0.07159196 0 0 Z " fill="#E9E6DE" transform="translate(200,119)"/>
<path d="M0 0 C2.6875 -0.3125 2.6875 -0.3125 6 0 C7.67964747 1.65358397 9.34401296 3.3227217 11 5 C13.27735746 6.66794753 15.65889255 8.14664123 18.0625 9.625 C27.02089692 15.21337827 27.02089692 15.21337827 29 17 C29 17.99 29 18.98 29 20 C25.38769807 18.68083581 22.42419392 17.08647825 19.27734375 14.8828125 C18.40916016 14.27566406 17.54097656 13.66851562 16.64648438 13.04296875 C15.30553711 12.09357422 15.30553711 12.09357422 13.9375 11.125 C13.03966797 10.49980469 12.14183594 9.87460938 11.21679688 9.23046875 C7.15175895 6.37134171 3.44771995 3.59954344 0 0 Z " fill="#D8BFA8" transform="translate(294,0)"/>
<path d="M0 0 C7.33944157 0.44036649 10.57110265 3.44965779 15.5 8.625 C18.15657896 11.14875001 20.66477363 12.52629533 24 14 C23.67 15.65 23.34 17.3 23 19 C22.67 18.34 22.34 17.68 22 17 C18.71635081 14.97929281 15.76343324 13.265542 12.125 12 C11.42375 11.67 10.7225 11.34 10 11 C9.6278958 9.67696283 9.29369827 8.34262065 9 7 C6.19982126 5.09987871 3.3063908 4.55106513 0 4 C0 2.68 0 1.36 0 0 Z " fill="#959D9C" transform="translate(346,16)"/>
<path d="M0 0 C3.59775112 1.30090187 6.41906396 2.85076301 9.46875 5.15234375 C10.28730469 5.76400391 11.10585937 6.37566406 11.94921875 7.00585938 C12.79097656 7.64330078 13.63273437 8.28074219 14.5 8.9375 C16.1755507 10.1986534 17.85259026 11.45783161 19.53125 12.71484375 C20.63823242 13.55196899 20.63823242 13.55196899 21.76757812 14.40600586 C24.03112681 16.07452189 24.03112681 16.07452189 26.71679688 17.58032227 C29 19 29 19 30 21 C31.65 21 33.3 21 35 21 C35.66 22.32 36.32 23.64 37 25 C35.68 25.99 34.36 26.98 33 28 C32.34 27.34 31.68 26.68 31 26 C31 25.01 31 24.02 31 23 C30.443125 22.938125 29.88625 22.87625 29.3125 22.8125 C26.65257844 21.87793297 25.48953587 20.44571752 23.56323242 18.4597168 C20.49998961 15.59931874 16.9576727 13.35288954 13.5 11 C8.56600385 7.64249658 4.0654527 4.38810768 0 0 Z " fill="#56565B" transform="translate(103,141)"/>
<path d="M0 0 C6.6 0.6 6.6 0.6 9 3 C8.67208239 6.38848197 7.32308138 7.67691862 5 10 C5 10.99 5 11.98 5 13 C2.38250326 11.62237014 0.38966817 10.53136569 -1.375 8.125 C-2.17172987 5.41611843 -1.79719262 3.68146607 -1 1 C-0.67 0.67 -0.34 0.34 0 0 Z " fill="#C4C1BD" transform="translate(226,141)"/>
<path d="M0 0 C6.5862381 4.11055995 12.29556754 8.74944644 18 14 C25.3812131 20.68277573 33.20173914 26.81622284 41 33 C37.00175731 33 35.1172529 31.07457318 32.125 28.6875 C31.55273682 28.23890625 30.98047363 27.7903125 30.39086914 27.328125 C25.23681524 23.25731749 20.21820706 19.03032138 15.234375 14.75390625 C13.01893818 12.85563667 10.77920985 10.99292909 8.515625 9.15234375 C7.95689697 8.69601563 7.39816895 8.2396875 6.82250977 7.76953125 C5.27402521 6.5079915 3.72112381 5.25187889 2.16796875 3.99609375 C1.45253906 3.33738281 0.73710937 2.67867187 0 2 C0 1.34 0 0.68 0 0 Z " fill="#595A5F" transform="translate(214,26)"/>
<path d="M0 0 C0.66 0.33 1.32 0.66 2 1 C2.99 1.33 3.98 1.66 5 2 C1.59689126 6.14291498 -1.19483705 8.77000601 -6.6484375 9.46484375 C-10.12245125 9.44018037 -13.54000285 9.30615143 -17 9 C-14.45893061 6.41622356 -11.95198007 4.10855719 -9 2 C-8.34 2.33 -7.68 2.66 -7 3 C-7 3.66 -7 4.32 -7 5 C-6.01 4.34 -5.02 3.68 -4 3 C-3.01 3 -2.02 3 -1 3 C-0.67 2.01 -0.34 1.02 0 0 Z " fill="#494443" transform="translate(236,265)"/>
<path d="M0 0 C1.9375 0.6875 1.9375 0.6875 4 2 C4.75 4.625 4.75 4.625 5 7 C4.34 7.33 3.68 7.66 3 8 C3 7.01 3 6.02 3 5 C-4.92 8.96 -12.84 12.92 -21 17 C-21.10540926 19.21081851 -21.10540926 19.21081851 -20 22 C-23.3 22 -26.6 22 -30 22 C-30 21.34 -30 20.68 -30 20 C-28.68 20 -27.36 20 -26 20 C-25.67 19.01 -25.34 18.02 -25 17 C-22.83862305 15.57373047 -22.83862305 15.57373047 -20.01171875 14.1171875 C-18.99529297 13.58996094 -17.97886719 13.06273437 -16.93164062 12.51953125 C-15.32579102 11.70548828 -15.32579102 11.70548828 -13.6875 10.875 C-12.62853516 10.32457031 -11.56957031 9.77414063 -10.47851562 9.20703125 C-1.87747403 4.78425939 -1.87747403 4.78425939 2 4 C1.34 2.68 0.68 1.36 0 0 Z " fill="#4F5154" transform="translate(59,26)"/>
<path d="M0 0 C-0.72404774 4.04704581 -1.83446287 7.89070402 -3.0625 11.8125 C-3.42472656 12.97394531 -3.78695312 14.13539062 -4.16015625 15.33203125 C-4.43730469 16.21246094 -4.71445313 17.09289062 -5 18 C-5.66 18 -6.32 18 -7 18 C-6.52188823 16.22888156 -6.0424722 14.45811517 -5.5625 12.6875 C-5.29566406 11.70136719 -5.02882812 10.71523437 -4.75390625 9.69921875 C-4.21920575 7.78482474 -3.62855462 5.88566385 -3 4 C-4.98 4.99 -6.96 5.98 -9 7 C-7.68 7.99 -6.36 8.98 -5 10 C-11.0546875 10.9765625 -11.0546875 10.9765625 -13 11 C-13.66 10.34 -14.32 9.68 -15 9 C-15 8.01 -15 7.02 -15 6 C-13.68 6.33 -12.36 6.66 -11 7 C-10.67 6.01 -10.34 5.02 -10 4 C-8.4765625 2.83203125 -8.4765625 2.83203125 -6.625 1.8125 C-6.01914063 1.46832031 -5.41328125 1.12414062 -4.7890625 0.76953125 C-3 0 -3 0 0 0 Z " fill="#676768" transform="translate(160,84)"/>
<path d="M0 0 C0.33 0 0.66 0 1 0 C1 2.31 1 4.62 1 7 C2.65 7 4.3 7 6 7 C5.67 7.66 5.34 8.32 5 9 C4.01 9 3.02 9 2 9 C2 12.63 2 16.26 2 20 C1.67 18.68 1.34 17.36 1 16 C-0.0725 16.350625 -1.145 16.70125 -2.25 17.0625 C-5.78720743 17.94680186 -6.74811124 18.02880551 -10 17 C-9.36191406 16.82984375 -8.72382813 16.6596875 -8.06640625 16.484375 C-7.24011719 16.24203125 -6.41382813 15.9996875 -5.5625 15.75 C-4.73878906 15.51796875 -3.91507813 15.2859375 -3.06640625 15.046875 C-2.38449219 14.70140625 -1.70257813 14.3559375 -1 14 C-0.34293531 11.97393752 -0.34293531 11.97393752 0 10 C-1.80597656 10.77537109 -1.80597656 10.77537109 -3.6484375 11.56640625 C-5.22378608 12.23217857 -6.79931639 12.89752099 -8.375 13.5625 C-9.1690625 13.90474609 -9.963125 14.24699219 -10.78125 14.59960938 C-11.54179688 14.91865234 -12.30234375 15.23769531 -13.0859375 15.56640625 C-13.7876709 15.86490479 -14.4894043 16.16340332 -15.21240234 16.47094727 C-17 17 -17 17 -19 16 C-16.77447742 14.84658302 -14.54504031 13.70218841 -12.3125 12.5625 C-11.68666016 12.23701172 -11.06082031 11.91152344 -10.41601562 11.57617188 C-6.96286361 9.82247687 -3.84806481 8.52239503 0 8 C0 5.36 0 2.72 0 0 Z " fill="#5E6063" transform="translate(137,107)"/>
<path d="M0 0 C0.33 0.99 0.66 1.98 1 3 C3.64 2.67 6.28 2.34 9 2 C9.33 3.32 9.66 4.64 10 6 C9.01 6.33 8.02 6.66 7 7 C7.66 9.31 8.32 11.62 9 14 C6.03 13.505 6.03 13.505 3 13 C2.67 13.66 2.34 14.32 2 15 C0.35 14.01 -1.3 13.02 -3 12 C-0.53721199 10.768606 1.2795055 10.92840804 4 11 C4 8.84365964 3.5534764 7.07553648 3 5 C1.35 5.33 -0.3 5.66 -2 6 C-1.49396008 3.83125748 -1.00016187 2.00032373 0 0 Z " fill="#898786" transform="translate(230,95)"/>
<path d="M0 0 C9.24 0 18.48 0 28 0 C28 0.99 28 1.98 28 3 C23.70845978 3.0867562 19.41714332 3.1403089 15.125 3.1875 C13.29001953 3.22520508 13.29001953 3.22520508 11.41796875 3.26367188 C9.66806641 3.27817383 9.66806641 3.27817383 7.8828125 3.29296875 C6.26463623 3.31653442 6.26463623 3.31653442 4.61376953 3.34057617 C3.75122559 3.22818604 2.88868164 3.1157959 2 3 C1.34 2.01 0.68 1.02 0 0 Z " fill="#B8B7AF" transform="translate(72,0)"/>
<path d="M0 0 C0 3.94720688 -1.52509109 5.01555103 -4 8 C-4.70885894 9.31138904 -5.39456452 10.63777017 -6 12 C-7.65 11.67 -9.3 11.34 -11 11 C-11 7.7 -11 4.4 -11 1 C-9.370625 1.020625 -7.74125 1.04125 -6.0625 1.0625 C-4.37500659 1.08386068 -2.68608966 1.07205511 -1 1 C-0.67 0.67 -0.34 0.34 0 0 Z " fill="#74534C" transform="translate(238,169)"/>
<path d="M0 0 C0 1.65 0 3.3 0 5 C1.65 4.67 3.3 4.34 5 4 C4.67 4.66 4.34 5.32 4 6 C1.9375 6.625 1.9375 6.625 0 7 C0.33 8.65 0.66 10.3 1 12 C0.01 12 -0.98 12 -2 12 C-2 13.32 -2 14.64 -2 16 C-2.66 16 -3.32 16 -4 16 C-3.67 13.36 -3.34 10.72 -3 8 C-3.99 8 -4.98 8 -6 8 C-6 8.66 -6 9.32 -6 10 C-6.66 10 -7.32 10 -8 10 C-8.66 8.68 -9.32 7.36 -10 6 C-8.52270825 4.99723227 -7.04311423 3.99785546 -5.5625 3 C-4.73878906 2.443125 -3.91507813 1.88625 -3.06640625 1.3125 C-1 0 -1 0 0 0 Z " fill="#565A5C" transform="translate(168,142)"/>
<path d="M0 0 C1.1881115 3.5643345 0.74894368 4.33962262 -0.58203125 7.74609375 C-0.93716797 8.66583984 -1.29230469 9.58558594 -1.65820312 10.53320312 C-2.03912109 11.49162109 -2.42003906 12.45003906 -2.8125 13.4375 C-3.18181641 14.39205078 -3.55113281 15.34660156 -3.93164062 16.33007812 C-5.48159309 20.30652708 -7.03875744 24.20593282 -9 28 C-10 26 -10 26 -9.56274414 24.21240234 C-9.17783813 23.15980225 -9.17783813 23.15980225 -8.78515625 22.0859375 C-8.51123047 21.32539062 -8.23730469 20.56484375 -7.95507812 19.78125 C-7.66052734 18.9871875 -7.36597656 18.193125 -7.0625 17.375 C-6.77181641 16.57320312 -6.48113281 15.77140625 -6.18164062 14.9453125 C-5.46117475 12.96107862 -4.73144862 10.98021163 -4 9 C-5.32 8.67 -6.64 8.34 -8 8 C-8 6.35 -8 4.7 -8 3 C-4.25 1.875 -4.25 1.875 -2 3 C-1.34 2.01 -0.68 1.02 0 0 Z " fill="#515255" transform="translate(92,19)"/>
<path d="M0 0 C1.53445094 3.06890187 0.54984289 5.70094266 0 9 C0.680625 8.835 1.36125 8.67 2.0625 8.5 C5.4164822 7.92910941 8.60389805 7.93340977 12 8 C11.41137121 11.56359052 10.05734911 13.37265244 7.625 16 C5.25892864 18.57750752 3.05962208 21.1695991 1 24 C0.34 23.67 -0.32 23.34 -1 23 C-0.52949219 22.46890625 -0.05898437 21.9378125 0.42578125 21.390625 C1.35970703 20.33101562 1.35970703 20.33101562 2.3125 19.25 C2.92738281 18.55390625 3.54226562 17.8578125 4.17578125 17.140625 C5.87314734 15.14885494 7.45477809 13.11101085 9 11 C7.22844346 11.11429397 5.45773771 11.24183037 3.6875 11.375 C2.20830078 11.47941406 2.20830078 11.47941406 0.69921875 11.5859375 C-2.21528433 11.83865472 -2.21528433 11.83865472 -5 14 C-5.33 13.01 -5.66 12.02 -6 11 C-5.34 10.67 -4.68 10.34 -4 10 C-3.12884713 7.91918209 -3.12884713 7.91918209 -2.4375 5.5 C-1.09111617 1.09111617 -1.09111617 1.09111617 0 0 Z " fill="#616260" transform="translate(132,21)"/>
<path d="M0 0 C5.52670889 0.13816772 7.94229148 2.42918059 11.76953125 6.01953125 C14.95845797 8.8510301 18.45341057 11.15593957 21.99609375 13.51953125 C24 15 24 15 25 17 C20.65711497 16.46104484 18.19758786 14.95867489 14.75 12.3125 C10.46895448 9.07702869 6.12759335 6.0764946 1.58203125 3.2265625 C1.05996094 2.82179687 0.53789062 2.41703125 0 2 C0 1.34 0 0.68 0 0 Z " fill="#BDA18F" transform="translate(300,0)"/>
<path d="M0 0 C0.33 0.99 0.66 1.98 1 3 C-1.0625 5.5 -1.0625 5.5 -4 8 C-7.8125 8.3125 -7.8125 8.3125 -11 8 C-11.33 6.68 -11.66 5.36 -12 4 C-9.29862359 1.40667864 -8.15657758 1.00530771 -4.3125 0.875 C-3.219375 0.91625 -2.12625 0.9575 -1 1 C-0.67 0.67 -0.34 0.34 0 0 Z " fill="#996C59" transform="translate(267,227)"/>
<path d="M0 0 C0 0.33 0 0.66 0 1 C7.92 1.33 15.84 1.66 24 2 C24 2.33 24 2.66 24 3 C7.17 3 -9.66 3 -27 3 C-27 2.67 -27 2.34 -27 2 C-20.4 2 -13.8 2 -7 2 C-7 1.34 -7 0.68 -7 0 C-4.3333581 -1.33332095 -2.83319697 -0.67102033 0 0 Z " fill="#272C32" transform="translate(75,1)"/>
<path d="M0 0 C2.06298828 -0.34057617 2.06298828 -0.34057617 4.5703125 -0.29296875 C5.46621094 -0.28330078 6.36210938 -0.27363281 7.28515625 -0.26367188 C8.69087891 -0.2259668 8.69087891 -0.2259668 10.125 -0.1875 C11.06988281 -0.17396484 12.01476562 -0.16042969 12.98828125 -0.14648438 C15.32608779 -0.11106306 17.66276237 -0.06167271 20 0 C20 0.99 20 1.98 20 3 C12.74 3 5.48 3 -2 3 C-1.34 2.01 -0.68 1.02 0 0 Z " fill="#CBC9C0" transform="translate(107,0)"/>
<path d="M0 0 C0.75023437 0.49113281 0.75023437 0.49113281 1.515625 0.9921875 C4.91792104 2.3723642 8.14350651 2.21362838 11.75 2.125 C12.79607422 2.11146484 12.79607422 2.11146484 13.86328125 2.09765625 C15.57566958 2.07419888 17.28788004 2.03833104 19 2 C19 2.66 19 3.32 19 4 C14.47355803 6.64962457 11.24616627 7.74945232 6 7 C3.56236454 5.55349104 2.01548399 4.06464214 0 2 C0 1.34 0 0.68 0 0 Z " fill="#333235" transform="translate(199,216)"/>
<path d="M0 0 C-0.50298788 4.40114397 -2.08772731 6.71195019 -5 10 C-5 9.34 -5 8.68 -5 8 C-8.98175544 10.10148204 -11.35039045 12.36905358 -14 16 C-14.66 15.67 -15.32 15.34 -16 15 C-15.57847656 14.52949219 -15.15695313 14.05898437 -14.72265625 13.57421875 C-13.90087891 12.64029297 -13.90087891 12.64029297 -13.0625 11.6875 C-12.24458984 10.76517578 -12.24458984 10.76517578 -11.41015625 9.82421875 C-9.79918441 7.94758042 -9.79918441 7.94758042 -9 5 C-8.34 5 -7.68 5 -7 5 C-6.67 4.01 -6.34 3.02 -6 2 C-3 0 -3 0 0 0 Z " fill="#6A6D6C" transform="translate(58,112)"/>
<path d="M0 0 C1.65 0 3.3 0 5 0 C5 0.66 5 1.32 5 2 C4.34 2 3.68 2 3 2 C2.67 2.99 2.34 3.98 2 5 C-0.35524741 7.15897679 -2.39353415 8.76060558 -5.375 9.9375 C-9.03676439 11.41964273 -11.8345093 13.64139909 -15 16 C-15.66 15.67 -16.32 15.34 -17 15 C-15.2711195 13.58298411 -13.54188254 12.16640314 -11.8125 10.75 C-10.84957031 9.96109375 -9.88664063 9.1721875 -8.89453125 8.359375 C-7.01409576 6.82660437 -5.11633628 5.31476007 -3.19921875 3.828125 C-0.92656781 2.1880857 -0.92656781 2.1880857 0 0 Z " fill="#413C3C" transform="translate(234,258)"/>
<path d="M0 0 C0.99 0.33 1.98 0.66 3 1 C1.6302836 4.99500618 -0.25722422 7.80009492 -3 11 C-4.98 10.01 -6.96 9.02 -9 8 C-2.92207792 1.75324675 -2.92207792 1.75324675 0 0 Z " fill="#4E575A" transform="translate(358,44)"/>
<path d="M0 0 C0 1.65 0 3.3 0 5 C-0.33 3.68 -0.66 2.36 -1 1 C-3.91517292 2.07401108 -5.77810176 2.77810176 -8 5 C-8.33333333 8 -8.33333333 8 -8 11 C-7.34 11.66 -6.68 12.32 -6 13 C-7.32 12.67 -8.64 12.34 -10 12 C-10.2475 10.9275 -10.495 9.855 -10.75 8.75 C-11.99883146 5.00350563 -13.02488658 3.47926118 -16 1 C-11.25 2.875 -11.25 2.875 -9 4 C-9 3.01 -9 2.02 -9 1 C-5.64919071 -1.10976881 -3.77897651 -1.0497157 0 0 Z " fill="#525358" transform="translate(198,70)"/>
<path d="M0 0 C1.32 0 2.64 0 4 0 C3.6596875 1.546875 3.6596875 1.546875 3.3125 3.125 C2.55690846 8.65274865 4.12851379 13.69307835 5.50390625 19.0234375 C5.66761719 20.00570312 5.83132813 20.98796875 6 22 C5.34 22.66 4.68 23.32 4 24 C3.32338 21.31466436 2.65853879 18.627275 2 15.9375 C1.80921875 15.18533203 1.6184375 14.43316406 1.421875 13.65820312 C0.2858904 8.97226664 -0.20486266 4.82067454 0 0 Z " fill="#68554B" transform="translate(263,192)"/>
<path d="M0 0 C5.75 1.75 5.75 1.75 8 4 C10.31765729 4.71927295 12.65095874 5.3909893 15 6 C15.5625 7.9375 15.5625 7.9375 16 10 C15.67 10.33 15.34 10.66 15 11 C15.99 11.99 16.98 12.98 18 14 C17.01 14 16.02 14 15 14 C13.7109375 12.6796875 13.7109375 12.6796875 12.375 10.875 C9.31963385 7.07893902 5.88161108 4.70911311 1.7578125 2.1640625 C1.17773438 1.77992187 0.59765625 1.39578125 0 1 C0 0.67 0 0.34 0 0 Z " fill="#A18D82" transform="translate(313,7)"/>
<path d="M0 0 C2.27839117 3.41758676 3.11171812 6.69558265 4.0625 10.625 C4.2387793 11.33978516 4.41505859 12.05457031 4.59667969 12.79101562 C5.81061924 17.85330419 6.62856611 22.79992555 7 28 C4.39339805 24.09009708 3.54676987 20.20085779 2.375 15.6875 C2.03082031 14.42389648 2.03082031 14.42389648 1.6796875 13.13476562 C0.50199174 8.65181065 -0.2899995 4.67814975 0 0 Z " fill="#C19A7E" transform="translate(265,194)"/>
<path d="M0 0 C0.66 0.33 1.32 0.66 2 1 C2 1.66 2 2.32 2 3 C2.309375 4.4540625 2.309375 4.4540625 2.625 5.9375 C3 9 3 9 1 12 C0.15801693 10.90241493 -0.67330671 9.79664683 -1.5 8.6875 C-1.9640625 8.07261719 -2.428125 7.45773438 -2.90625 6.82421875 C-4 5 -4 5 -4 2 C-2.125 0.9375 -2.125 0.9375 0 0 Z " fill="#3C3737" transform="translate(212,194)"/>
<path d="M0 0 C0.82200425 6.24723226 -2.07448606 10.71317837 -5 16 C-5.99 14.68 -6.98 13.36 -8 12 C-7.01 11.67 -6.02 11.34 -5 11 C-3.79117904 8.99983534 -3.79117904 8.99983534 -3 7 C-4.32 7.33 -5.64 7.66 -7 8 C-5.9363919 4.72054168 -4.1945074 0 0 0 Z " fill="#6A686A" transform="translate(189,177)"/>
<path d="M0 0 C20.99859944 12.99719888 20.99859944 12.99719888 23 17 C17.80013756 15.32564429 13.65869684 12.18873443 9.25 9.0625 C8.47011719 8.52431641 7.69023437 7.98613281 6.88671875 7.43164062 C6.14550781 6.90892578 5.40429688 6.38621094 4.640625 5.84765625 C3.96547852 5.37336182 3.29033203 4.89906738 2.59472656 4.41040039 C1 3 1 3 0 0 Z " fill="#62666A" transform="translate(226,124)"/>
<path d="M0 0 C3.14958831 3.42346555 3.56179109 6.44262737 4 11 C3.34 9.68 2.68 8.36 2 7 C1.10796875 7.22816406 0.2159375 7.45632812 -0.703125 7.69140625 C-1.87359375 7.97886719 -3.0440625 8.26632813 -4.25 8.5625 C-5.41015625 8.85253906 -6.5703125 9.14257812 -7.765625 9.44140625 C-10.72090983 9.95179964 -12.24434101 10.02996165 -15 9 C-9.54873741 6.76108858 -4.86809507 5.52393706 1 5 C0.67 3.35 0.34 1.7 0 0 Z " fill="#505253" transform="translate(43,20)"/>
<path d="M0 0 C1.32 1.32 2.64 2.64 4 4 C4 3.34 4 2.68 4 2 C5.65 1.34 7.3 0.68 9 0 C9 0.66 9 1.32 9 2 C7.02053408 3.36363208 5.0180755 4.69418644 3 6 C1.9973369 6.99732979 0.99745224 7.99745872 0 9 C-1.21084367 9.92044862 -2.44036342 10.81685748 -3.6875 11.6875 C-4.31011719 12.12449219 -4.93273437 12.56148437 -5.57421875 13.01171875 C-6.04472656 13.33785156 -6.51523438 13.66398438 -7 14 C-7.66 13.67 -8.32 13.34 -9 13 C-8.43410156 12.64808594 -7.86820312 12.29617187 -7.28515625 11.93359375 C-2.95614348 9.19599341 -2.95614348 9.19599341 -0.24609375 5.04296875 C0.0662845 2.93068384 0.0662845 2.93068384 0 0 Z " fill="#4C4E54" transform="translate(95,148)"/>
<path d="M0 0 C10.93025271 0.21056529 10.93025271 0.21056529 14.1875 3.5625 C15.0846875 4.7690625 15.0846875 4.7690625 16 6 C14.515 8.475 14.515 8.475 13 11 C11.22293791 8.33440687 10.12451727 5.9719385 9 3 C7.700625 2.87625 6.40125 2.7525 5.0625 2.625 C2.84765625 2.4140625 2.84765625 2.4140625 1 2 C0.67 1.34 0.34 0.68 0 0 Z " fill="#B48A71" transform="translate(243,161)"/>
<path d="M0 0 C1.32 0 2.64 0 4 0 C4 0.66 4 1.32 4 2 C4.556875 2.268125 5.11375 2.53625 5.6875 2.8125 C8 4 8 4 10.4375 5.5 C12.90357038 6.9435534 15.32573149 8.00670027 18 9 C17.67 9.99 17.34 10.98 17 12 C11.60619364 9.90240864 8.10527026 8.10527026 4 4 C3.01 3.67 2.02 3.34 1 3 C0.67 2.01 0.34 1.02 0 0 Z " fill="#959D9D" transform="translate(326,2)"/>
<path d="M0 0 C4.12969572 6.19454359 4.30062652 12.78496357 4 20 C2.5420162 17.222888 1.41215203 14.48008789 0.4375 11.5 C0.18871094 10.7471875 -0.06007812 9.994375 -0.31640625 9.21875 C-0.54199219 8.4865625 -0.76757812 7.754375 -1 7 C-1.35384766 5.96359375 -1.35384766 5.96359375 -1.71484375 4.90625 C-2 3 -2 3 0 0 Z " fill="#23313A" transform="translate(225,189)"/>
<path d="M0 0 C3.465 1.98 3.465 1.98 7 4 C6.01 4.495 6.01 4.495 5 5 C4.67 5.66 4.34 6.32 4 7 C3 9 3 9 1 10 C0.71125 9.38125 0.4225 8.7625 0.125 8.125 C-0.93720042 5.86674235 -0.93720042 5.86674235 -3 4 C-2.01 2.68 -1.02 1.36 0 0 Z " fill="#5C5A5C" transform="translate(142,253)"/>
<path d="M0 0 C3.69212947 1.75945923 7.18923802 3.82614587 10.6875 5.9375 C11.28111328 6.28490234 11.87472656 6.63230469 12.48632812 6.99023438 C16.88437872 9.65313616 16.88437872 9.65313616 18 13 C14.23346605 11.63648771 11.15351373 9.92096222 7.875 7.625 C7.02679688 7.03976563 6.17859375 6.45453125 5.3046875 5.8515625 C3.08359181 4.06715681 1.58513065 2.35179515 0 0 Z " fill="#B9A08E" transform="translate(331,22)"/>
<path d="M0 0 C1.134375 0.020625 2.26875 0.04125 3.4375 0.0625 C3.4375 0.3925 3.4375 0.7225 3.4375 1.0625 C1.7875 1.3925 0.1375 1.7225 -1.5625 2.0625 C-1.5625 2.7225 -1.5625 3.3825 -1.5625 4.0625 C-2.5525 4.0625 -3.5425 4.0625 -4.5625 4.0625 C-4.44943303 6.02144361 -4.44943303 6.02144361 -3.5625 8.0625 C-1.07215614 9.35910434 -1.07215614 9.35910434 1.4375 10.0625 C1.4375 10.7225 1.4375 11.3825 1.4375 12.0625 C-4.3125 10.4375 -4.3125 10.4375 -6.5625 7.0625 C-6.5625 6.0725 -6.5625 5.0825 -6.5625 4.0625 C-7.5525 3.7325 -8.5425 3.4025 -9.5625 3.0625 C-8.758125 2.753125 -7.95375 2.44375 -7.125 2.125 C-2.08836207 0.03663793 -2.08836207 0.03663793 0 0 Z " fill="#676567" transform="translate(253.5625,112.9375)"/>
<path d="M0 0 C3 0 3 0 5.5 2.375 C6.325 3.24125 7.15 4.1075 8 5 C8.99 5.66 9.98 6.32 11 7 C11 7.66 11 8.32 11 9 C11.99 9.33 12.98 9.66 14 10 C12.22265625 10.70703125 12.22265625 10.70703125 10 11 C8.18359375 9.63671875 8.18359375 9.63671875 6.4375 7.6875 C4.31446256 5.35641435 2.66135458 3.77423639 0 2 C0 1.34 0 0.68 0 0 Z " fill="#C6C0B3" transform="translate(94,263)"/>
<path d="M0 0 C2.6156379 3.00313981 4.79139514 6.14130015 6.8125 9.5625 C7.25207031 10.30628906 7.69164062 11.05007812 8.14453125 11.81640625 C9.14010478 14.35761906 8.93092208 15.48137034 8 18 C8 17.34 8 16.68 8 16 C5.69 16.33 3.38 16.66 1 17 C1.66 16.34 2.32 15.68 3 15 C3.99 15 4.98 15 6 15 C5.71125 14.37351563 5.4225 13.74703125 5.125 13.1015625 C4.75375 12.28429687 4.3825 11.46703125 4 10.625 C3.62875 9.81289062 3.2575 9.00078125 2.875 8.1640625 C2 6 2 6 2 4 C1.34 4 0.68 4 0 4 C0 2.68 0 1.36 0 0 Z " fill="#636263" transform="translate(333,183)"/>
<path d="M0 0 C-0.66 1.32 -1.32 2.64 -2 4 C-2 3.34 -2 2.68 -2 2 C-5.465 3.485 -5.465 3.485 -9 5 C-8.67 6.65 -8.34 8.3 -8 10 C-9.9375 9.3125 -9.9375 9.3125 -12 8 C-12.75 5.375 -12.75 5.375 -13 3 C-12.236875 2.87625 -11.47375 2.7525 -10.6875 2.625 C-6.4884381 1.64847398 -4.52194149 -0.24442927 0 0 Z " fill="#5D5F61" transform="translate(200,119)"/>
<path d="M0 0 C0.33 0.99 0.66 1.98 1 3 C-1.0625 5.5 -1.0625 5.5 -4 8 C-7.8125 8.3125 -7.8125 8.3125 -11 8 C-11.33 7.34 -11.66 6.68 -12 6 C-10.7625 5.7525 -9.525 5.505 -8.25 5.25 C-4.48560327 4.3289242 -2.46922107 3.08652634 0 0 Z " fill="#322F32" transform="translate(267,227)"/>
<path d="M0 0 C4.46609961 2.50101578 8.81904111 5.04273639 13 8 C13 8.33 13 8.66 13 9 C8.41759802 9.69430333 6.04511765 8.01438722 2.453125 5.484375 C0.7241637 3.71823174 0.39111157 2.40842385 0 0 Z " fill="#6C4E4A" transform="translate(89,222)"/>
<path d="M0 0 C0.99 0 1.98 0 3 0 C4.62950412 4.12168689 5.26264601 6.70700357 4 11 C3.34 11 2.68 11 2 11 C0.80712589 7.12315913 0 4.08378077 0 0 Z " fill="#2B363C" transform="translate(222,216)"/>
<path d="M0 0 C1.65 0.99 3.3 1.98 5 3 C4.34 3.66 3.68 4.32 3 5 C3 4.34 3 3.68 3 3 C-1.28324091 5.51407619 -3.64531705 7.12314139 -5 12 C-5.66 12 -6.32 12 -7 12 C-5.63855967 6.80177328 -3.53269829 3.90456127 0 0 Z " fill="#9D9C9C" transform="translate(133,127)"/>
<path d="M0 0 C0.721875 0.350625 1.44375 0.70125 2.1875 1.0625 C5.3122705 2.10409017 6.88161996 1.89096572 10 1 C9.67 2.32 9.34 3.64 9 5 C9.99 5.33 10.98 5.66 12 6 C11.01 6 10.02 6 9 6 C8.67 7.32 8.34 8.64 8 10 C6 7 6 7 6 4 C4.02 3.34 2.04 2.68 0 2 C0 1.34 0 0.68 0 0 Z " fill="#706F72" transform="translate(196,81)"/>
<path d="M0 0 C2.31907979 3.62133228 2.1112694 6.41335942 1.75 10.625 C1.66234375 11.77226562 1.5746875 12.91953125 1.484375 14.1015625 C1 17 1 17 -1 19 C-2.19127531 14.643098 -1.76679687 11.12042737 -1.0625 6.6875 C-0.86785156 5.43324219 -0.67320312 4.17898437 -0.47265625 2.88671875 C-0.31667969 1.93410156 -0.16070312 0.98148438 0 0 Z " fill="#997361" transform="translate(236,241)"/>
<path d="M0 0 C0.66 0.33 1.32 0.66 2 1 C1.38511719 1.90492188 1.38511719 1.90492188 0.7578125 2.828125 C-0.05042969 4.02695313 -0.05042969 4.02695313 -0.875 5.25 C-1.40867187 6.03890625 -1.94234375 6.8278125 -2.4921875 7.640625 C-3.81822015 9.71555692 -4.94928175 11.77614972 -6 14 C-6.33 14 -6.66 14 -7 14 C-7 12.35 -7 10.7 -7 9 C-6.34 9 -5.68 9 -5 9 C-5 6.69 -5 4.38 -5 2 C-4.01 2.33 -3.02 2.66 -2 3 C-1.34 2.01 -0.68 1.02 0 0 Z " fill="#5F6061" transform="translate(322,215)"/>
<path d="M0 0 C0.66 0 1.32 0 2 0 C3.32 2.31 4.64 4.62 6 7 C3.69 7 1.38 7 -1 7 C-0.67 4.69 -0.34 2.38 0 0 Z " fill="#555456" transform="translate(214,149)"/>
<path d="M0 0 C2 0.25 2 0.25 4 1 C4.33 1.99 4.66 2.98 5 4 C4.01 5.485 4.01 5.485 3 7 C1.68 6.67 0.36 6.34 -1 6 C-1.042721 4.33388095 -1.04063832 2.66617115 -1 1 C-0.67 0.67 -0.34 0.34 0 0 Z " fill="#6E6E6E" transform="translate(85,21)"/>
<path d="M0 0 C0.66 0.33 1.32 0.66 2 1 C2.99 1.33 3.98 1.66 5 2 C1.98112756 5.48331435 -0.56909529 6.79157144 -5 8 C-3.62845496 5.04590299 -2.01136276 2.55991624 0 0 Z " fill="#434140" transform="translate(236,265)"/>
<path d="M0 0 C-0.33 2.97 -0.66 5.94 -1 9 C-1.99 9 -2.98 9 -4 9 C-4.1875 5.625 -4.1875 5.625 -4 2 C-1 0 -1 0 0 0 Z " fill="#2A3137" transform="translate(70,89)"/>
<path d="M0 0 C0.33 0.66 0.66 1.32 1 2 C-0.97764782 6.06516496 -3.7373124 8.91367389 -7 12 C-7.66 11.67 -8.32 11.34 -9 11 C-6.03 7.37 -3.06 3.74 0 0 Z " fill="#AC7962" transform="translate(216,183)"/>
<path d="M0 0 C0 0.66 0 1.32 0 2 C-0.804375 2.12375 -1.60875 2.2475 -2.4375 2.375 C-3.7059375 2.684375 -3.7059375 2.684375 -5 3 C-5.33 3.66 -5.66 4.32 -6 5 C-6.99 4.67 -7.98 4.34 -9 4 C-9.33 4.99 -9.66 5.98 -10 7 C-9.67 5.02 -9.34 3.04 -9 1 C-5.846632 0.29925156 -3.27275026 0 0 0 Z " fill="#45464C" transform="translate(195,174)"/>
<path d="M0 0 C0.66 0.33 1.32 0.66 2 1 C1.67 2.32 1.34 3.64 1 5 C-0.32 5 -1.64 5 -3 5 C-3.33 5.66 -3.66 6.32 -4 7 C-4.66 6.01 -5.32 5.02 -6 4 C-4.02 2.68 -2.04 1.36 0 0 Z " fill="#696F71" transform="translate(164,144)"/>
<path d="M0 0 C3 1 3 1 5 4 C4.67 4.99 4.34 5.98 4 7 C3.01 6.01 2.02 5.02 1 4 C0.67 5.32 0.34 6.64 0 8 C-0.66 7.67 -1.32 7.34 -2 7 C-1.34 4.69 -0.68 2.38 0 0 Z " fill="#6B6A6B" transform="translate(54,63)"/>
<path d="M0 0 C0.99 0.33 1.98 0.66 3 1 C-2.445 4.96 -2.445 4.96 -8 9 C-8.66 8.67 -9.32 8.34 -10 8 C-8.40629329 6.63353852 -6.79967018 5.28212834 -5.1875 3.9375 C-4.29417969 3.18339844 -3.40085938 2.42929687 -2.48046875 1.65234375 C-1.25263672 0.83443359 -1.25263672 0.83443359 0 0 Z " fill="#302E32" transform="translate(227,265)"/>
<path d="M0 0 C0.36923077 5.53846154 0.36923077 5.53846154 -1.5 7.875 C-2.2425 8.431875 -2.2425 8.431875 -3 9 C-3.59732819 6.23735711 -4 3.83967231 -4 1 C-1 0 -1 0 0 0 Z " fill="#A47660" transform="translate(271,224)"/>
<path d="M0 0 C1.41687119 4.25061356 0.19320039 6.71851625 -1 11 C-2.32 11.33 -3.64 11.66 -5 12 C-3.68938409 7.76570244 -2.05643741 3.92592596 0 0 Z " fill="#976D5C" transform="translate(226,165)"/>
<path d="M0 0 C1.1446875 0.495 1.1446875 0.495 2.3125 1 C4.99069135 2.17436686 4.99069135 2.17436686 8 2 C7.01 3.485 7.01 3.485 6 5 C6 5.99 6 6.98 6 8 C3.5625 6.8125 3.5625 6.8125 1 5 C0.1875 2.3125 0.1875 2.3125 0 0 Z " fill="#5A5A5C" transform="translate(225,146)"/>
<path d="M0 0 C0.93972656 0.23396484 0.93972656 0.23396484 1.8984375 0.47265625 C3.12433594 0.76462891 3.12433594 0.76462891 4.375 1.0625 C5.59316406 1.35833984 5.59316406 1.35833984 6.8359375 1.66015625 C9.04161284 2.22109319 9.04161284 2.22109319 11 1 C11.33 2.32 11.66 3.64 12 5 C10.68 5 9.36 5 8 5 C7.67 5.99 7.34 6.98 7 8 C6.67 7.34 6.34 6.68 6 6 C6.33 5.34 6.66 4.68 7 4 C6.030625 3.71125 5.06125 3.4225 4.0625 3.125 C1 2 1 2 0 0 Z " fill="#7D7A7A" transform="translate(214,89)"/>
<path d="M0 0 C0.33 0.99 0.66 1.98 1 3 C-4.75 7 -4.75 7 -7 7 C-7 6.34 -7 5.68 -7 5 C-7.66 4.67 -8.32 4.34 -9 4 C-7.6078125 3.566875 -7.6078125 3.566875 -6.1875 3.125 C-2.90208333 2.1125 -2.90208333 2.1125 0 0 Z " fill="#B3866E" transform="translate(267,231)"/>
<path d="M0 0 C0.55171875 0.31710938 1.1034375 0.63421875 1.671875 0.9609375 C4.28477989 2.12709975 6.40579002 2.40045711 9.25 2.625 C10.14203125 2.69976562 11.0340625 2.77453125 11.953125 2.8515625 C12.96632812 2.92503906 12.96632812 2.92503906 14 3 C14 3.33 14 3.66 14 4 C11.36 4 8.72 4 6 4 C6 4.66 6 5.32 6 6 C3.37812506 4.95125002 2.20628639 4.35068687 0.75 1.875 C0.5025 1.25625 0.255 0.6375 0 0 Z " fill="#4B403D" transform="translate(199,216)"/>
<path d="M0 0 C0.99 0.66 1.98 1.32 3 2 C4.32 1.34 5.64 0.68 7 0 C6.07038578 1.15224028 5.1309875 2.29659176 4.1875 3.4375 C3.40439453 4.39462891 3.40439453 4.39462891 2.60546875 5.37109375 C1 7 1 7 -2 8 C-1.34 5.36 -0.68 2.72 0 0 Z " fill="#6C6B68" transform="translate(347,212)"/>
<path d="M0 0 C1.33332095 2.6666419 0.67102033 4.16680303 0 7 C-0.99 7 -1.98 7 -3 7 C-4.68798827 8.43750191 -4.68798827 8.43750191 -6 10 C-6.99 9.67 -7.98 9.34 -9 9 C-8 7 -8 7 -5.625 5.625 C-2.98626669 3.99149843 -1.68185174 2.56703686 0 0 Z " fill="#15212A" transform="translate(225,184)"/>
<path d="M0 0 C0.66 1.32 1.32 2.64 2 4 C0.90716423 5.03295436 -0.19970579 6.05107835 -1.3125 7.0625 C-1.92738281 7.63097656 -2.54226562 8.19945312 -3.17578125 8.78515625 C-3.77777344 9.18605469 -4.37976563 9.58695313 -5 10 C-5.99 9.67 -6.98 9.34 -8 9 C-7.401875 8.566875 -6.80375 8.13375 -6.1875 7.6875 C-3.02346954 5.2466765 -1.28201062 3.84603187 0 0 Z " fill="#393A3E" transform="translate(212,163)"/>
<path d="M0 0 C0.99 0.99 1.98 1.98 3 3 C2.67 3.66 2.34 4.32 2 5 C0.35 4.67 -1.3 4.34 -3 4 C-3.33 4.66 -3.66 5.32 -4 6 C-5.65 5.01 -7.3 4.02 -9 3 C-6.04335481 1.5216774 -3.25770263 1.93967217 0 2 C0 1.34 0 0.68 0 0 Z " fill="#565458" transform="translate(236,104)"/>
<path d="M0 0 C-0.33 2.31 -0.66 4.62 -1 7 C-1.33 6.34 -1.66 5.68 -2 5 C-4.52733235 4.34444881 -4.52733235 4.34444881 -7 4 C-3.17391304 0 -3.17391304 0 0 0 Z " fill="#E1DDD5" transform="translate(157,88)"/>
<path d="M0 0 C0 1.65 0 3.3 0 5 C-0.33 3.68 -0.66 2.36 -1 1 C-3.9719385 2.12451727 -6.33440687 3.22293791 -9 5 C-9 3.68 -9 2.36 -9 1 C-5.64919071 -1.10976881 -3.77897651 -1.0497157 0 0 Z " fill="#5D5E5F" transform="translate(198,70)"/>
<path d="M0 0 C0.33 1.32 0.66 2.64 1 4 C-1.31 5.98 -3.62 7.96 -6 10 C-6 6.41087588 -5.33563446 5.89142971 -3 3.3125 C-2.443125 2.68988281 -1.88625 2.06726562 -1.3125 1.42578125 C-0.879375 0.95527344 -0.44625 0.48476563 0 0 Z " fill="#868381" transform="translate(130,45)"/>
<path d="M0 0 C0 3 0 3 -1.4609375 4.60546875 C-2.09257812 5.12753906 -2.72421875 5.64960938 -3.375 6.1875 C-4.00148437 6.71730469 -4.62796875 7.24710937 -5.2734375 7.79296875 C-7 9 -7 9 -9 9 C-7.48328036 4.44984107 -3.83108947 2.49942736 0 0 Z " fill="#B6846A" transform="translate(233,258)"/>
<path d="M0 0 C0.33 0 0.66 0 1 0 C1 1.65 1 3.3 1 5 C2.65 4.67 4.3 4.34 6 4 C5.67 4.66 5.34 5.32 5 6 C3.66923011 6.34342449 2.33568021 6.67619874 1 7 C0.34 7.66 -0.32 8.32 -1 9 C-1.625 5.625 -1.625 5.625 -2 2 C-1.34 1.34 -0.68 0.68 0 0 Z " fill="#3F464B" transform="translate(167,142)"/>
<path d="M0 0 C0.33 0 0.66 0 1 0 C0.67 2.31 0.34 4.62 0 7 C-1.65 7.66 -3.3 8.32 -5 9 C-3.75471468 5.55151758 -2.38532951 2.80016942 0 0 Z " fill="#373C40" transform="translate(308,131)"/>
<path d="M0 0 C2.31 0 4.62 0 7 0 C6.34 1.32 5.68 2.64 5 4 C3.02 4 1.04 4 -1 4 C-0.67 2.68 -0.34 1.36 0 0 Z " fill="#6A6A68" transform="translate(100,0)"/>
<path d="M0 0 C0.66 0.33 1.32 0.66 2 1 C0.9375 3.4375 0.9375 3.4375 -1 6 C-4.6875 6.8125 -4.6875 6.8125 -8 7 C-5.4837822 4.39391727 -2.94865641 2.10618315 0 0 Z " fill="#6F5E57" transform="translate(227,267)"/>
<path d="M0 0 C0.66 0.33 1.32 0.66 2 1 C1.07213211 2.00894372 0.13231567 3.00690907 -0.8125 4 C-1.59560547 4.8353125 -1.59560547 4.8353125 -2.39453125 5.6875 C-4 7 -4 7 -7 7 C-7 5 -7 5 -5.1875 2.9375 C-3 1 -3 1 0 0 Z " fill="#805A4F" transform="translate(246,247)"/>
<path d="M0 0 C1.98 0.495 1.98 0.495 4 1 C3.01 3.97 2.02 6.94 1 10 C0.34 9.67 -0.32 9.34 -1 9 C-0.67 6.03 -0.34 3.06 0 0 Z " fill="#535454" transform="translate(318,233)"/>
<path d="M0 0 C2.64 0.33 5.28 0.66 8 1 C7.34 2.32 6.68 3.64 6 5 C5.01 5 4.02 5 3 5 C2.87625 4.360625 2.7525 3.72125 2.625 3.0625 C2.315625 2.0415625 2.315625 2.0415625 2 1 C1.34 0.67 0.68 0.34 0 0 Z " fill="#868789" transform="translate(132,163)"/>
<path d="M0 0 C1.2065625 0.0309375 1.2065625 0.0309375 2.4375 0.0625 C2.1075 1.3825 1.7775 2.7025 1.4375 4.0625 C-0.2125 4.0625 -1.8625 4.0625 -3.5625 4.0625 C-3.5625 0.08689024 -3.5625 0.08689024 0 0 Z " fill="#5E6163" transform="translate(218.5625,140.9375)"/>
<path d="M0 0 C1.34882814 2.69765628 0.80338265 4.15164334 0 7 C-0.99 7.495 -0.99 7.495 -2 8 C-2.33 8.99 -2.66 9.98 -3 11 C-3.66 11 -4.32 11 -5 11 C-5.36995516 6.43721973 -5.36995516 6.43721973 -3.625 4.375 C-2.820625 3.694375 -2.820625 3.694375 -2 3 C-1.34 2.01 -0.68 1.02 0 0 Z " fill="#56575B" transform="translate(197,123)"/>
<path d="M0 0 C0.99 0.33 1.98 0.66 3 1 C3.33 2.98 3.66 4.96 4 7 C4.66 7 5.32 7 6 7 C5.67 7.99 5.34 8.98 5 10 C4.15801693 8.90241493 3.32669329 7.79664683 2.5 6.6875 C2.0359375 6.07261719 1.571875 5.45773438 1.09375 4.82421875 C0 3 0 3 0 0 Z " fill="#664A42" transform="translate(208,196)"/>
<path d="M0 0 C1.46300982 0.93018526 2.92025579 1.86944027 4.375 2.8125 C5.18710938 3.33457031 5.99921875 3.85664063 6.8359375 4.39453125 C9 6 9 6 11 9 C7.66864109 8.40300869 5.78724333 7.27987719 3.25 5.0625 C2.63640625 4.53785156 2.0228125 4.01320313 1.390625 3.47265625 C0 2 0 2 0 0 Z " fill="#636568" transform="translate(214,26)"/>
<path d="M0 0 C4.99275057 1.27721526 7.57611908 3.17330957 11 7 C6.89188572 5.55007731 3.53144334 3.54592427 0 1 C0 0.67 0 0.34 0 0 Z " fill="#A18C80" transform="translate(333,22)"/>
<path d="M0 0 C1.32 0.99 2.64 1.98 4 3 C3.21625 3.061875 2.4325 3.12375 1.625 3.1875 C0.75875 3.455625 -0.1075 3.72375 -1 4 C-2.23290201 6.45704762 -2.23290201 6.45704762 -3 9 C-3.99 9.495 -3.99 9.495 -5 10 C-3.66511872 6.40608886 -2.03977277 3.24509304 0 0 Z " fill="#72706F" transform="translate(85,79)"/>
<path d="M0 0 C2.475 0.99 2.475 0.99 5 2 C4.67 2.99 4.34 3.98 4 5 C3.01 5.33 2.02 5.66 1 6 C0 5 0 5 -0.0625 2.4375 C-0.041875 1.633125 -0.02125 0.82875 0 0 Z " fill="#EAE7DE" transform="translate(99,159)"/>
<path d="M0 0 C0.99 0 1.98 0 3 0 C2.67 1.65 2.34 3.3 2 5 C0.02 5 -1.96 5 -4 5 C-2.1875 2.5 -2.1875 2.5 0 0 Z " fill="#777877" transform="translate(157,84)"/>
<path d="M0 0 C3.93673644 1.31224548 6.22719294 2.91910327 9 6 C8.67 6.66 8.34 7.32 8 8 C6.66372225 6.85760183 5.33104612 5.71098945 4 4.5625 C3.2575 3.92441406 2.515 3.28632812 1.75 2.62890625 C1.1725 2.09136719 0.595 1.55382813 0 1 C0 0.67 0 0.34 0 0 Z " fill="#494D52" transform="translate(224,35)"/>
<path d="M0 0 C1.65 0 3.3 0 5 0 C5.33 0.66 5.66 1.32 6 2 C5.01 2 4.02 2 3 2 C3 2.66 3 3.32 3 4 C2.34 4 1.68 4 1 4 C0.67 4.66 0.34 5.32 0 6 C0 4.02 0 2.04 0 0 Z " fill="#BBA594" transform="translate(25,217)"/>
<path d="M0 0 C3.36591866 1.44253657 5.51047079 3.33264727 8 6 C7.67 6.66 7.34 7.32 7 8 C4.35247996 5.42215154 2.05567935 3.08351902 0 0 Z " fill="#C7AE98" transform="translate(349,35)"/>
<path d="M0 0 C1.39195915 4.17587745 -0.17676781 6.13474776 -2 10 C-2.66 9.01 -3.32 8.02 -4 7 C-2.68 4.69 -1.36 2.38 0 0 Z " fill="#383A3E" transform="translate(92,19)"/>
<path d="M0 0 C3.93673644 1.31224548 6.22719294 2.91910327 9 6 C6.07606119 5.37344168 3.55170871 4.5838192 1 3 C0.67 2.01 0.34 1.02 0 0 Z " fill="#B2B6AF" transform="translate(340,8)"/>
<path d="M0 0 C-0.66 1.32 -1.32 2.64 -2 4 C-2 3.34 -2 2.68 -2 2 C-3.98 2.33 -5.96 2.66 -8 3 C-5.53387212 -0.1151089 -3.89156016 -0.31553191 0 0 Z " fill="#525659" transform="translate(200,119)"/>
<path d="M0 0 C2.475 0.99 2.475 0.99 5 2 C4.34 3.65 3.68 5.3 3 7 C1.79371992 4.66785852 0.8345262 2.50357861 0 0 Z " fill="#B19B8A" transform="translate(355,38)"/>
</svg>
